%TF.GenerationSoftware,KiCad,Pcbnew,8.0.8*%
%TF.CreationDate,2025-03-21T07:08:09+05:30*%
%TF.ProjectId,project2_MCU_datalogger,70726f6a-6563-4743-925f-4d43555f6461,1.0*%
%TF.SameCoordinates,Original*%
%TF.FileFunction,Legend,Bot*%
%TF.FilePolarity,Positive*%
%FSLAX46Y46*%
G04 Gerber Fmt 4.6, Leading zero omitted, Abs format (unit mm)*
G04 Created by KiCad (PCBNEW 8.0.8) date 2025-03-21 07:08:09*
%MOMM*%
%LPD*%
G01*
G04 APERTURE LIST*
%ADD10C,0.000000*%
G04 APERTURE END LIST*
D10*
%TO.C,G\u002A\u002A\u002A*%
G36*
X43388155Y-31688916D02*
G01*
X43405455Y-31701909D01*
X43419843Y-31718012D01*
X43418253Y-31803877D01*
X43416663Y-31889742D01*
X43402492Y-31901920D01*
X43398780Y-31904843D01*
X43379303Y-31913260D01*
X43358913Y-31912282D01*
X43339922Y-31901909D01*
X43325751Y-31889719D01*
X43325751Y-31801009D01*
X43325751Y-31712299D01*
X43338997Y-31699053D01*
X43350097Y-31690572D01*
X43369010Y-31685108D01*
X43388155Y-31688916D01*
G37*
G36*
X43644422Y-34083533D02*
G01*
X43662011Y-34095615D01*
X43676775Y-34110378D01*
X43676775Y-34195505D01*
X43676603Y-34226243D01*
X43675776Y-34253688D01*
X43673947Y-34273706D01*
X43670770Y-34287732D01*
X43665902Y-34297197D01*
X43659000Y-34303533D01*
X43649718Y-34308175D01*
X43635326Y-34312201D01*
X43617295Y-34310119D01*
X43600626Y-34298420D01*
X43585862Y-34283656D01*
X43585862Y-34195329D01*
X43585862Y-34107002D01*
X43601402Y-34093927D01*
X43607149Y-34089539D01*
X43626045Y-34081506D01*
X43644422Y-34083533D01*
G37*
G36*
X43899821Y-34082864D02*
G01*
X43918821Y-34093927D01*
X43934361Y-34107002D01*
X43934361Y-34197017D01*
X43934361Y-34287032D01*
X43918225Y-34300609D01*
X43910168Y-34306778D01*
X43898243Y-34311810D01*
X43884133Y-34311330D01*
X43869290Y-34306249D01*
X43854812Y-34295395D01*
X43851492Y-34291305D01*
X43848249Y-34285683D01*
X43846018Y-34278168D01*
X43844611Y-34267119D01*
X43843840Y-34250893D01*
X43843515Y-34227850D01*
X43843448Y-34196347D01*
X43843448Y-34110378D01*
X43858212Y-34095615D01*
X43863406Y-34090922D01*
X43881260Y-34081865D01*
X43899821Y-34082864D01*
G37*
G36*
X42317682Y-33339263D02*
G01*
X42389699Y-33340923D01*
X42404424Y-33357417D01*
X42404662Y-33357685D01*
X42415786Y-33376541D01*
X42417411Y-33395699D01*
X42409831Y-33413301D01*
X42393340Y-33427491D01*
X42386540Y-33430009D01*
X42374478Y-33431911D01*
X42356282Y-33433009D01*
X42330635Y-33433379D01*
X42296221Y-33433097D01*
X42211173Y-33431835D01*
X42198995Y-33417664D01*
X42188733Y-33399302D01*
X42187289Y-33380232D01*
X42193947Y-33362708D01*
X42207891Y-33348871D01*
X42228304Y-33340860D01*
X42230471Y-33340534D01*
X42244135Y-33339561D01*
X42264833Y-33338997D01*
X42290152Y-33338883D01*
X42317682Y-33339263D01*
G37*
G36*
X42864427Y-34082864D02*
G01*
X42883426Y-34093927D01*
X42898966Y-34107002D01*
X42898966Y-34193817D01*
X42898764Y-34227708D01*
X42897904Y-34254626D01*
X42896048Y-34274248D01*
X42892858Y-34288002D01*
X42887997Y-34297320D01*
X42881127Y-34303631D01*
X42871909Y-34308366D01*
X42854622Y-34311293D01*
X42835354Y-34306742D01*
X42819417Y-34295230D01*
X42816079Y-34291165D01*
X42812842Y-34285595D01*
X42810616Y-34278116D01*
X42809212Y-34267090D01*
X42808443Y-34250879D01*
X42808119Y-34227845D01*
X42808053Y-34196347D01*
X42808053Y-34110378D01*
X42822817Y-34095615D01*
X42828011Y-34090922D01*
X42845865Y-34081865D01*
X42864427Y-34082864D01*
G37*
G36*
X44798420Y-33095575D02*
G01*
X44802191Y-33099720D01*
X44812006Y-33118254D01*
X44812897Y-33137506D01*
X44805154Y-33155206D01*
X44789066Y-33169083D01*
X44787280Y-33169997D01*
X44779104Y-33172706D01*
X44767141Y-33174506D01*
X44749817Y-33175500D01*
X44725556Y-33175793D01*
X44692780Y-33175491D01*
X44610258Y-33174249D01*
X44598080Y-33160078D01*
X44590643Y-33149074D01*
X44585343Y-33129392D01*
X44588982Y-33110228D01*
X44601441Y-33093887D01*
X44607127Y-33089318D01*
X44613074Y-33085777D01*
X44620575Y-33083386D01*
X44631341Y-33081921D01*
X44647081Y-33081154D01*
X44669504Y-33080859D01*
X44700319Y-33080811D01*
X44783656Y-33080811D01*
X44798420Y-33095575D01*
G37*
G36*
X44163560Y-31687593D02*
G01*
X44181226Y-31699039D01*
X44184901Y-31702841D01*
X44188893Y-31708169D01*
X44191662Y-31714937D01*
X44193487Y-31724879D01*
X44194648Y-31739725D01*
X44195426Y-31761207D01*
X44196099Y-31791057D01*
X44196268Y-31800004D01*
X44196441Y-31833376D01*
X44195490Y-31858517D01*
X44193141Y-31876924D01*
X44189121Y-31890096D01*
X44183157Y-31899530D01*
X44174975Y-31906723D01*
X44171855Y-31908707D01*
X44153085Y-31914208D01*
X44133448Y-31910965D01*
X44115798Y-31899335D01*
X44101034Y-31884571D01*
X44101034Y-31800925D01*
X44101034Y-31717280D01*
X44115095Y-31701543D01*
X44125592Y-31692429D01*
X44144281Y-31685418D01*
X44163560Y-31687593D01*
G37*
G36*
X44800994Y-32319699D02*
G01*
X44806049Y-32326506D01*
X44813140Y-32346104D01*
X44810573Y-32365923D01*
X44798420Y-32384202D01*
X44783656Y-32398966D01*
X44700319Y-32398966D01*
X44671150Y-32398926D01*
X44648257Y-32398653D01*
X44632153Y-32397922D01*
X44621129Y-32396506D01*
X44613475Y-32394179D01*
X44607482Y-32390716D01*
X44601441Y-32385890D01*
X44590516Y-32372521D01*
X44585030Y-32353687D01*
X44587801Y-32334454D01*
X44598936Y-32317772D01*
X44599403Y-32317334D01*
X44604401Y-32313039D01*
X44609865Y-32309936D01*
X44617401Y-32307832D01*
X44628616Y-32306533D01*
X44645115Y-32305846D01*
X44668503Y-32305575D01*
X44700387Y-32305528D01*
X44788805Y-32305528D01*
X44800994Y-32319699D01*
G37*
G36*
X44171447Y-34088274D02*
G01*
X44180052Y-34094176D01*
X44187037Y-34103430D01*
X44191893Y-34117037D01*
X44194950Y-34136427D01*
X44196541Y-34163028D01*
X44196997Y-34198270D01*
X44196751Y-34223030D01*
X44195305Y-34252620D01*
X44192267Y-34274452D01*
X44187297Y-34289900D01*
X44180060Y-34300337D01*
X44170216Y-34307138D01*
X44163053Y-34310133D01*
X44145499Y-34312248D01*
X44126748Y-34305846D01*
X44120440Y-34302102D01*
X44112871Y-34295024D01*
X44107494Y-34285015D01*
X44104011Y-34270646D01*
X44102124Y-34250487D01*
X44101533Y-34223111D01*
X44101941Y-34187086D01*
X44103559Y-34105206D01*
X44117731Y-34093029D01*
X44131206Y-34084399D01*
X44150282Y-34081472D01*
X44171447Y-34088274D01*
G37*
G36*
X43136406Y-34088456D02*
G01*
X43138411Y-34089554D01*
X43147218Y-34096633D01*
X43153636Y-34107060D01*
X43157935Y-34122175D01*
X43160387Y-34143318D01*
X43161263Y-34171829D01*
X43160835Y-34209049D01*
X43159077Y-34283721D01*
X43141969Y-34299000D01*
X43130715Y-34307921D01*
X43119953Y-34312050D01*
X43106916Y-34311368D01*
X43106262Y-34311256D01*
X43090849Y-34306100D01*
X43078568Y-34298066D01*
X43076154Y-34295431D01*
X43072989Y-34290326D01*
X43070704Y-34282944D01*
X43069111Y-34271721D01*
X43068019Y-34255091D01*
X43067237Y-34231490D01*
X43066576Y-34199353D01*
X43064987Y-34111031D01*
X43080077Y-34095941D01*
X43097075Y-34083929D01*
X43115466Y-34081438D01*
X43136406Y-34088456D01*
G37*
G36*
X42870781Y-31688846D02*
G01*
X42872391Y-31689552D01*
X42885269Y-31697473D01*
X42893509Y-31706260D01*
X42894277Y-31708338D01*
X42896215Y-31720610D01*
X42897693Y-31741189D01*
X42898635Y-31768749D01*
X42898966Y-31801962D01*
X42898966Y-31887467D01*
X42885651Y-31900783D01*
X42877940Y-31907194D01*
X42859687Y-31914163D01*
X42840783Y-31911531D01*
X42822817Y-31899335D01*
X42808053Y-31884571D01*
X42808053Y-31800514D01*
X42808089Y-31789426D01*
X42808634Y-31758289D01*
X42809771Y-31733135D01*
X42811424Y-31715335D01*
X42813511Y-31706260D01*
X42814085Y-31705292D01*
X42823141Y-31696407D01*
X42836239Y-31688846D01*
X42845985Y-31685289D01*
X42857283Y-31684459D01*
X42870781Y-31688846D01*
G37*
G36*
X42406073Y-32581179D02*
G01*
X42408284Y-32583949D01*
X42416022Y-32596519D01*
X42419149Y-32606683D01*
X42418815Y-32610763D01*
X42413905Y-32626170D01*
X42405150Y-32641223D01*
X42395158Y-32651097D01*
X42391501Y-32652194D01*
X42378284Y-32653845D01*
X42357704Y-32655161D01*
X42331480Y-32656044D01*
X42301332Y-32656398D01*
X42216344Y-32656552D01*
X42201580Y-32641788D01*
X42191299Y-32627996D01*
X42186988Y-32609124D01*
X42192692Y-32589298D01*
X42193620Y-32587582D01*
X42198486Y-32579966D01*
X42204486Y-32574379D01*
X42213114Y-32570504D01*
X42225864Y-32568024D01*
X42244232Y-32566624D01*
X42269711Y-32565988D01*
X42303796Y-32565800D01*
X42392998Y-32565639D01*
X42406073Y-32581179D01*
G37*
G36*
X42357386Y-33081950D02*
G01*
X42378025Y-33083933D01*
X42392621Y-33087655D01*
X42402542Y-33093474D01*
X42409156Y-33101745D01*
X42413829Y-33112825D01*
X42416168Y-33124503D01*
X42413213Y-33144719D01*
X42402023Y-33161748D01*
X42383794Y-33173191D01*
X42377858Y-33174403D01*
X42362422Y-33175659D01*
X42340952Y-33176359D01*
X42315752Y-33176535D01*
X42289126Y-33176222D01*
X42263379Y-33175453D01*
X42240815Y-33174261D01*
X42223739Y-33172679D01*
X42214454Y-33170741D01*
X42208381Y-33167377D01*
X42194794Y-33153182D01*
X42188298Y-33134899D01*
X42189497Y-33115389D01*
X42198994Y-33097508D01*
X42211172Y-33083337D01*
X42294561Y-33081739D01*
X42329336Y-33081351D01*
X42357386Y-33081950D01*
G37*
G36*
X42331317Y-32823269D02*
G01*
X42354982Y-32823541D01*
X42371708Y-32824240D01*
X42383152Y-32825567D01*
X42390968Y-32827722D01*
X42396812Y-32830905D01*
X42402338Y-32835316D01*
X42408268Y-32841037D01*
X42414712Y-32852477D01*
X42416394Y-32868682D01*
X42415985Y-32878009D01*
X42412088Y-32891115D01*
X42402338Y-32902047D01*
X42396908Y-32906392D01*
X42391136Y-32909568D01*
X42383433Y-32911731D01*
X42372164Y-32913075D01*
X42355695Y-32913795D01*
X42332394Y-32914085D01*
X42300625Y-32914138D01*
X42212968Y-32914138D01*
X42199892Y-32898598D01*
X42195504Y-32892851D01*
X42187471Y-32873955D01*
X42189499Y-32855578D01*
X42201580Y-32837989D01*
X42216344Y-32823225D01*
X42302313Y-32823225D01*
X42331317Y-32823269D01*
G37*
G36*
X44799868Y-32836541D02*
G01*
X44809727Y-32850173D01*
X44813184Y-32868682D01*
X44810515Y-32885290D01*
X44799868Y-32900822D01*
X44786553Y-32914138D01*
X44698624Y-32914138D01*
X44694631Y-32914138D01*
X44663893Y-32914079D01*
X44641480Y-32913779D01*
X44625792Y-32913040D01*
X44615229Y-32911665D01*
X44608192Y-32909455D01*
X44603082Y-32906212D01*
X44598299Y-32901741D01*
X44597329Y-32900749D01*
X44588471Y-32886920D01*
X44585902Y-32868682D01*
X44585915Y-32867052D01*
X44588897Y-32849306D01*
X44598299Y-32835622D01*
X44598863Y-32835059D01*
X44603604Y-32830734D01*
X44608849Y-32827616D01*
X44616198Y-32825508D01*
X44627250Y-32824213D01*
X44643606Y-32823532D01*
X44666864Y-32823269D01*
X44698624Y-32823225D01*
X44786553Y-32823225D01*
X44799868Y-32836541D01*
G37*
G36*
X43129382Y-31688717D02*
G01*
X43146022Y-31699237D01*
X43147427Y-31700656D01*
X43152208Y-31706194D01*
X43155534Y-31712548D01*
X43157733Y-31721575D01*
X43159130Y-31735130D01*
X43160055Y-31755073D01*
X43160833Y-31783258D01*
X43160993Y-31790052D01*
X43161424Y-31824149D01*
X43160835Y-31849996D01*
X43159004Y-31869152D01*
X43155706Y-31883173D01*
X43150719Y-31893615D01*
X43143820Y-31902036D01*
X43135535Y-31908572D01*
X43117325Y-31914388D01*
X43098179Y-31911276D01*
X43080403Y-31899335D01*
X43065639Y-31884571D01*
X43065639Y-31803609D01*
X43065657Y-31796216D01*
X43066173Y-31764822D01*
X43067336Y-31739050D01*
X43069058Y-31720392D01*
X43071248Y-31710337D01*
X43077038Y-31701244D01*
X43091971Y-31690153D01*
X43110392Y-31685833D01*
X43129382Y-31688717D01*
G37*
G36*
X44757463Y-33339892D02*
G01*
X44775926Y-33342235D01*
X44789138Y-33346254D01*
X44798599Y-33352224D01*
X44805809Y-33360420D01*
X44807793Y-33363540D01*
X44813293Y-33382309D01*
X44810050Y-33401947D01*
X44798420Y-33419597D01*
X44783656Y-33434361D01*
X44700319Y-33434361D01*
X44671150Y-33434320D01*
X44648257Y-33434048D01*
X44632153Y-33433317D01*
X44621129Y-33431901D01*
X44613475Y-33429574D01*
X44607482Y-33426111D01*
X44601441Y-33421285D01*
X44590525Y-33407930D01*
X44585033Y-33389095D01*
X44587795Y-33369856D01*
X44598920Y-33353167D01*
X44601647Y-33350686D01*
X44607139Y-33346705D01*
X44614034Y-33343909D01*
X44624072Y-33342034D01*
X44638991Y-33340816D01*
X44660531Y-33339991D01*
X44690433Y-33339296D01*
X44698786Y-33339136D01*
X44732250Y-33338951D01*
X44757463Y-33339892D01*
G37*
G36*
X42330781Y-32303288D02*
G01*
X42359437Y-32304424D01*
X42380014Y-32306363D01*
X42391511Y-32309037D01*
X42391805Y-32309173D01*
X42405113Y-32319857D01*
X42415158Y-32335681D01*
X42418970Y-32351996D01*
X42416437Y-32363867D01*
X42406985Y-32380042D01*
X42393340Y-32391918D01*
X42386896Y-32393953D01*
X42370877Y-32396222D01*
X42348706Y-32397833D01*
X42322669Y-32398771D01*
X42295050Y-32399025D01*
X42268135Y-32398581D01*
X42244207Y-32397426D01*
X42225552Y-32395547D01*
X42214454Y-32392932D01*
X42213751Y-32392598D01*
X42200836Y-32382031D01*
X42190834Y-32366605D01*
X42186817Y-32350984D01*
X42186829Y-32350232D01*
X42191238Y-32334505D01*
X42201471Y-32319219D01*
X42214454Y-32309037D01*
X42222791Y-32306859D01*
X42241569Y-32304762D01*
X42268633Y-32303454D01*
X42302983Y-32303003D01*
X42330781Y-32303288D01*
G37*
G36*
X42355468Y-33601424D02*
G01*
X42372014Y-33602103D01*
X42383330Y-33603418D01*
X42391061Y-33605564D01*
X42396849Y-33608735D01*
X42402338Y-33613125D01*
X42408268Y-33618845D01*
X42414712Y-33630286D01*
X42416394Y-33646490D01*
X42415985Y-33655818D01*
X42412088Y-33668924D01*
X42402338Y-33679856D01*
X42397290Y-33683928D01*
X42391542Y-33687212D01*
X42383968Y-33689450D01*
X42372913Y-33690842D01*
X42356722Y-33691589D01*
X42333741Y-33691891D01*
X42302313Y-33691947D01*
X42216344Y-33691947D01*
X42201580Y-33677183D01*
X42191299Y-33663390D01*
X42186988Y-33644518D01*
X42192692Y-33624693D01*
X42193091Y-33623948D01*
X42197993Y-33616005D01*
X42203891Y-33610173D01*
X42212304Y-33606123D01*
X42224747Y-33603528D01*
X42242740Y-33602061D01*
X42267797Y-33601392D01*
X42301438Y-33601195D01*
X42332048Y-33601187D01*
X42355468Y-33601424D01*
G37*
G36*
X44735620Y-33601097D02*
G01*
X44757881Y-33601406D01*
X44773464Y-33602153D01*
X44783957Y-33603535D01*
X44790949Y-33605746D01*
X44796029Y-33608980D01*
X44800786Y-33613431D01*
X44807944Y-33622889D01*
X44813546Y-33641742D01*
X44810840Y-33661350D01*
X44799868Y-33678631D01*
X44786553Y-33691947D01*
X44699592Y-33691947D01*
X44698209Y-33691947D01*
X44666981Y-33691894D01*
X44644164Y-33691604D01*
X44628130Y-33690875D01*
X44617251Y-33689508D01*
X44609899Y-33687301D01*
X44604447Y-33684052D01*
X44599266Y-33679561D01*
X44590859Y-33668668D01*
X44585413Y-33649832D01*
X44587876Y-33630301D01*
X44598299Y-33613431D01*
X44599076Y-33612657D01*
X44603779Y-33608406D01*
X44609051Y-33605343D01*
X44616480Y-33603273D01*
X44627654Y-33602001D01*
X44644164Y-33601334D01*
X44667597Y-33601077D01*
X44699543Y-33601034D01*
X44705092Y-33601034D01*
X44735620Y-33601097D01*
G37*
G36*
X43395334Y-34088456D02*
G01*
X43409436Y-34102798D01*
X43412580Y-34108658D01*
X43415435Y-34116969D01*
X43417319Y-34128155D01*
X43418418Y-34144020D01*
X43418915Y-34166373D01*
X43418991Y-34197017D01*
X43418898Y-34214508D01*
X43418225Y-34244151D01*
X43416603Y-34265988D01*
X43413670Y-34281561D01*
X43409063Y-34292414D01*
X43402420Y-34300091D01*
X43393379Y-34306135D01*
X43384447Y-34310293D01*
X43367635Y-34312368D01*
X43349211Y-34305986D01*
X43345698Y-34304041D01*
X43337340Y-34297521D01*
X43331304Y-34288452D01*
X43327233Y-34275326D01*
X43324768Y-34256635D01*
X43323551Y-34230872D01*
X43323225Y-34196529D01*
X43323281Y-34181051D01*
X43324012Y-34150081D01*
X43325904Y-34127125D01*
X43329349Y-34110717D01*
X43334744Y-34099393D01*
X43342482Y-34091688D01*
X43352958Y-34086139D01*
X43355995Y-34084982D01*
X43376758Y-34082292D01*
X43395334Y-34088456D01*
G37*
G36*
X44705092Y-32565640D02*
G01*
X44735620Y-32565703D01*
X44757881Y-32566011D01*
X44773464Y-32566759D01*
X44783957Y-32568140D01*
X44790949Y-32570351D01*
X44796029Y-32573585D01*
X44800786Y-32578036D01*
X44809138Y-32589431D01*
X44813943Y-32608267D01*
X44810067Y-32627206D01*
X44797644Y-32643476D01*
X44792628Y-32647544D01*
X44786658Y-32651285D01*
X44779320Y-32653813D01*
X44768866Y-32655367D01*
X44753551Y-32656183D01*
X44731627Y-32656499D01*
X44701349Y-32656552D01*
X44695876Y-32656546D01*
X44659819Y-32655982D01*
X44632509Y-32654168D01*
X44612772Y-32650626D01*
X44599433Y-32644876D01*
X44591318Y-32636441D01*
X44587253Y-32624843D01*
X44586062Y-32609603D01*
X44588475Y-32592871D01*
X44598299Y-32578036D01*
X44599076Y-32577262D01*
X44603779Y-32573011D01*
X44609051Y-32569948D01*
X44616480Y-32567878D01*
X44627654Y-32566607D01*
X44644164Y-32565940D01*
X44667597Y-32565682D01*
X44699543Y-32565639D01*
X44705092Y-32565640D01*
G37*
G36*
X43906175Y-31688846D02*
G01*
X43907785Y-31689552D01*
X43920664Y-31697473D01*
X43928904Y-31706260D01*
X43929705Y-31708460D01*
X43931632Y-31720881D01*
X43933099Y-31741624D01*
X43934033Y-31769390D01*
X43934361Y-31802880D01*
X43934361Y-31804297D01*
X43934310Y-31835387D01*
X43934023Y-31858057D01*
X43933299Y-31873923D01*
X43931934Y-31884603D01*
X43929725Y-31891715D01*
X43926469Y-31896875D01*
X43921964Y-31901701D01*
X43910569Y-31910053D01*
X43891733Y-31914857D01*
X43872794Y-31910981D01*
X43856524Y-31898559D01*
X43851965Y-31892887D01*
X43848420Y-31886940D01*
X43846027Y-31879443D01*
X43844559Y-31868684D01*
X43843791Y-31852953D01*
X43843496Y-31830541D01*
X43843448Y-31799738D01*
X43843481Y-31789192D01*
X43844021Y-31758198D01*
X43845160Y-31733115D01*
X43846815Y-31715337D01*
X43848905Y-31706260D01*
X43849480Y-31705292D01*
X43858536Y-31696407D01*
X43871633Y-31688846D01*
X43881379Y-31685289D01*
X43892678Y-31684459D01*
X43906175Y-31688846D01*
G37*
G36*
X43648589Y-31688846D02*
G01*
X43650199Y-31689552D01*
X43663078Y-31697473D01*
X43671318Y-31706260D01*
X43671730Y-31707188D01*
X43673842Y-31718005D01*
X43675392Y-31736338D01*
X43676383Y-31759988D01*
X43676822Y-31786757D01*
X43676713Y-31814447D01*
X43676061Y-31840858D01*
X43674872Y-31863793D01*
X43673149Y-31881053D01*
X43670899Y-31890439D01*
X43665840Y-31898193D01*
X43657010Y-31907624D01*
X43648812Y-31911886D01*
X43631291Y-31914181D01*
X43612988Y-31910639D01*
X43598259Y-31901701D01*
X43598056Y-31901498D01*
X43593604Y-31896689D01*
X43590393Y-31891483D01*
X43588221Y-31884261D01*
X43586884Y-31873408D01*
X43586181Y-31857305D01*
X43585908Y-31834334D01*
X43585862Y-31802880D01*
X43585907Y-31790111D01*
X43586463Y-31758553D01*
X43587600Y-31733193D01*
X43589243Y-31715328D01*
X43591319Y-31706260D01*
X43591894Y-31705292D01*
X43600950Y-31696407D01*
X43614047Y-31688846D01*
X43623793Y-31685289D01*
X43635092Y-31684459D01*
X43648589Y-31688846D01*
G37*
G36*
X43915421Y-32794125D02*
G01*
X43930867Y-32795103D01*
X43968459Y-32800165D01*
X43999601Y-32809324D01*
X44026659Y-32823434D01*
X44052001Y-32843346D01*
X44076951Y-32871265D01*
X44097996Y-32908799D01*
X44110658Y-32951683D01*
X44113871Y-32972791D01*
X44115815Y-33022119D01*
X44109770Y-33067870D01*
X44096163Y-33109219D01*
X44075420Y-33145344D01*
X44047968Y-33175420D01*
X44014233Y-33198625D01*
X43974644Y-33214134D01*
X43973390Y-33214461D01*
X43953757Y-33218103D01*
X43929409Y-33220768D01*
X43905319Y-33221899D01*
X43863651Y-33222231D01*
X43863651Y-33196977D01*
X43863651Y-33171724D01*
X43893707Y-33171724D01*
X43932932Y-33169235D01*
X43966518Y-33160896D01*
X43993936Y-33146000D01*
X44016462Y-33123844D01*
X44035375Y-33093723D01*
X44036766Y-33090991D01*
X44044390Y-33075196D01*
X44049171Y-33062176D01*
X44051767Y-33048711D01*
X44052841Y-33031584D01*
X44053052Y-33007576D01*
X44053050Y-33003515D01*
X44052754Y-32980713D01*
X44051499Y-32964322D01*
X44048624Y-32951123D01*
X44043470Y-32937898D01*
X44035375Y-32921429D01*
X44017283Y-32892359D01*
X43994926Y-32869897D01*
X43967730Y-32854723D01*
X43934416Y-32846134D01*
X43893707Y-32843428D01*
X43863651Y-32843428D01*
X43863651Y-32817512D01*
X43863651Y-32791597D01*
X43915421Y-32794125D01*
G37*
G36*
X43238626Y-32794057D02*
G01*
X43256016Y-32795113D01*
X43292815Y-32800149D01*
X43323432Y-32809389D01*
X43350342Y-32823735D01*
X43376017Y-32844087D01*
X43387217Y-32855226D01*
X43412206Y-32889659D01*
X43429014Y-32929873D01*
X43437577Y-32975674D01*
X43437827Y-33026864D01*
X43437744Y-33027976D01*
X43431303Y-33073544D01*
X43419073Y-33111897D01*
X43400430Y-33144478D01*
X43374750Y-33172729D01*
X43370904Y-33176149D01*
X43348749Y-33193085D01*
X43325562Y-33205027D01*
X43296809Y-33214400D01*
X43295456Y-33214752D01*
X43276327Y-33218249D01*
X43252400Y-33220809D01*
X43228525Y-33221899D01*
X43186856Y-33222231D01*
X43186856Y-33196977D01*
X43186856Y-33171724D01*
X43216912Y-33171724D01*
X43256128Y-33169236D01*
X43289717Y-33160899D01*
X43317137Y-33146004D01*
X43339665Y-33123848D01*
X43358580Y-33093728D01*
X43359964Y-33091011D01*
X43367592Y-33075213D01*
X43372374Y-33062191D01*
X43374972Y-33048728D01*
X43376046Y-33031603D01*
X43376258Y-33007597D01*
X43376255Y-33003579D01*
X43375960Y-32980766D01*
X43374705Y-32964366D01*
X43371831Y-32951159D01*
X43366676Y-32937926D01*
X43358580Y-32921446D01*
X43340474Y-32892347D01*
X43318122Y-32869889D01*
X43290930Y-32854719D01*
X43257619Y-32846134D01*
X43216912Y-32843428D01*
X43186856Y-32843428D01*
X43186856Y-32817602D01*
X43186856Y-32791775D01*
X43238626Y-32794057D01*
G37*
G36*
X43657600Y-32788232D02*
G01*
X43694720Y-32794292D01*
X43725807Y-32808216D01*
X43751320Y-32830189D01*
X43755615Y-32835100D01*
X43763539Y-32844643D01*
X43769905Y-32853841D01*
X43774897Y-32863855D01*
X43778700Y-32875846D01*
X43781495Y-32890974D01*
X43783468Y-32910400D01*
X43784802Y-32935284D01*
X43785681Y-32966788D01*
X43786288Y-33006071D01*
X43786808Y-33054295D01*
X43788508Y-33222231D01*
X43760683Y-33222231D01*
X43732858Y-33222231D01*
X43731332Y-33061871D01*
X43729807Y-32901511D01*
X43717220Y-32879524D01*
X43706259Y-32864477D01*
X43684924Y-32847975D01*
X43659452Y-32839553D01*
X43631547Y-32839669D01*
X43602912Y-32848782D01*
X43601396Y-32849541D01*
X43581893Y-32864847D01*
X43568464Y-32886048D01*
X43561454Y-32910859D01*
X43561211Y-32936990D01*
X43568081Y-32962155D01*
X43582410Y-32984065D01*
X43594110Y-32994717D01*
X43610896Y-33004074D01*
X43632572Y-33010031D01*
X43661687Y-33013538D01*
X43702028Y-33016649D01*
X43702028Y-33041154D01*
X43702028Y-33065659D01*
X43669447Y-33065659D01*
X43642956Y-33064540D01*
X43601098Y-33057132D01*
X43566039Y-33042942D01*
X43538157Y-33022146D01*
X43517830Y-32994919D01*
X43510248Y-32979651D01*
X43505518Y-32965374D01*
X43503307Y-32949090D01*
X43502720Y-32926765D01*
X43503650Y-32903965D01*
X43509818Y-32872477D01*
X43522531Y-32845917D01*
X43542685Y-32821934D01*
X43551244Y-32814400D01*
X43576764Y-32799336D01*
X43607904Y-32790667D01*
X43646108Y-32787920D01*
X43657600Y-32788232D01*
G37*
G36*
X42983918Y-32788325D02*
G01*
X43020423Y-32795240D01*
X43051730Y-32810660D01*
X43078368Y-32834814D01*
X43085205Y-32843145D01*
X43092398Y-32853479D01*
X43098128Y-32864670D01*
X43102558Y-32877873D01*
X43105854Y-32894244D01*
X43108181Y-32914937D01*
X43109704Y-32941109D01*
X43110587Y-32973915D01*
X43110996Y-33014510D01*
X43111096Y-33064050D01*
X43111096Y-33222231D01*
X43083513Y-33222231D01*
X43055930Y-33222231D01*
X43054471Y-33055919D01*
X43054271Y-33033545D01*
X43053848Y-32992381D01*
X43053376Y-32959700D01*
X43052783Y-32934397D01*
X43051996Y-32915368D01*
X43050942Y-32901507D01*
X43049547Y-32891712D01*
X43047741Y-32884876D01*
X43045449Y-32879897D01*
X43042599Y-32875669D01*
X43028964Y-32860290D01*
X43007170Y-32845988D01*
X42980742Y-32839611D01*
X42962512Y-32838983D01*
X42935301Y-32843736D01*
X42914764Y-32855777D01*
X42901230Y-32874871D01*
X42895029Y-32900783D01*
X42895715Y-32924622D01*
X42903410Y-32945093D01*
X42918832Y-32959943D01*
X42942448Y-32969606D01*
X42974727Y-32974515D01*
X43012607Y-32977272D01*
X43012607Y-33000000D01*
X43012607Y-33022728D01*
X42967151Y-33025664D01*
X42950110Y-33027132D01*
X42920058Y-33032612D01*
X42898348Y-33041879D01*
X42884025Y-33055696D01*
X42876131Y-33074821D01*
X42873713Y-33100016D01*
X42874326Y-33110971D01*
X42881349Y-33135427D01*
X42895705Y-33153721D01*
X42916757Y-33164892D01*
X42920948Y-33165948D01*
X42937982Y-33168577D01*
X42960086Y-33170491D01*
X42983565Y-33171336D01*
X43030284Y-33171724D01*
X43030284Y-33197473D01*
X43030284Y-33223222D01*
X42963363Y-33221454D01*
X42956283Y-33221258D01*
X42929512Y-33220226D01*
X42910023Y-33218704D01*
X42895502Y-33216344D01*
X42883637Y-33212799D01*
X42872117Y-33207720D01*
X42851245Y-33193659D01*
X42832067Y-33170469D01*
X42819714Y-33141767D01*
X42814814Y-33109099D01*
X42817993Y-33074015D01*
X42818533Y-33071518D01*
X42828966Y-33042794D01*
X42846459Y-33020581D01*
X42872266Y-33003246D01*
X42894790Y-32991800D01*
X42876944Y-32979572D01*
X42874565Y-32977894D01*
X42854231Y-32957610D01*
X42842296Y-32932118D01*
X42838469Y-32900823D01*
X42842555Y-32867306D01*
X42855034Y-32838202D01*
X42875870Y-32814744D01*
X42889566Y-32804899D01*
X42911263Y-32794946D01*
X42937384Y-32789516D01*
X42970533Y-32787870D01*
X42983918Y-32788325D01*
G37*
G36*
X45938919Y-33161132D02*
G01*
X45923756Y-33315890D01*
X45898807Y-33469045D01*
X45864134Y-33620222D01*
X45819796Y-33769045D01*
X45765854Y-33915137D01*
X45702369Y-34058123D01*
X45640243Y-34178116D01*
X45561590Y-34310114D01*
X45473891Y-34438301D01*
X45376813Y-34563193D01*
X45363719Y-34578618D01*
X45337647Y-34607800D01*
X45306626Y-34641150D01*
X45272111Y-34677203D01*
X45235561Y-34714492D01*
X45198434Y-34751555D01*
X45162186Y-34786925D01*
X45128275Y-34819138D01*
X45098159Y-34846730D01*
X45073295Y-34868236D01*
X44981269Y-34941037D01*
X44863152Y-35025701D01*
X44743461Y-35102062D01*
X44726899Y-35111709D01*
X44692263Y-35130825D01*
X44651697Y-35152218D01*
X44607304Y-35174853D01*
X44561187Y-35197694D01*
X44515450Y-35219705D01*
X44472196Y-35239851D01*
X44433529Y-35257097D01*
X44401551Y-35270405D01*
X44381332Y-35278264D01*
X44232017Y-35330194D01*
X44080326Y-35372341D01*
X43926539Y-35404645D01*
X43770934Y-35427046D01*
X43613788Y-35439485D01*
X43563108Y-35441298D01*
X43415775Y-35440300D01*
X43266985Y-35430273D01*
X43118555Y-35411428D01*
X42972302Y-35383977D01*
X42830044Y-35348133D01*
X42754818Y-35325283D01*
X42609032Y-35273243D01*
X42467783Y-35212477D01*
X42331385Y-35143323D01*
X42200150Y-35066119D01*
X42074390Y-34981203D01*
X41954420Y-34888914D01*
X41840551Y-34789590D01*
X41733096Y-34683569D01*
X41632369Y-34571190D01*
X41538681Y-34452791D01*
X41452347Y-34328710D01*
X41373678Y-34199285D01*
X41302987Y-34064856D01*
X41240587Y-33925759D01*
X41186792Y-33782334D01*
X41141913Y-33634919D01*
X41106264Y-33483851D01*
X41092266Y-33409434D01*
X41077216Y-33309611D01*
X41066856Y-33210298D01*
X41060865Y-33108194D01*
X41058919Y-33000000D01*
X41058920Y-32996315D01*
X41059397Y-32980278D01*
X41153821Y-32980278D01*
X41153996Y-33039408D01*
X41155031Y-33097079D01*
X41156925Y-33151148D01*
X41159677Y-33199472D01*
X41163288Y-33239908D01*
X41165179Y-33256212D01*
X41188634Y-33412905D01*
X41221179Y-33565204D01*
X41262849Y-33713192D01*
X41313680Y-33856951D01*
X41373706Y-33996565D01*
X41442962Y-34132114D01*
X41521485Y-34263684D01*
X41609309Y-34391355D01*
X41706469Y-34515212D01*
X41730600Y-34543084D01*
X41763240Y-34578787D01*
X41800082Y-34617500D01*
X41839340Y-34657437D01*
X41879226Y-34696809D01*
X41917954Y-34733828D01*
X41953737Y-34766707D01*
X41984788Y-34793658D01*
X41995821Y-34802794D01*
X42120631Y-34899262D01*
X42249556Y-34986540D01*
X42382479Y-35064577D01*
X42519286Y-35133325D01*
X42659862Y-35192735D01*
X42804094Y-35242758D01*
X42951864Y-35283344D01*
X43103060Y-35314446D01*
X43257566Y-35336015D01*
X43271701Y-35337383D01*
X43308098Y-35340030D01*
X43351188Y-35342263D01*
X43398875Y-35344047D01*
X43449063Y-35345345D01*
X43499655Y-35346118D01*
X43548556Y-35346330D01*
X43593670Y-35345944D01*
X43632899Y-35344922D01*
X43664148Y-35343227D01*
X43664973Y-35343163D01*
X43821719Y-35326222D01*
X43974804Y-35299881D01*
X44124356Y-35264107D01*
X44270500Y-35218864D01*
X44413363Y-35164118D01*
X44553072Y-35099833D01*
X44592432Y-35079651D01*
X44719920Y-35007171D01*
X44843750Y-34925890D01*
X44963006Y-34836569D01*
X45076773Y-34739971D01*
X45184137Y-34636859D01*
X45284183Y-34527995D01*
X45375995Y-34414141D01*
X45390536Y-34394627D01*
X45478641Y-34266906D01*
X45557484Y-34135188D01*
X45627082Y-33999430D01*
X45687452Y-33859592D01*
X45738609Y-33715630D01*
X45780571Y-33567504D01*
X45813355Y-33415173D01*
X45836976Y-33258593D01*
X45837169Y-33256958D01*
X45840319Y-33222614D01*
X45842832Y-33180265D01*
X45844710Y-33131722D01*
X45845952Y-33078791D01*
X45846559Y-33023282D01*
X45846531Y-32967004D01*
X45845868Y-32911764D01*
X45844572Y-32859371D01*
X45842641Y-32811635D01*
X45840077Y-32770362D01*
X45836880Y-32737363D01*
X45828275Y-32673274D01*
X45810102Y-32563276D01*
X45788070Y-32458718D01*
X45761576Y-32356874D01*
X45730017Y-32255021D01*
X45721324Y-32229456D01*
X45666382Y-32086038D01*
X45602675Y-31947392D01*
X45530484Y-31813841D01*
X45450091Y-31685710D01*
X45361777Y-31563322D01*
X45265826Y-31447000D01*
X45162518Y-31337069D01*
X45052135Y-31233853D01*
X44934960Y-31137674D01*
X44811274Y-31048856D01*
X44681359Y-30967724D01*
X44545496Y-30894601D01*
X44432968Y-30842077D01*
X44293414Y-30786399D01*
X44152010Y-30740384D01*
X44008350Y-30703946D01*
X43862026Y-30676999D01*
X43712633Y-30659455D01*
X43559764Y-30651230D01*
X43403012Y-30652237D01*
X43308349Y-30657555D01*
X43158437Y-30674130D01*
X43010058Y-30700528D01*
X42863676Y-30736596D01*
X42719752Y-30782181D01*
X42578748Y-30837131D01*
X42441128Y-30901294D01*
X42307354Y-30974516D01*
X42177887Y-31056645D01*
X42154501Y-31072789D01*
X42039194Y-31159266D01*
X41928007Y-31254101D01*
X41822058Y-31356165D01*
X41722462Y-31464330D01*
X41630336Y-31577468D01*
X41546797Y-31694450D01*
X41508580Y-31753670D01*
X41431675Y-31885731D01*
X41364138Y-32021092D01*
X41305861Y-32160053D01*
X41256735Y-32302914D01*
X41216652Y-32449977D01*
X41185503Y-32601542D01*
X41163181Y-32757909D01*
X41161726Y-32772032D01*
X41158458Y-32815566D01*
X41156051Y-32866214D01*
X41154506Y-32921832D01*
X41153821Y-32980278D01*
X41059397Y-32980278D01*
X41063518Y-32841833D01*
X41077099Y-32691355D01*
X41099836Y-32543961D01*
X41131900Y-32398729D01*
X41173462Y-32254741D01*
X41224693Y-32111076D01*
X41237324Y-32079378D01*
X41299843Y-31938721D01*
X41370768Y-31803083D01*
X41449715Y-31672767D01*
X41536298Y-31548075D01*
X41630134Y-31429307D01*
X41730837Y-31316766D01*
X41838023Y-31210754D01*
X41951307Y-31111572D01*
X42070304Y-31019522D01*
X42194631Y-30934905D01*
X42323901Y-30858024D01*
X42457731Y-30789180D01*
X42595735Y-30728674D01*
X42737529Y-30676809D01*
X42882729Y-30633887D01*
X43030949Y-30600208D01*
X43181806Y-30576075D01*
X43288875Y-30564748D01*
X43447468Y-30556261D01*
X43605026Y-30557789D01*
X43761438Y-30569331D01*
X43916596Y-30590884D01*
X43989680Y-30604572D01*
X44141249Y-30640389D01*
X44289310Y-30685648D01*
X44433966Y-30740392D01*
X44575321Y-30804661D01*
X44713477Y-30878495D01*
X44848539Y-30961937D01*
X44932426Y-31019953D01*
X45054713Y-31114461D01*
X45170317Y-31216119D01*
X45278969Y-31324498D01*
X45380401Y-31439170D01*
X45474345Y-31559704D01*
X45560533Y-31685672D01*
X45638697Y-31816645D01*
X45708568Y-31952193D01*
X45769878Y-32091886D01*
X45822360Y-32235297D01*
X45865745Y-32381995D01*
X45899765Y-32531552D01*
X45924151Y-32683537D01*
X45925090Y-32691000D01*
X45939647Y-32848311D01*
X45944237Y-33005147D01*
X45943619Y-33023282D01*
X45938919Y-33161132D01*
G37*
G36*
X44519772Y-32554820D02*
G01*
X44520016Y-32625538D01*
X44520209Y-32699469D01*
X44520353Y-32775948D01*
X44520448Y-32854310D01*
X44520493Y-32933888D01*
X44520489Y-33014017D01*
X44520437Y-33094031D01*
X44520335Y-33173264D01*
X44520185Y-33251051D01*
X44519987Y-33326725D01*
X44519741Y-33399621D01*
X44519446Y-33469074D01*
X44519104Y-33534417D01*
X44518713Y-33594985D01*
X44518276Y-33650112D01*
X44517791Y-33699132D01*
X44517258Y-33741380D01*
X44516679Y-33776189D01*
X44516053Y-33802894D01*
X44515380Y-33820830D01*
X44514661Y-33829330D01*
X44506812Y-33857798D01*
X44487253Y-33900333D01*
X44460026Y-33937905D01*
X44426201Y-33969147D01*
X44386847Y-33992691D01*
X44384376Y-33993822D01*
X44365490Y-34001972D01*
X44349066Y-34008294D01*
X44338417Y-34011501D01*
X44333955Y-34011712D01*
X44319744Y-34011971D01*
X44296414Y-34012228D01*
X44264503Y-34012483D01*
X44224552Y-34012731D01*
X44177102Y-34012973D01*
X44122693Y-34013206D01*
X44061865Y-34013427D01*
X43995158Y-34013636D01*
X43923112Y-34013829D01*
X43846268Y-34014006D01*
X43765165Y-34014163D01*
X43680345Y-34014300D01*
X43592348Y-34014414D01*
X43501713Y-34014504D01*
X43465019Y-34014534D01*
X43361357Y-34014615D01*
X43267165Y-34014677D01*
X43181969Y-34014714D01*
X43105296Y-34014722D01*
X43036673Y-34014696D01*
X42975625Y-34014631D01*
X42921678Y-34014521D01*
X42874360Y-34014363D01*
X42833197Y-34014152D01*
X42797714Y-34013881D01*
X42767439Y-34013547D01*
X42741898Y-34013144D01*
X42720616Y-34012668D01*
X42703121Y-34012114D01*
X42688939Y-34011476D01*
X42677596Y-34010750D01*
X42668619Y-34009930D01*
X42661533Y-34009013D01*
X42655865Y-34007992D01*
X42651142Y-34006864D01*
X42646890Y-34005623D01*
X42609277Y-33990107D01*
X42570065Y-33964366D01*
X42536816Y-33931463D01*
X42510681Y-33892571D01*
X42492816Y-33848864D01*
X42492149Y-33846294D01*
X42491161Y-33841086D01*
X42490266Y-33834109D01*
X42489457Y-33824902D01*
X42488731Y-33813000D01*
X42488083Y-33797942D01*
X42487510Y-33779264D01*
X42487006Y-33756504D01*
X42486567Y-33729197D01*
X42486189Y-33696882D01*
X42485868Y-33659095D01*
X42485599Y-33615374D01*
X42485378Y-33565255D01*
X42485201Y-33508275D01*
X42485063Y-33443972D01*
X42484960Y-33371882D01*
X42484887Y-33291543D01*
X42484840Y-33202491D01*
X42484815Y-33104264D01*
X42484808Y-32996399D01*
X42484808Y-32990914D01*
X42484810Y-32884553D01*
X42484818Y-32787797D01*
X42484838Y-32700171D01*
X42484877Y-32621203D01*
X42484931Y-32559887D01*
X42576216Y-32559887D01*
X42576266Y-32632584D01*
X42576378Y-32713517D01*
X42576535Y-32803151D01*
X42576718Y-32901954D01*
X42576908Y-33010391D01*
X42578246Y-33820740D01*
X42593915Y-33848519D01*
X42615574Y-33877982D01*
X42644241Y-33901448D01*
X42677875Y-33916574D01*
X42681733Y-33917505D01*
X42687649Y-33918446D01*
X42695746Y-33919295D01*
X42706491Y-33920058D01*
X42720350Y-33920739D01*
X42737788Y-33921341D01*
X42759272Y-33921869D01*
X42785267Y-33922327D01*
X42816238Y-33922719D01*
X42852653Y-33923050D01*
X42894976Y-33923323D01*
X42943674Y-33923543D01*
X42999213Y-33923713D01*
X43062057Y-33923839D01*
X43132674Y-33923924D01*
X43211529Y-33923972D01*
X43299087Y-33923988D01*
X43395816Y-33923975D01*
X43502179Y-33923938D01*
X43512236Y-33923934D01*
X43618457Y-33923886D01*
X43715088Y-33923829D01*
X43802599Y-33923752D01*
X43881460Y-33923644D01*
X43952140Y-33923495D01*
X44015109Y-33923293D01*
X44070836Y-33923028D01*
X44119792Y-33922688D01*
X44162444Y-33922262D01*
X44199265Y-33921739D01*
X44230721Y-33921109D01*
X44257285Y-33920360D01*
X44279424Y-33919482D01*
X44297609Y-33918463D01*
X44312308Y-33917292D01*
X44323993Y-33915959D01*
X44333132Y-33914452D01*
X44340194Y-33912761D01*
X44345651Y-33910874D01*
X44349970Y-33908780D01*
X44353622Y-33906469D01*
X44357076Y-33903929D01*
X44370642Y-33892940D01*
X44394405Y-33869232D01*
X44410832Y-33845993D01*
X44421754Y-33825790D01*
X44423077Y-33007798D01*
X44423148Y-32965457D01*
X44423339Y-32860383D01*
X44423521Y-32764772D01*
X44423674Y-32678158D01*
X44423776Y-32600078D01*
X44423809Y-32530067D01*
X44423751Y-32467663D01*
X44423583Y-32412400D01*
X44423284Y-32363815D01*
X44422834Y-32321443D01*
X44422213Y-32284822D01*
X44421400Y-32253486D01*
X44420376Y-32226972D01*
X44419121Y-32204815D01*
X44417613Y-32186552D01*
X44415833Y-32171720D01*
X44413761Y-32159853D01*
X44411376Y-32150487D01*
X44408658Y-32143160D01*
X44405588Y-32137406D01*
X44402144Y-32132762D01*
X44398306Y-32128763D01*
X44394055Y-32124947D01*
X44389370Y-32120848D01*
X44384231Y-32116003D01*
X44382615Y-32114354D01*
X44378031Y-32109336D01*
X44374053Y-32104769D01*
X44370217Y-32100633D01*
X44366057Y-32096906D01*
X44361108Y-32093567D01*
X44354904Y-32090595D01*
X44346979Y-32087970D01*
X44336868Y-32085668D01*
X44324105Y-32083671D01*
X44308225Y-32081956D01*
X44288762Y-32080502D01*
X44265250Y-32079288D01*
X44237224Y-32078294D01*
X44204218Y-32077498D01*
X44165766Y-32076878D01*
X44121404Y-32076414D01*
X44070665Y-32076084D01*
X44013084Y-32075868D01*
X43948195Y-32075744D01*
X43875533Y-32075692D01*
X43794631Y-32075689D01*
X43705025Y-32075715D01*
X43606249Y-32075749D01*
X43497838Y-32075770D01*
X42684311Y-32075819D01*
X42659058Y-32087632D01*
X42648188Y-32093659D01*
X42629063Y-32107383D01*
X42612593Y-32122549D01*
X42612257Y-32122913D01*
X42607540Y-32127774D01*
X42603242Y-32132007D01*
X42599346Y-32136078D01*
X42595831Y-32140453D01*
X42592680Y-32145600D01*
X42589874Y-32151985D01*
X42587393Y-32160074D01*
X42585220Y-32170334D01*
X42583334Y-32183231D01*
X42581719Y-32199232D01*
X42580354Y-32218804D01*
X42579221Y-32242412D01*
X42578302Y-32270523D01*
X42577577Y-32303605D01*
X42577028Y-32342123D01*
X42576637Y-32386543D01*
X42576383Y-32437333D01*
X42576249Y-32494959D01*
X42576216Y-32559887D01*
X42484931Y-32559887D01*
X42484939Y-32550418D01*
X42485031Y-32487344D01*
X42485159Y-32431505D01*
X42485329Y-32382430D01*
X42485545Y-32339644D01*
X42485815Y-32302673D01*
X42486143Y-32271044D01*
X42486536Y-32244283D01*
X42487000Y-32221917D01*
X42487539Y-32203472D01*
X42488161Y-32188474D01*
X42488871Y-32176450D01*
X42489674Y-32166926D01*
X42490576Y-32159428D01*
X42491584Y-32153484D01*
X42492703Y-32148618D01*
X42493939Y-32144358D01*
X42495297Y-32140230D01*
X42499683Y-32128459D01*
X42514946Y-32097071D01*
X42533835Y-32067758D01*
X42553915Y-32044493D01*
X42563576Y-32036425D01*
X42579896Y-32024649D01*
X42597658Y-32013224D01*
X42602570Y-32010218D01*
X42608993Y-32006212D01*
X42615070Y-32002573D01*
X42621275Y-31999282D01*
X42628084Y-31996323D01*
X42635971Y-31993678D01*
X42645411Y-31991329D01*
X42656880Y-31989260D01*
X42670852Y-31987451D01*
X42687801Y-31985886D01*
X42708204Y-31984548D01*
X42732534Y-31983418D01*
X42761267Y-31982480D01*
X42794877Y-31981715D01*
X42833840Y-31981106D01*
X42878631Y-31980636D01*
X42929723Y-31980287D01*
X42987593Y-31980041D01*
X43052714Y-31979881D01*
X43125563Y-31979790D01*
X43206613Y-31979749D01*
X43296340Y-31979742D01*
X43395219Y-31979751D01*
X43503724Y-31979757D01*
X43576932Y-31979754D01*
X43678098Y-31979742D01*
X43769963Y-31979738D01*
X43853006Y-31979758D01*
X43927708Y-31979819D01*
X43994547Y-31979937D01*
X44054003Y-31980129D01*
X44106556Y-31980412D01*
X44152684Y-31980802D01*
X44192868Y-31981317D01*
X44227586Y-31981972D01*
X44257319Y-31982784D01*
X44282546Y-31983770D01*
X44303745Y-31984946D01*
X44321398Y-31986330D01*
X44335982Y-31987937D01*
X44347977Y-31989785D01*
X44357864Y-31991890D01*
X44366121Y-31994269D01*
X44373228Y-31996938D01*
X44379664Y-31999914D01*
X44385908Y-32003214D01*
X44392441Y-32006854D01*
X44399742Y-32010851D01*
X44422221Y-32025019D01*
X44454594Y-32054064D01*
X44481853Y-32089474D01*
X44502513Y-32129185D01*
X44515087Y-32171133D01*
X44515315Y-32172833D01*
X44516014Y-32184667D01*
X44516662Y-32205707D01*
X44517258Y-32235287D01*
X44517803Y-32272741D01*
X44518298Y-32317403D01*
X44518742Y-32368608D01*
X44519136Y-32425690D01*
X44519479Y-32487982D01*
X44519663Y-32530067D01*
X44519772Y-32554820D01*
G37*
%TD*%
M02*
