%TF.GenerationSoftware,KiCad,Pcbnew,8.0.8*%
%TF.CreationDate,2025-03-21T07:08:09+05:30*%
%TF.ProjectId,project2_MCU_datalogger,70726f6a-6563-4743-925f-4d43555f6461,1.0*%
%TF.SameCoordinates,Original*%
%TF.FileFunction,Paste,Top*%
%TF.FilePolarity,Positive*%
%FSLAX46Y46*%
G04 Gerber Fmt 4.6, Leading zero omitted, Abs format (unit mm)*
G04 Created by KiCad (PCBNEW 8.0.8) date 2025-03-21 07:08:09*
%MOMM*%
%LPD*%
G01*
G04 APERTURE LIST*
G04 Aperture macros list*
%AMRoundRect*
0 Rectangle with rounded corners*
0 $1 Rounding radius*
0 $2 $3 $4 $5 $6 $7 $8 $9 X,Y pos of 4 corners*
0 Add a 4 corners polygon primitive as box body*
4,1,4,$2,$3,$4,$5,$6,$7,$8,$9,$2,$3,0*
0 Add four circle primitives for the rounded corners*
1,1,$1+$1,$2,$3*
1,1,$1+$1,$4,$5*
1,1,$1+$1,$6,$7*
1,1,$1+$1,$8,$9*
0 Add four rect primitives between the rounded corners*
20,1,$1+$1,$2,$3,$4,$5,0*
20,1,$1+$1,$4,$5,$6,$7,0*
20,1,$1+$1,$6,$7,$8,$9,0*
20,1,$1+$1,$8,$9,$2,$3,0*%
G04 Aperture macros list end*
%ADD10RoundRect,0.250000X0.250000X0.475000X-0.250000X0.475000X-0.250000X-0.475000X0.250000X-0.475000X0*%
%ADD11RoundRect,0.250000X0.450000X-0.262500X0.450000X0.262500X-0.450000X0.262500X-0.450000X-0.262500X0*%
%ADD12RoundRect,0.250000X0.475000X-0.250000X0.475000X0.250000X-0.475000X0.250000X-0.475000X-0.250000X0*%
%ADD13RoundRect,0.250000X-0.262500X-0.450000X0.262500X-0.450000X0.262500X0.450000X-0.262500X0.450000X0*%
%ADD14RoundRect,0.073750X-0.911250X-0.221250X0.911250X-0.221250X0.911250X0.221250X-0.911250X0.221250X0*%
%ADD15RoundRect,0.243750X0.456250X-0.243750X0.456250X0.243750X-0.456250X0.243750X-0.456250X-0.243750X0*%
%ADD16RoundRect,0.150000X-0.650000X-0.150000X0.650000X-0.150000X0.650000X0.150000X-0.650000X0.150000X0*%
%ADD17RoundRect,0.068750X0.666250X0.206250X-0.666250X0.206250X-0.666250X-0.206250X0.666250X-0.206250X0*%
%ADD18RoundRect,0.068750X0.206250X0.666250X-0.206250X0.666250X-0.206250X-0.666250X0.206250X-0.666250X0*%
%ADD19R,2.400000X3.500000*%
%ADD20RoundRect,0.250000X-0.475000X0.250000X-0.475000X-0.250000X0.475000X-0.250000X0.475000X0.250000X0*%
G04 APERTURE END LIST*
D10*
%TO.C,C4*%
X54450000Y-26500000D03*
X52550000Y-26500000D03*
%TD*%
D11*
%TO.C,R1*%
X45000000Y-31162500D03*
X45000000Y-29337500D03*
%TD*%
D12*
%TO.C,C5*%
X54500000Y-41950000D03*
X54500000Y-40050000D03*
%TD*%
D13*
%TO.C,R6*%
X56337500Y-26500000D03*
X58162500Y-26500000D03*
%TD*%
D14*
%TO.C,U3*%
X53025000Y-20595000D03*
X53025000Y-21865000D03*
X53025000Y-23135000D03*
X53025000Y-24405000D03*
X57975000Y-24405000D03*
X57975000Y-23135000D03*
X57975000Y-21865000D03*
X57975000Y-20595000D03*
%TD*%
D15*
%TO.C,D2*%
X49250000Y-35937500D03*
X49250000Y-34062500D03*
%TD*%
D16*
%TO.C,U2*%
X32150000Y-27845000D03*
X32150000Y-29115000D03*
X32150000Y-30385000D03*
X32150000Y-31655000D03*
X39350000Y-31655000D03*
X39350000Y-30385000D03*
X39350000Y-29115000D03*
X39350000Y-27845000D03*
%TD*%
D11*
%TO.C,R7*%
X52000000Y-39412500D03*
X52000000Y-37587500D03*
%TD*%
D13*
%TO.C,R4*%
X42587500Y-42750000D03*
X44412500Y-42750000D03*
%TD*%
D17*
%TO.C,U4*%
X40565000Y-41135000D03*
X40565000Y-40335000D03*
X40565000Y-39535000D03*
X40565000Y-38735000D03*
X40565000Y-37935000D03*
X40565000Y-37135000D03*
X40565000Y-36335000D03*
X40565000Y-35535000D03*
D18*
X39195000Y-34165000D03*
X38395000Y-34165000D03*
X37595000Y-34165000D03*
X36795000Y-34165000D03*
X35995000Y-34165000D03*
X35195000Y-34165000D03*
X34395000Y-34165000D03*
X33595000Y-34165000D03*
D17*
X32225000Y-35535000D03*
X32225000Y-36335000D03*
X32225000Y-37135000D03*
X32225000Y-37935000D03*
X32225000Y-38735000D03*
X32225000Y-39535000D03*
X32225000Y-40335000D03*
X32225000Y-41135000D03*
D18*
X33595000Y-42505000D03*
X34395000Y-42505000D03*
X35195000Y-42505000D03*
X35995000Y-42505000D03*
X36795000Y-42505000D03*
X37595000Y-42505000D03*
X38395000Y-42505000D03*
X39195000Y-42505000D03*
%TD*%
D19*
%TO.C,Y1*%
X49250000Y-27100000D03*
X49250000Y-21900000D03*
%TD*%
D20*
%TO.C,C3*%
X49250000Y-37550000D03*
X49250000Y-39450000D03*
%TD*%
D11*
%TO.C,R3*%
X52000000Y-43162500D03*
X52000000Y-41337500D03*
%TD*%
D10*
%TO.C,C1*%
X28950000Y-40750000D03*
X27050000Y-40750000D03*
%TD*%
D15*
%TO.C,D1*%
X52000000Y-35937500D03*
X52000000Y-34062500D03*
%TD*%
D19*
%TO.C,Y2*%
X43750000Y-34400000D03*
X43750000Y-39600000D03*
%TD*%
D11*
%TO.C,R2*%
X47500000Y-32362500D03*
X47500000Y-30537500D03*
%TD*%
D12*
%TO.C,C2*%
X49250000Y-43200000D03*
X49250000Y-41300000D03*
%TD*%
D16*
%TO.C,U1*%
X32150000Y-20595000D03*
X32150000Y-21865000D03*
X32150000Y-23135000D03*
X32150000Y-24405000D03*
X39350000Y-24405000D03*
X39350000Y-23135000D03*
X39350000Y-21865000D03*
X39350000Y-20595000D03*
%TD*%
D13*
%TO.C,R5*%
X50337500Y-32000000D03*
X52162500Y-32000000D03*
%TD*%
M02*
