%TF.GenerationSoftware,KiCad,Pcbnew,8.0.8*%
%TF.CreationDate,2025-03-21T07:08:08+05:30*%
%TF.ProjectId,project2_MCU_datalogger,70726f6a-6563-4743-925f-4d43555f6461,1.0*%
%TF.SameCoordinates,Original*%
%TF.FileFunction,Copper,L2,Bot*%
%TF.FilePolarity,Positive*%
%FSLAX46Y46*%
G04 Gerber Fmt 4.6, Leading zero omitted, Abs format (unit mm)*
G04 Created by KiCad (PCBNEW 8.0.8) date 2025-03-21 07:08:08*
%MOMM*%
%LPD*%
G01*
G04 APERTURE LIST*
%TA.AperFunction,ComponentPad*%
%ADD10R,1.700000X1.700000*%
%TD*%
%TA.AperFunction,ComponentPad*%
%ADD11O,1.700000X1.700000*%
%TD*%
%TA.AperFunction,ViaPad*%
%ADD12C,0.700000*%
%TD*%
%TA.AperFunction,ViaPad*%
%ADD13C,0.600000*%
%TD*%
%TA.AperFunction,Conductor*%
%ADD14C,0.250000*%
%TD*%
%TA.AperFunction,Conductor*%
%ADD15C,0.200000*%
%TD*%
G04 APERTURE END LIST*
D10*
%TO.P,J3,1,Pin_1*%
%TO.N,/D2*%
X34300000Y-46000000D03*
D11*
%TO.P,J3,2,Pin_2*%
%TO.N,/D3*%
X36840000Y-46000000D03*
%TO.P,J3,3,Pin_3*%
%TO.N,/D4*%
X39380000Y-46000000D03*
%TO.P,J3,4,Pin_4*%
%TO.N,/D5*%
X41920000Y-46000000D03*
%TO.P,J3,5,Pin_5*%
%TO.N,/D6*%
X44460000Y-46000000D03*
%TO.P,J3,6,Pin_6*%
%TO.N,/D7*%
X47000000Y-46000000D03*
%TO.P,J3,7,Pin_7*%
%TO.N,/D8*%
X49540000Y-46000000D03*
%TO.P,J3,8,Pin_8*%
%TO.N,GND*%
X52080000Y-46000000D03*
%TO.P,J3,9,Pin_9*%
%TO.N,/VCC*%
X54620000Y-46000000D03*
%TD*%
D10*
%TO.P,J4,1,Pin_1*%
%TO.N,/MISO*%
X45025000Y-26525000D03*
D11*
%TO.P,J4,2,Pin_2*%
%TO.N,/VCC*%
X42485000Y-26525000D03*
%TO.P,J4,3,Pin_3*%
%TO.N,/SCK*%
X45025000Y-23985000D03*
%TO.P,J4,4,Pin_4*%
%TO.N,/MOSI*%
X42485000Y-23985000D03*
%TO.P,J4,5,Pin_5*%
%TO.N,/RESET*%
X45025000Y-21445000D03*
%TO.P,J4,6,Pin_6*%
%TO.N,GND*%
X42485000Y-21445000D03*
%TD*%
D10*
%TO.P,BT1,1,+*%
%TO.N,/VCC*%
X57500000Y-42025000D03*
D11*
%TO.P,BT1,2,-*%
%TO.N,GND*%
X57500000Y-39485000D03*
%TD*%
D10*
%TO.P,J1,1,Pin_1*%
%TO.N,GND*%
X61000000Y-28200000D03*
D11*
%TO.P,J1,2,Pin_2*%
%TO.N,/VCC*%
X61000000Y-30740000D03*
%TO.P,J1,3,Pin_3*%
%TO.N,/SDA*%
X61000000Y-33280000D03*
%TO.P,J1,4,Pin_4*%
%TO.N,/SCK*%
X61000000Y-35820000D03*
%TD*%
D10*
%TO.P,J2,1,Pin_1*%
%TO.N,GND*%
X27750000Y-29960000D03*
D11*
%TO.P,J2,2,Pin_2*%
%TO.N,/VCC*%
X27750000Y-32500000D03*
%TO.P,J2,3,Pin_3*%
%TO.N,/RX*%
X27750000Y-35040000D03*
%TO.P,J2,4,Pin_4*%
%TO.N,/TX*%
X27750000Y-37580000D03*
%TD*%
D12*
%TO.N,GND*%
X30300000Y-38800000D03*
X34083328Y-37716672D03*
X30300000Y-32200000D03*
X58166000Y-29464000D03*
X41800000Y-34500000D03*
X41745468Y-37770419D03*
X30500000Y-24400000D03*
%TO.N,/VCC*%
X55300000Y-25600000D03*
X34000000Y-29840000D03*
X54800000Y-22300000D03*
X42300000Y-41895437D03*
X31025000Y-36322000D03*
X42719975Y-29819975D03*
X33985200Y-27845000D03*
X39400000Y-26500000D03*
X39308000Y-38800000D03*
D13*
%TO.N,/SCK*%
X36900000Y-29790000D03*
X36600000Y-26200000D03*
%TO.N,Net-(D2-K)*%
X50600000Y-36000000D03*
X50952298Y-43339798D03*
%TO.N,/SDA*%
X34900000Y-38400000D03*
X40700000Y-23900000D03*
X37600000Y-31655000D03*
X40800000Y-21190000D03*
X59400000Y-26200000D03*
%TO.N,/TX*%
X37800000Y-41270000D03*
X27400000Y-39400000D03*
%TO.N,/D8*%
X36795000Y-35661600D03*
%TO.N,/D6*%
X37338000Y-39624000D03*
%TO.N,/D5*%
X38862000Y-40894000D03*
%TO.N,/D7*%
X37500000Y-36922000D03*
%TO.N,/MISO*%
X41800000Y-30800000D03*
X35556317Y-31656317D03*
%TO.N,/RESET*%
X46200000Y-42400000D03*
X36640735Y-40959265D03*
X40894000Y-47150000D03*
%TO.N,Net-(U3-SQW{slash}~INT)*%
X53340000Y-31750000D03*
X56200000Y-22400000D03*
%TD*%
D14*
%TO.N,GND*%
X30500000Y-24400000D02*
X30516000Y-24384000D01*
X57250000Y-32104000D02*
X57250000Y-39235000D01*
X57250000Y-39235000D02*
X57500000Y-39485000D01*
X58166000Y-31188000D02*
X57250000Y-32104000D01*
X41745468Y-37770419D02*
X41800000Y-37715887D01*
X58166000Y-29464000D02*
X58166000Y-31188000D01*
X30300000Y-38800000D02*
X30300000Y-32200000D01*
X41800000Y-37715887D02*
X41800000Y-34500000D01*
%TO.N,/VCC*%
X42485000Y-29585000D02*
X42485000Y-26525000D01*
X42300000Y-41895437D02*
X39308000Y-38903437D01*
X39400000Y-26500000D02*
X39425000Y-26525000D01*
X35454595Y-38800000D02*
X35179595Y-39075000D01*
X54800000Y-22300000D02*
X54800000Y-25100000D01*
X42719975Y-29819975D02*
X42485000Y-29585000D01*
X33778000Y-39075000D02*
X31025000Y-36322000D01*
X39308000Y-38800000D02*
X35454595Y-38800000D01*
X39308000Y-38903437D02*
X39308000Y-38800000D01*
X35179595Y-39075000D02*
X33778000Y-39075000D01*
X54800000Y-25100000D02*
X55300000Y-25600000D01*
X39425000Y-26525000D02*
X42485000Y-26525000D01*
X30410000Y-29840000D02*
X34000000Y-29840000D01*
X34000000Y-27859800D02*
X33985200Y-27845000D01*
X34000000Y-29840000D02*
X34000000Y-27859800D01*
X27750000Y-32500000D02*
X30410000Y-29840000D01*
D15*
%TO.N,/SCK*%
X36600000Y-26200000D02*
X36600000Y-29490000D01*
X36600000Y-29490000D02*
X36900000Y-29790000D01*
%TO.N,Net-(D2-K)*%
X50952298Y-36352298D02*
X50600000Y-36000000D01*
X50952298Y-43339798D02*
X50952298Y-36352298D01*
%TO.N,/SDA*%
X59400000Y-31680000D02*
X61000000Y-33280000D01*
X34900000Y-38400000D02*
X34900000Y-34355000D01*
X40800000Y-21190000D02*
X40700000Y-21290000D01*
X34900000Y-34355000D02*
X37600000Y-31655000D01*
X40700000Y-21290000D02*
X40700000Y-23900000D01*
X59400000Y-26200000D02*
X59400000Y-31680000D01*
%TO.N,/TX*%
X36154000Y-39624000D02*
X37800000Y-41270000D01*
X27400000Y-39400000D02*
X27624000Y-39624000D01*
X27624000Y-39624000D02*
X36154000Y-39624000D01*
%TO.N,/D8*%
X47750800Y-44855200D02*
X48155200Y-44855200D01*
X48155200Y-44855200D02*
X48400000Y-45100000D01*
X38557200Y-35661600D02*
X47750800Y-44855200D01*
X48640000Y-45100000D02*
X49540000Y-46000000D01*
X36795000Y-35661600D02*
X38557200Y-35661600D01*
X48400000Y-45100000D02*
X48640000Y-45100000D01*
%TO.N,/D6*%
X43500000Y-45040000D02*
X44460000Y-46000000D01*
X43500000Y-44621471D02*
X43500000Y-45040000D01*
X37338000Y-39624000D02*
X38440529Y-39624000D01*
X38440529Y-39624000D02*
X43500000Y-44683471D01*
X43500000Y-44683471D02*
X43500000Y-44621471D01*
X37338000Y-39624000D02*
X38502529Y-39624000D01*
%TO.N,/D5*%
X38862000Y-40894000D02*
X38924000Y-40894000D01*
X38924000Y-40894000D02*
X41920000Y-43890000D01*
X41920000Y-43890000D02*
X41920000Y-46000000D01*
%TO.N,/D7*%
X45900000Y-44900000D02*
X47000000Y-46000000D01*
X39251914Y-36922000D02*
X45900000Y-43570086D01*
X37500000Y-36922000D02*
X39251914Y-36922000D01*
X45900000Y-43570086D02*
X45900000Y-44900000D01*
%TO.N,/MISO*%
X41800000Y-30800000D02*
X36412634Y-30800000D01*
X36412634Y-30800000D02*
X35556317Y-31656317D01*
%TO.N,/RESET*%
X46200000Y-42400000D02*
X46200000Y-22620000D01*
X46200000Y-22620000D02*
X45025000Y-21445000D01*
X40894000Y-47150000D02*
X40770000Y-47026000D01*
X40770000Y-47026000D02*
X40770000Y-45088530D01*
X40770000Y-45088530D02*
X36576000Y-40894530D01*
%TO.N,Net-(U3-SQW{slash}~INT)*%
X56200000Y-28890000D02*
X53340000Y-31750000D01*
X56200000Y-22400000D02*
X56200000Y-28890000D01*
%TD*%
%TA.AperFunction,Conductor*%
%TO.N,GND*%
G36*
X63943039Y-17519685D02*
G01*
X63988794Y-17572489D01*
X64000000Y-17624000D01*
X64000000Y-47325500D01*
X63980315Y-47392539D01*
X63927511Y-47438294D01*
X63876000Y-47449500D01*
X55266421Y-47449500D01*
X55199382Y-47429815D01*
X55153627Y-47377011D01*
X55143683Y-47307853D01*
X55172708Y-47244297D01*
X55214016Y-47213118D01*
X55297830Y-47174035D01*
X55491401Y-47038495D01*
X55658495Y-46871401D01*
X55794035Y-46677830D01*
X55893903Y-46463663D01*
X55955063Y-46235408D01*
X55975659Y-46000000D01*
X55955063Y-45764592D01*
X55893903Y-45536337D01*
X55805915Y-45347648D01*
X60449500Y-45347648D01*
X60449500Y-45552351D01*
X60481522Y-45754534D01*
X60544781Y-45949223D01*
X60637715Y-46131613D01*
X60758028Y-46297213D01*
X60902786Y-46441971D01*
X61057749Y-46554556D01*
X61068390Y-46562287D01*
X61184607Y-46621503D01*
X61250776Y-46655218D01*
X61250778Y-46655218D01*
X61250781Y-46655220D01*
X61320380Y-46677834D01*
X61445465Y-46718477D01*
X61546557Y-46734488D01*
X61647648Y-46750500D01*
X61647649Y-46750500D01*
X61852351Y-46750500D01*
X61852352Y-46750500D01*
X62054534Y-46718477D01*
X62249219Y-46655220D01*
X62431610Y-46562287D01*
X62524590Y-46494732D01*
X62597213Y-46441971D01*
X62597215Y-46441968D01*
X62597219Y-46441966D01*
X62741966Y-46297219D01*
X62741968Y-46297215D01*
X62741971Y-46297213D01*
X62817690Y-46192993D01*
X62862287Y-46131610D01*
X62955220Y-45949219D01*
X63018477Y-45754534D01*
X63050500Y-45552352D01*
X63050500Y-45347648D01*
X63018477Y-45145466D01*
X63007580Y-45111930D01*
X62983910Y-45039081D01*
X62955220Y-44950781D01*
X62955218Y-44950778D01*
X62955218Y-44950776D01*
X62921503Y-44884607D01*
X62862287Y-44768390D01*
X62854556Y-44757749D01*
X62741971Y-44602786D01*
X62597213Y-44458028D01*
X62431613Y-44337715D01*
X62431612Y-44337714D01*
X62431610Y-44337713D01*
X62349002Y-44295622D01*
X62249223Y-44244781D01*
X62054534Y-44181522D01*
X61879995Y-44153878D01*
X61852352Y-44149500D01*
X61647648Y-44149500D01*
X61623329Y-44153351D01*
X61445465Y-44181522D01*
X61250776Y-44244781D01*
X61068386Y-44337715D01*
X60902786Y-44458028D01*
X60758028Y-44602786D01*
X60637715Y-44768386D01*
X60544781Y-44950776D01*
X60481522Y-45145465D01*
X60449500Y-45347648D01*
X55805915Y-45347648D01*
X55794035Y-45322171D01*
X55788731Y-45314595D01*
X55658494Y-45128597D01*
X55491402Y-44961506D01*
X55491395Y-44961501D01*
X55490592Y-44960939D01*
X55414518Y-44907671D01*
X55297834Y-44825967D01*
X55297830Y-44825965D01*
X55242965Y-44800381D01*
X55083663Y-44726097D01*
X55083659Y-44726096D01*
X55083655Y-44726094D01*
X54855413Y-44664938D01*
X54855403Y-44664936D01*
X54620001Y-44644341D01*
X54619999Y-44644341D01*
X54384596Y-44664936D01*
X54384586Y-44664938D01*
X54156344Y-44726094D01*
X54156335Y-44726098D01*
X53942171Y-44825964D01*
X53942169Y-44825965D01*
X53748597Y-44961505D01*
X53581508Y-45128594D01*
X53451269Y-45314595D01*
X53396692Y-45358219D01*
X53327193Y-45365412D01*
X53264839Y-45333890D01*
X53248119Y-45314594D01*
X53118113Y-45128926D01*
X53118108Y-45128920D01*
X52951082Y-44961894D01*
X52757578Y-44826399D01*
X52543492Y-44726570D01*
X52543486Y-44726567D01*
X52330000Y-44669364D01*
X52330000Y-45566988D01*
X52272993Y-45534075D01*
X52145826Y-45500000D01*
X52014174Y-45500000D01*
X51887007Y-45534075D01*
X51830000Y-45566988D01*
X51830000Y-44669364D01*
X51829999Y-44669364D01*
X51616513Y-44726567D01*
X51616507Y-44726570D01*
X51402422Y-44826399D01*
X51402420Y-44826400D01*
X51208926Y-44961886D01*
X51208920Y-44961891D01*
X51041891Y-45128920D01*
X51041890Y-45128922D01*
X50911880Y-45314595D01*
X50857303Y-45358219D01*
X50787804Y-45365412D01*
X50725450Y-45333890D01*
X50708730Y-45314594D01*
X50578494Y-45128597D01*
X50411402Y-44961506D01*
X50411395Y-44961501D01*
X50410592Y-44960939D01*
X50334518Y-44907671D01*
X50217834Y-44825967D01*
X50217830Y-44825965D01*
X50162965Y-44800381D01*
X50003663Y-44726097D01*
X50003659Y-44726096D01*
X50003655Y-44726094D01*
X49775413Y-44664938D01*
X49775403Y-44664936D01*
X49540001Y-44644341D01*
X49539999Y-44644341D01*
X49304596Y-44664936D01*
X49304586Y-44664938D01*
X49176243Y-44699327D01*
X49106393Y-44697664D01*
X49056469Y-44667233D01*
X49008717Y-44619481D01*
X49008712Y-44619477D01*
X48875233Y-44542414D01*
X48871785Y-44540423D01*
X48871784Y-44540422D01*
X48871783Y-44540422D01*
X48815881Y-44525443D01*
X48719057Y-44499499D01*
X48719054Y-44499499D01*
X48700097Y-44499499D01*
X48633058Y-44479814D01*
X48612416Y-44463180D01*
X48523917Y-44374681D01*
X48523916Y-44374680D01*
X48420122Y-44314755D01*
X48420121Y-44314754D01*
X48386983Y-44295622D01*
X48331081Y-44280643D01*
X48234257Y-44254699D01*
X48076143Y-44254699D01*
X48068547Y-44254699D01*
X48068531Y-44254700D01*
X48050897Y-44254700D01*
X47983858Y-44235015D01*
X47963216Y-44218381D01*
X46826137Y-43081302D01*
X46792652Y-43019979D01*
X46797636Y-42950287D01*
X46826145Y-42905932D01*
X46829816Y-42902262D01*
X46925789Y-42749522D01*
X46985368Y-42579255D01*
X46990809Y-42530963D01*
X47005565Y-42400003D01*
X47005565Y-42399996D01*
X46985369Y-42220750D01*
X46985368Y-42220745D01*
X46925788Y-42050476D01*
X46892645Y-41997730D01*
X46829816Y-41897738D01*
X46829814Y-41897736D01*
X46829813Y-41897734D01*
X46827550Y-41894896D01*
X46826659Y-41892715D01*
X46826111Y-41891842D01*
X46826264Y-41891745D01*
X46801144Y-41830209D01*
X46800500Y-41817587D01*
X46800500Y-35999996D01*
X49794435Y-35999996D01*
X49794435Y-36000003D01*
X49814630Y-36179249D01*
X49814631Y-36179254D01*
X49874211Y-36349523D01*
X49931907Y-36441345D01*
X49970184Y-36502262D01*
X50097738Y-36629816D01*
X50154504Y-36665484D01*
X50250477Y-36725789D01*
X50268751Y-36732183D01*
X50325528Y-36772904D01*
X50351276Y-36837856D01*
X50351798Y-36849225D01*
X50351798Y-42757385D01*
X50332113Y-42824424D01*
X50324748Y-42834694D01*
X50322484Y-42837532D01*
X50226509Y-42990274D01*
X50166929Y-43160543D01*
X50166928Y-43160548D01*
X50146733Y-43339794D01*
X50146733Y-43339801D01*
X50166928Y-43519047D01*
X50166929Y-43519052D01*
X50226509Y-43689321D01*
X50285059Y-43782502D01*
X50322482Y-43842060D01*
X50450036Y-43969614D01*
X50490089Y-43994781D01*
X50596898Y-44061894D01*
X50602776Y-44065587D01*
X50773043Y-44125166D01*
X50773048Y-44125167D01*
X50952294Y-44145363D01*
X50952298Y-44145363D01*
X50952302Y-44145363D01*
X51131547Y-44125167D01*
X51131550Y-44125166D01*
X51131553Y-44125166D01*
X51301820Y-44065587D01*
X51454560Y-43969614D01*
X51582114Y-43842060D01*
X51678087Y-43689320D01*
X51737666Y-43519053D01*
X51737667Y-43519047D01*
X51757863Y-43339801D01*
X51757863Y-43339794D01*
X51737667Y-43160548D01*
X51737666Y-43160543D01*
X51709938Y-43081302D01*
X51678087Y-42990276D01*
X51673190Y-42982483D01*
X51622784Y-42902262D01*
X51582114Y-42837536D01*
X51582112Y-42837534D01*
X51582111Y-42837532D01*
X51579848Y-42834694D01*
X51578957Y-42832513D01*
X51578409Y-42831640D01*
X51578562Y-42831543D01*
X51553442Y-42770007D01*
X51552798Y-42757385D01*
X51552798Y-41127135D01*
X56149500Y-41127135D01*
X56149500Y-42922870D01*
X56149501Y-42922876D01*
X56155908Y-42982483D01*
X56206202Y-43117328D01*
X56206206Y-43117335D01*
X56292452Y-43232544D01*
X56292455Y-43232547D01*
X56407664Y-43318793D01*
X56407671Y-43318797D01*
X56542517Y-43369091D01*
X56542516Y-43369091D01*
X56549444Y-43369835D01*
X56602127Y-43375500D01*
X58397872Y-43375499D01*
X58457483Y-43369091D01*
X58592331Y-43318796D01*
X58707546Y-43232546D01*
X58793796Y-43117331D01*
X58844091Y-42982483D01*
X58850500Y-42922873D01*
X58850499Y-41127128D01*
X58844091Y-41067517D01*
X58835669Y-41044937D01*
X58793797Y-40932671D01*
X58793793Y-40932664D01*
X58707547Y-40817455D01*
X58707544Y-40817452D01*
X58592335Y-40731206D01*
X58592328Y-40731202D01*
X58460401Y-40681997D01*
X58404467Y-40640126D01*
X58380050Y-40574662D01*
X58394902Y-40506389D01*
X58416053Y-40478133D01*
X58538108Y-40356078D01*
X58673600Y-40162578D01*
X58773429Y-39948492D01*
X58773432Y-39948486D01*
X58830636Y-39735000D01*
X57933012Y-39735000D01*
X57965925Y-39677993D01*
X58000000Y-39550826D01*
X58000000Y-39419174D01*
X57965925Y-39292007D01*
X57933012Y-39235000D01*
X58830636Y-39235000D01*
X58830635Y-39234999D01*
X58773432Y-39021513D01*
X58773429Y-39021507D01*
X58673600Y-38807422D01*
X58673599Y-38807420D01*
X58538113Y-38613926D01*
X58538108Y-38613920D01*
X58371082Y-38446894D01*
X58177578Y-38311399D01*
X57963492Y-38211570D01*
X57963486Y-38211567D01*
X57750000Y-38154364D01*
X57750000Y-39051988D01*
X57692993Y-39019075D01*
X57565826Y-38985000D01*
X57434174Y-38985000D01*
X57307007Y-39019075D01*
X57250000Y-39051988D01*
X57250000Y-38154364D01*
X57249999Y-38154364D01*
X57036513Y-38211567D01*
X57036507Y-38211570D01*
X56822422Y-38311399D01*
X56822420Y-38311400D01*
X56628926Y-38446886D01*
X56628920Y-38446891D01*
X56461891Y-38613920D01*
X56461886Y-38613926D01*
X56326400Y-38807420D01*
X56326399Y-38807422D01*
X56226570Y-39021507D01*
X56226567Y-39021513D01*
X56169364Y-39234999D01*
X56169364Y-39235000D01*
X57066988Y-39235000D01*
X57034075Y-39292007D01*
X57000000Y-39419174D01*
X57000000Y-39550826D01*
X57034075Y-39677993D01*
X57066988Y-39735000D01*
X56169364Y-39735000D01*
X56226567Y-39948486D01*
X56226570Y-39948492D01*
X56326399Y-40162578D01*
X56461894Y-40356082D01*
X56583946Y-40478134D01*
X56617431Y-40539457D01*
X56612447Y-40609149D01*
X56570575Y-40665082D01*
X56539598Y-40681997D01*
X56407671Y-40731202D01*
X56407664Y-40731206D01*
X56292455Y-40817452D01*
X56292452Y-40817455D01*
X56206206Y-40932664D01*
X56206202Y-40932671D01*
X56155908Y-41067517D01*
X56149501Y-41127116D01*
X56149501Y-41127123D01*
X56149500Y-41127135D01*
X51552798Y-41127135D01*
X51552798Y-36441358D01*
X51552799Y-36441345D01*
X51552799Y-36273242D01*
X51550055Y-36263002D01*
X51511875Y-36120514D01*
X51487616Y-36078495D01*
X51432822Y-35983588D01*
X51432816Y-35983580D01*
X51430700Y-35981464D01*
X51429485Y-35979239D01*
X51427872Y-35977137D01*
X51428199Y-35976885D01*
X51397215Y-35920141D01*
X51395163Y-35907684D01*
X51385368Y-35820745D01*
X51325789Y-35650478D01*
X51229816Y-35497738D01*
X51102262Y-35370184D01*
X51080225Y-35356337D01*
X50949523Y-35274211D01*
X50779254Y-35214631D01*
X50779249Y-35214630D01*
X50600004Y-35194435D01*
X50599996Y-35194435D01*
X50420750Y-35214630D01*
X50420745Y-35214631D01*
X50250476Y-35274211D01*
X50097737Y-35370184D01*
X49970184Y-35497737D01*
X49874211Y-35650476D01*
X49814631Y-35820745D01*
X49814630Y-35820750D01*
X49794435Y-35999996D01*
X46800500Y-35999996D01*
X46800500Y-31749996D01*
X52534435Y-31749996D01*
X52534435Y-31750003D01*
X52554630Y-31929249D01*
X52554631Y-31929254D01*
X52614211Y-32099523D01*
X52656978Y-32167585D01*
X52710184Y-32252262D01*
X52837738Y-32379816D01*
X52839287Y-32380789D01*
X52972352Y-32464400D01*
X52990478Y-32475789D01*
X53093246Y-32511749D01*
X53160745Y-32535368D01*
X53160750Y-32535369D01*
X53339996Y-32555565D01*
X53340000Y-32555565D01*
X53340004Y-32555565D01*
X53519249Y-32535369D01*
X53519252Y-32535368D01*
X53519255Y-32535368D01*
X53689522Y-32475789D01*
X53842262Y-32379816D01*
X53969816Y-32252262D01*
X54065789Y-32099522D01*
X54125368Y-31929255D01*
X54135161Y-31842329D01*
X54162226Y-31777918D01*
X54170690Y-31768543D01*
X56680520Y-29258716D01*
X56759577Y-29121785D01*
X56800501Y-28969057D01*
X56800501Y-28810942D01*
X56800501Y-28803347D01*
X56800500Y-28803329D01*
X56800500Y-26199996D01*
X58594435Y-26199996D01*
X58594435Y-26200003D01*
X58614630Y-26379249D01*
X58614631Y-26379254D01*
X58674211Y-26549523D01*
X58734515Y-26645496D01*
X58754815Y-26677803D01*
X58770185Y-26702263D01*
X58772445Y-26705097D01*
X58773334Y-26707275D01*
X58773889Y-26708158D01*
X58773734Y-26708255D01*
X58798855Y-26769783D01*
X58799500Y-26782412D01*
X58799500Y-31593330D01*
X58799499Y-31593348D01*
X58799499Y-31759054D01*
X58799498Y-31759054D01*
X58840423Y-31911785D01*
X58859562Y-31944933D01*
X58859563Y-31944937D01*
X58919475Y-32048709D01*
X58919481Y-32048717D01*
X59038349Y-32167585D01*
X59038355Y-32167590D01*
X59667233Y-32796468D01*
X59700718Y-32857791D01*
X59699327Y-32916241D01*
X59664939Y-33044583D01*
X59664936Y-33044596D01*
X59644341Y-33279999D01*
X59644341Y-33280000D01*
X59664936Y-33515403D01*
X59664938Y-33515413D01*
X59726094Y-33743655D01*
X59726096Y-33743659D01*
X59726097Y-33743663D01*
X59760294Y-33816998D01*
X59825965Y-33957830D01*
X59825967Y-33957834D01*
X59961501Y-34151395D01*
X59961506Y-34151402D01*
X60128597Y-34318493D01*
X60128603Y-34318498D01*
X60314158Y-34448425D01*
X60357783Y-34503002D01*
X60364977Y-34572500D01*
X60333454Y-34634855D01*
X60314158Y-34651575D01*
X60128597Y-34781505D01*
X59961505Y-34948597D01*
X59825965Y-35142169D01*
X59825964Y-35142171D01*
X59726098Y-35356335D01*
X59726094Y-35356344D01*
X59664938Y-35584586D01*
X59664936Y-35584596D01*
X59644341Y-35819999D01*
X59644341Y-35820000D01*
X59664936Y-36055403D01*
X59664938Y-36055413D01*
X59726094Y-36283655D01*
X59726096Y-36283659D01*
X59726097Y-36283663D01*
X59777947Y-36394855D01*
X59825965Y-36497830D01*
X59825967Y-36497834D01*
X59856547Y-36541506D01*
X59961505Y-36691401D01*
X60128599Y-36858495D01*
X60190972Y-36902169D01*
X60322165Y-36994032D01*
X60322167Y-36994033D01*
X60322170Y-36994035D01*
X60536337Y-37093903D01*
X60536343Y-37093904D01*
X60536344Y-37093905D01*
X60563775Y-37101255D01*
X60764592Y-37155063D01*
X60952918Y-37171539D01*
X60999999Y-37175659D01*
X61000000Y-37175659D01*
X61000001Y-37175659D01*
X61039234Y-37172226D01*
X61235408Y-37155063D01*
X61463663Y-37093903D01*
X61677830Y-36994035D01*
X61871401Y-36858495D01*
X62038495Y-36691401D01*
X62174035Y-36497830D01*
X62273903Y-36283663D01*
X62335063Y-36055408D01*
X62355659Y-35820000D01*
X62335063Y-35584592D01*
X62273903Y-35356337D01*
X62174035Y-35142171D01*
X62160134Y-35122317D01*
X62038494Y-34948597D01*
X61871402Y-34781506D01*
X61871396Y-34781501D01*
X61685842Y-34651575D01*
X61642217Y-34596998D01*
X61635023Y-34527500D01*
X61666546Y-34465145D01*
X61685842Y-34448425D01*
X61809028Y-34362169D01*
X61871401Y-34318495D01*
X62038495Y-34151401D01*
X62174035Y-33957830D01*
X62273903Y-33743663D01*
X62335063Y-33515408D01*
X62355659Y-33280000D01*
X62335063Y-33044592D01*
X62273903Y-32816337D01*
X62174035Y-32602171D01*
X62141402Y-32555565D01*
X62038494Y-32408597D01*
X61871402Y-32241506D01*
X61871396Y-32241501D01*
X61685842Y-32111575D01*
X61642217Y-32056998D01*
X61635023Y-31987500D01*
X61666546Y-31925145D01*
X61685842Y-31908425D01*
X61780231Y-31842333D01*
X61871401Y-31778495D01*
X62038495Y-31611401D01*
X62174035Y-31417830D01*
X62273903Y-31203663D01*
X62335063Y-30975408D01*
X62355659Y-30740000D01*
X62335063Y-30504592D01*
X62285462Y-30319477D01*
X62273905Y-30276344D01*
X62273904Y-30276343D01*
X62273903Y-30276337D01*
X62174035Y-30062171D01*
X62154691Y-30034545D01*
X62038496Y-29868600D01*
X61989871Y-29819975D01*
X61916179Y-29746283D01*
X61882696Y-29684963D01*
X61887680Y-29615271D01*
X61929551Y-29559337D01*
X61960529Y-29542422D01*
X62092086Y-29493354D01*
X62092093Y-29493350D01*
X62207187Y-29407190D01*
X62207190Y-29407187D01*
X62293350Y-29292093D01*
X62293354Y-29292086D01*
X62343596Y-29157379D01*
X62343598Y-29157372D01*
X62349999Y-29097844D01*
X62350000Y-29097827D01*
X62350000Y-28450000D01*
X61433012Y-28450000D01*
X61465925Y-28392993D01*
X61500000Y-28265826D01*
X61500000Y-28134174D01*
X61465925Y-28007007D01*
X61433012Y-27950000D01*
X62350000Y-27950000D01*
X62350000Y-27302172D01*
X62349999Y-27302155D01*
X62343598Y-27242627D01*
X62343596Y-27242620D01*
X62293354Y-27107913D01*
X62293350Y-27107906D01*
X62207190Y-26992812D01*
X62207187Y-26992809D01*
X62092093Y-26906649D01*
X62092086Y-26906645D01*
X61957379Y-26856403D01*
X61957372Y-26856401D01*
X61897844Y-26850000D01*
X61250000Y-26850000D01*
X61250000Y-27766988D01*
X61192993Y-27734075D01*
X61065826Y-27700000D01*
X60934174Y-27700000D01*
X60807007Y-27734075D01*
X60750000Y-27766988D01*
X60750000Y-26850000D01*
X60161347Y-26850000D01*
X60094308Y-26830315D01*
X60048553Y-26777511D01*
X60038609Y-26708353D01*
X60056354Y-26660028D01*
X60125787Y-26549526D01*
X60125788Y-26549523D01*
X60125789Y-26549522D01*
X60185368Y-26379255D01*
X60189722Y-26340612D01*
X60205565Y-26200003D01*
X60205565Y-26199996D01*
X60185369Y-26020750D01*
X60185368Y-26020745D01*
X60159856Y-25947835D01*
X60125789Y-25850478D01*
X60029816Y-25697738D01*
X59902262Y-25570184D01*
X59749523Y-25474211D01*
X59579254Y-25414631D01*
X59579249Y-25414630D01*
X59400004Y-25394435D01*
X59399996Y-25394435D01*
X59220750Y-25414630D01*
X59220745Y-25414631D01*
X59050476Y-25474211D01*
X58897737Y-25570184D01*
X58770184Y-25697737D01*
X58674211Y-25850476D01*
X58614631Y-26020745D01*
X58614630Y-26020750D01*
X58594435Y-26199996D01*
X56800500Y-26199996D01*
X56800500Y-22982412D01*
X56820185Y-22915373D01*
X56827555Y-22905097D01*
X56829810Y-22902267D01*
X56829816Y-22902262D01*
X56925789Y-22749522D01*
X56985368Y-22579255D01*
X56985369Y-22579249D01*
X57005565Y-22400003D01*
X57005565Y-22399996D01*
X56985369Y-22220750D01*
X56985368Y-22220745D01*
X56951106Y-22122830D01*
X56942294Y-22097648D01*
X60949500Y-22097648D01*
X60949500Y-22302351D01*
X60981522Y-22504534D01*
X61044781Y-22699223D01*
X61137715Y-22881613D01*
X61258028Y-23047213D01*
X61402786Y-23191971D01*
X61550319Y-23299158D01*
X61568390Y-23312287D01*
X61642361Y-23349977D01*
X61750776Y-23405218D01*
X61750778Y-23405218D01*
X61750781Y-23405220D01*
X61855137Y-23439127D01*
X61945465Y-23468477D01*
X62046557Y-23484488D01*
X62147648Y-23500500D01*
X62147649Y-23500500D01*
X62352351Y-23500500D01*
X62352352Y-23500500D01*
X62554534Y-23468477D01*
X62749219Y-23405220D01*
X62931610Y-23312287D01*
X63024590Y-23244732D01*
X63097213Y-23191971D01*
X63097215Y-23191968D01*
X63097219Y-23191966D01*
X63241966Y-23047219D01*
X63241968Y-23047215D01*
X63241971Y-23047213D01*
X63315136Y-22946508D01*
X63362287Y-22881610D01*
X63455220Y-22699219D01*
X63518477Y-22504534D01*
X63550500Y-22302352D01*
X63550500Y-22097648D01*
X63518477Y-21895466D01*
X63509295Y-21867208D01*
X63455218Y-21700776D01*
X63421503Y-21634607D01*
X63362287Y-21518390D01*
X63312236Y-21449500D01*
X63241971Y-21352786D01*
X63097213Y-21208028D01*
X62931613Y-21087715D01*
X62931612Y-21087714D01*
X62931610Y-21087713D01*
X62847587Y-21044901D01*
X62749223Y-20994781D01*
X62554534Y-20931522D01*
X62379995Y-20903878D01*
X62352352Y-20899500D01*
X62147648Y-20899500D01*
X62123329Y-20903351D01*
X61945465Y-20931522D01*
X61750776Y-20994781D01*
X61568386Y-21087715D01*
X61402786Y-21208028D01*
X61258028Y-21352786D01*
X61137715Y-21518386D01*
X61044781Y-21700776D01*
X60981522Y-21895465D01*
X60949500Y-22097648D01*
X56942294Y-22097648D01*
X56925789Y-22050478D01*
X56829816Y-21897738D01*
X56702262Y-21770184D01*
X56702260Y-21770183D01*
X56549523Y-21674211D01*
X56379254Y-21614631D01*
X56379249Y-21614630D01*
X56200004Y-21594435D01*
X56199996Y-21594435D01*
X56020750Y-21614630D01*
X56020745Y-21614631D01*
X55850476Y-21674211D01*
X55697739Y-21770183D01*
X55668935Y-21798987D01*
X55607611Y-21832471D01*
X55537920Y-21827485D01*
X55489105Y-21794276D01*
X55372235Y-21664478D01*
X55372232Y-21664476D01*
X55372231Y-21664475D01*
X55372230Y-21664474D01*
X55227593Y-21559388D01*
X55064267Y-21486671D01*
X55064265Y-21486670D01*
X54936594Y-21459533D01*
X54889391Y-21449500D01*
X54710609Y-21449500D01*
X54679954Y-21456015D01*
X54535733Y-21486670D01*
X54535728Y-21486672D01*
X54372408Y-21559387D01*
X54227768Y-21664475D01*
X54108140Y-21797336D01*
X54018750Y-21952164D01*
X54018747Y-21952170D01*
X53963504Y-22122192D01*
X53963503Y-22122194D01*
X53944815Y-22300000D01*
X53963503Y-22477805D01*
X53963504Y-22477807D01*
X54018747Y-22647829D01*
X54018750Y-22647835D01*
X54108141Y-22802665D01*
X54120666Y-22816575D01*
X54142649Y-22840989D01*
X54172879Y-22903980D01*
X54174500Y-22923962D01*
X54174500Y-25161611D01*
X54198535Y-25282444D01*
X54198540Y-25282461D01*
X54245685Y-25396281D01*
X54245687Y-25396285D01*
X54263002Y-25422197D01*
X54263003Y-25422199D01*
X54314141Y-25498732D01*
X54314144Y-25498736D01*
X54405586Y-25590178D01*
X54405608Y-25590198D01*
X54417218Y-25601808D01*
X54450703Y-25663131D01*
X54452857Y-25676524D01*
X54463503Y-25777803D01*
X54463504Y-25777805D01*
X54463504Y-25777807D01*
X54518747Y-25947829D01*
X54518750Y-25947835D01*
X54608141Y-26102665D01*
X54649812Y-26148946D01*
X54727764Y-26235521D01*
X54727767Y-26235523D01*
X54727770Y-26235526D01*
X54872407Y-26340612D01*
X55035733Y-26413329D01*
X55210609Y-26450500D01*
X55210610Y-26450500D01*
X55389389Y-26450500D01*
X55389391Y-26450500D01*
X55449721Y-26437676D01*
X55519385Y-26442991D01*
X55575119Y-26485128D01*
X55599225Y-26550708D01*
X55599500Y-26558966D01*
X55599500Y-28589902D01*
X55579815Y-28656941D01*
X55563181Y-28677583D01*
X53321465Y-30919298D01*
X53260142Y-30952783D01*
X53247668Y-30954837D01*
X53160750Y-30964630D01*
X52990478Y-31024210D01*
X52837737Y-31120184D01*
X52710184Y-31247737D01*
X52614211Y-31400476D01*
X52554631Y-31570745D01*
X52554630Y-31570750D01*
X52534435Y-31749996D01*
X46800500Y-31749996D01*
X46800500Y-22709059D01*
X46800501Y-22709046D01*
X46800501Y-22540945D01*
X46800501Y-22540943D01*
X46759577Y-22388215D01*
X46730639Y-22338095D01*
X46680520Y-22251284D01*
X46568716Y-22139480D01*
X46568715Y-22139479D01*
X46564385Y-22135149D01*
X46564374Y-22135139D01*
X46357766Y-21928531D01*
X46324281Y-21867208D01*
X46325672Y-21808757D01*
X46329552Y-21794276D01*
X46360063Y-21680408D01*
X46380659Y-21445000D01*
X46360063Y-21209592D01*
X46298903Y-20981337D01*
X46199035Y-20767171D01*
X46193731Y-20759595D01*
X46063494Y-20573597D01*
X45896402Y-20406506D01*
X45896395Y-20406501D01*
X45893724Y-20404631D01*
X45857521Y-20379281D01*
X45702834Y-20270967D01*
X45702830Y-20270965D01*
X45702828Y-20270964D01*
X45488663Y-20171097D01*
X45488659Y-20171096D01*
X45488655Y-20171094D01*
X45260413Y-20109938D01*
X45260403Y-20109936D01*
X45025001Y-20089341D01*
X45024999Y-20089341D01*
X44789596Y-20109936D01*
X44789586Y-20109938D01*
X44561344Y-20171094D01*
X44561335Y-20171098D01*
X44347171Y-20270964D01*
X44347169Y-20270965D01*
X44153597Y-20406505D01*
X43986508Y-20573594D01*
X43856269Y-20759595D01*
X43801692Y-20803219D01*
X43732193Y-20810412D01*
X43669839Y-20778890D01*
X43653119Y-20759594D01*
X43523113Y-20573926D01*
X43523108Y-20573920D01*
X43356082Y-20406894D01*
X43162578Y-20271399D01*
X42948492Y-20171570D01*
X42948486Y-20171567D01*
X42735000Y-20114364D01*
X42735000Y-21011988D01*
X42677993Y-20979075D01*
X42550826Y-20945000D01*
X42419174Y-20945000D01*
X42292007Y-20979075D01*
X42235000Y-21011988D01*
X42235000Y-20114364D01*
X42234999Y-20114364D01*
X42021513Y-20171567D01*
X42021507Y-20171570D01*
X41807422Y-20271399D01*
X41807420Y-20271400D01*
X41613926Y-20406886D01*
X41468723Y-20552089D01*
X41407400Y-20585573D01*
X41337708Y-20580589D01*
X41308170Y-20563868D01*
X41308158Y-20563889D01*
X41307717Y-20563612D01*
X41303730Y-20561355D01*
X41302265Y-20560187D01*
X41302262Y-20560184D01*
X41225892Y-20512197D01*
X41149523Y-20464211D01*
X40979254Y-20404631D01*
X40979249Y-20404630D01*
X40800004Y-20384435D01*
X40799996Y-20384435D01*
X40620750Y-20404630D01*
X40620745Y-20404631D01*
X40450476Y-20464211D01*
X40297737Y-20560184D01*
X40170184Y-20687737D01*
X40074211Y-20840476D01*
X40014631Y-21010745D01*
X40014630Y-21010750D01*
X39994435Y-21189996D01*
X39994435Y-21190003D01*
X40014630Y-21369249D01*
X40014631Y-21369254D01*
X40074212Y-21539525D01*
X40080492Y-21549519D01*
X40099500Y-21615493D01*
X40099500Y-23317587D01*
X40079815Y-23384626D01*
X40072450Y-23394896D01*
X40070186Y-23397734D01*
X39974211Y-23550476D01*
X39914631Y-23720745D01*
X39914630Y-23720750D01*
X39894435Y-23899996D01*
X39894435Y-23900003D01*
X39914630Y-24079249D01*
X39914631Y-24079254D01*
X39974211Y-24249523D01*
X40070184Y-24402262D01*
X40197738Y-24529816D01*
X40350478Y-24625789D01*
X40456335Y-24662830D01*
X40520745Y-24685368D01*
X40520750Y-24685369D01*
X40699996Y-24705565D01*
X40700000Y-24705565D01*
X40700004Y-24705565D01*
X40879249Y-24685369D01*
X40879252Y-24685368D01*
X40879255Y-24685368D01*
X41049522Y-24625789D01*
X41119390Y-24581888D01*
X41186626Y-24562888D01*
X41253462Y-24583256D01*
X41297744Y-24634477D01*
X41310965Y-24662830D01*
X41310967Y-24662834D01*
X41340888Y-24705565D01*
X41446501Y-24856396D01*
X41446506Y-24856402D01*
X41613597Y-25023493D01*
X41613603Y-25023498D01*
X41799158Y-25153425D01*
X41842783Y-25208002D01*
X41849977Y-25277500D01*
X41818454Y-25339855D01*
X41799158Y-25356575D01*
X41613597Y-25486505D01*
X41446505Y-25653597D01*
X41311348Y-25846623D01*
X41256771Y-25890248D01*
X41209773Y-25899500D01*
X40058729Y-25899500D01*
X39991690Y-25879815D01*
X39975755Y-25867649D01*
X39972233Y-25864477D01*
X39972230Y-25864474D01*
X39827593Y-25759388D01*
X39664267Y-25686671D01*
X39664265Y-25686670D01*
X39508675Y-25653599D01*
X39489391Y-25649500D01*
X39310609Y-25649500D01*
X39291334Y-25653597D01*
X39135733Y-25686670D01*
X39135728Y-25686672D01*
X38972408Y-25759387D01*
X38827768Y-25864475D01*
X38708140Y-25997336D01*
X38618750Y-26152164D01*
X38618747Y-26152170D01*
X38563504Y-26322192D01*
X38563503Y-26322194D01*
X38544815Y-26500000D01*
X38563503Y-26677805D01*
X38563504Y-26677807D01*
X38618747Y-26847829D01*
X38618750Y-26847835D01*
X38708141Y-27002665D01*
X38734259Y-27031672D01*
X38827764Y-27135521D01*
X38827767Y-27135523D01*
X38827770Y-27135526D01*
X38972407Y-27240612D01*
X39135733Y-27313329D01*
X39310609Y-27350500D01*
X39310610Y-27350500D01*
X39489389Y-27350500D01*
X39489391Y-27350500D01*
X39664267Y-27313329D01*
X39827593Y-27240612D01*
X39919025Y-27174182D01*
X39984831Y-27150702D01*
X39991911Y-27150500D01*
X41209773Y-27150500D01*
X41276812Y-27170185D01*
X41311348Y-27203377D01*
X41414364Y-27350500D01*
X41446505Y-27396401D01*
X41613599Y-27563495D01*
X41806624Y-27698653D01*
X41850248Y-27753228D01*
X41859500Y-27800226D01*
X41859500Y-29523393D01*
X41859500Y-29646607D01*
X41862601Y-29662196D01*
X41862601Y-29662197D01*
X41871214Y-29705499D01*
X41872917Y-29742650D01*
X41864790Y-29819976D01*
X41869288Y-29862779D01*
X41856718Y-29931508D01*
X41808985Y-29982531D01*
X41759851Y-29998958D01*
X41620749Y-30014630D01*
X41620745Y-30014631D01*
X41450476Y-30074211D01*
X41297736Y-30170185D01*
X41294903Y-30172445D01*
X41292724Y-30173334D01*
X41291842Y-30173889D01*
X41291744Y-30173734D01*
X41230217Y-30198855D01*
X41217588Y-30199500D01*
X37779564Y-30199500D01*
X37712525Y-30179815D01*
X37666770Y-30127011D01*
X37656826Y-30057853D01*
X37662522Y-30034545D01*
X37669490Y-30014631D01*
X37685368Y-29969255D01*
X37699122Y-29847187D01*
X37705565Y-29790003D01*
X37705565Y-29789996D01*
X37685369Y-29610750D01*
X37685368Y-29610745D01*
X37667577Y-29559901D01*
X37625789Y-29440478D01*
X37607228Y-29410939D01*
X37571540Y-29354142D01*
X37529816Y-29287738D01*
X37402262Y-29160184D01*
X37402260Y-29160182D01*
X37258527Y-29069868D01*
X37212237Y-29017534D01*
X37200500Y-28964875D01*
X37200500Y-26782412D01*
X37220185Y-26715373D01*
X37227555Y-26705097D01*
X37229810Y-26702267D01*
X37229816Y-26702262D01*
X37325789Y-26549522D01*
X37385368Y-26379255D01*
X37389722Y-26340612D01*
X37405565Y-26200003D01*
X37405565Y-26199996D01*
X37385369Y-26020750D01*
X37385368Y-26020745D01*
X37359856Y-25947835D01*
X37325789Y-25850478D01*
X37229816Y-25697738D01*
X37102262Y-25570184D01*
X36949523Y-25474211D01*
X36779254Y-25414631D01*
X36779249Y-25414630D01*
X36600004Y-25394435D01*
X36599996Y-25394435D01*
X36420750Y-25414630D01*
X36420745Y-25414631D01*
X36250476Y-25474211D01*
X36097737Y-25570184D01*
X35970184Y-25697737D01*
X35874211Y-25850476D01*
X35814631Y-26020745D01*
X35814630Y-26020750D01*
X35794435Y-26199996D01*
X35794435Y-26200003D01*
X35814630Y-26379249D01*
X35814631Y-26379254D01*
X35874211Y-26549523D01*
X35934515Y-26645496D01*
X35954815Y-26677803D01*
X35970185Y-26702263D01*
X35972445Y-26705097D01*
X35973334Y-26707275D01*
X35973889Y-26708158D01*
X35973734Y-26708255D01*
X35998855Y-26769783D01*
X35999500Y-26782412D01*
X35999500Y-29403330D01*
X35999499Y-29403348D01*
X35999499Y-29569054D01*
X35999498Y-29569054D01*
X36034988Y-29701505D01*
X36040423Y-29721785D01*
X36066787Y-29767448D01*
X36066788Y-29767451D01*
X36066789Y-29767451D01*
X36085046Y-29799075D01*
X36100877Y-29847187D01*
X36114630Y-29969249D01*
X36114631Y-29969254D01*
X36114632Y-29969255D01*
X36123443Y-29994435D01*
X36170767Y-30129681D01*
X36174328Y-30199460D01*
X36139599Y-30260087D01*
X36115725Y-30278022D01*
X36043921Y-30319477D01*
X36043916Y-30319481D01*
X35932112Y-30431286D01*
X35537782Y-30825615D01*
X35476459Y-30859100D01*
X35463985Y-30861154D01*
X35377067Y-30870947D01*
X35206795Y-30930527D01*
X35054054Y-31026501D01*
X34926501Y-31154054D01*
X34830528Y-31306793D01*
X34770948Y-31477062D01*
X34770947Y-31477067D01*
X34750752Y-31656313D01*
X34750752Y-31656320D01*
X34770947Y-31835566D01*
X34770948Y-31835571D01*
X34830528Y-32005840D01*
X34893441Y-32105965D01*
X34926501Y-32158579D01*
X35054055Y-32286133D01*
X35206795Y-32382106D01*
X35282502Y-32408597D01*
X35377062Y-32441685D01*
X35377067Y-32441686D01*
X35556313Y-32461882D01*
X35556317Y-32461882D01*
X35556319Y-32461882D01*
X35597322Y-32457261D01*
X35640950Y-32452346D01*
X35709772Y-32464400D01*
X35761151Y-32511749D01*
X35778776Y-32579359D01*
X35757050Y-32645765D01*
X35742515Y-32663247D01*
X34531286Y-33874478D01*
X34419481Y-33986282D01*
X34419479Y-33986285D01*
X34404118Y-34012892D01*
X34388756Y-34039500D01*
X34340423Y-34123215D01*
X34299499Y-34275943D01*
X34299499Y-34275945D01*
X34299499Y-34444046D01*
X34299500Y-34444059D01*
X34299500Y-37817587D01*
X34279815Y-37884626D01*
X34272450Y-37894896D01*
X34270186Y-37897734D01*
X34174211Y-38050476D01*
X34114631Y-38220745D01*
X34114630Y-38220749D01*
X34112444Y-38240157D01*
X34085377Y-38304571D01*
X34027781Y-38344125D01*
X33957944Y-38346262D01*
X33901543Y-38313953D01*
X31907780Y-36320190D01*
X31874295Y-36258867D01*
X31872143Y-36245489D01*
X31861497Y-36144197D01*
X31825530Y-36033503D01*
X31806252Y-35974170D01*
X31806249Y-35974164D01*
X31775059Y-35920141D01*
X31716859Y-35819335D01*
X31670003Y-35767296D01*
X31597235Y-35686478D01*
X31597232Y-35686476D01*
X31597231Y-35686475D01*
X31597230Y-35686474D01*
X31452593Y-35581388D01*
X31289267Y-35508671D01*
X31289265Y-35508670D01*
X31161594Y-35481533D01*
X31114391Y-35471500D01*
X30935609Y-35471500D01*
X30904954Y-35478015D01*
X30760733Y-35508670D01*
X30760728Y-35508672D01*
X30597408Y-35581387D01*
X30452768Y-35686475D01*
X30333140Y-35819336D01*
X30243750Y-35974164D01*
X30243747Y-35974170D01*
X30188504Y-36144192D01*
X30188503Y-36144194D01*
X30169815Y-36322000D01*
X30188503Y-36499805D01*
X30188504Y-36499807D01*
X30243747Y-36669829D01*
X30243750Y-36669835D01*
X30333141Y-36824665D01*
X30374812Y-36870946D01*
X30452764Y-36957521D01*
X30452767Y-36957523D01*
X30452770Y-36957526D01*
X30597407Y-37062612D01*
X30760733Y-37135329D01*
X30935609Y-37172500D01*
X30939548Y-37172500D01*
X30941744Y-37173145D01*
X30942077Y-37173180D01*
X30942070Y-37173240D01*
X31006587Y-37192185D01*
X31027229Y-37208819D01*
X32630229Y-38811819D01*
X32663714Y-38873142D01*
X32658730Y-38942834D01*
X32616858Y-38998767D01*
X32551394Y-39023184D01*
X32542548Y-39023500D01*
X28409288Y-39023500D01*
X28342249Y-39003815D01*
X28296494Y-38951011D01*
X28286550Y-38881853D01*
X28315575Y-38818297D01*
X28356883Y-38787118D01*
X28427830Y-38754035D01*
X28621401Y-38618495D01*
X28788495Y-38451401D01*
X28924035Y-38257830D01*
X29023903Y-38043663D01*
X29085063Y-37815408D01*
X29105659Y-37580000D01*
X29102917Y-37548665D01*
X29085063Y-37344596D01*
X29085063Y-37344592D01*
X29038626Y-37171285D01*
X29023905Y-37116344D01*
X29023904Y-37116343D01*
X29023903Y-37116337D01*
X28924035Y-36902171D01*
X28893452Y-36858493D01*
X28788494Y-36708597D01*
X28621402Y-36541506D01*
X28621396Y-36541501D01*
X28435842Y-36411575D01*
X28392217Y-36356998D01*
X28385023Y-36287500D01*
X28416546Y-36225145D01*
X28435842Y-36208425D01*
X28477502Y-36179254D01*
X28621401Y-36078495D01*
X28788495Y-35911401D01*
X28924035Y-35717830D01*
X29023903Y-35503663D01*
X29085063Y-35275408D01*
X29105659Y-35040000D01*
X29085063Y-34804592D01*
X29023903Y-34576337D01*
X28924035Y-34362171D01*
X28893452Y-34318493D01*
X28788494Y-34168597D01*
X28621402Y-34001506D01*
X28621396Y-34001501D01*
X28435842Y-33871575D01*
X28392217Y-33816998D01*
X28385023Y-33747500D01*
X28416546Y-33685145D01*
X28435842Y-33668425D01*
X28458026Y-33652891D01*
X28621401Y-33538495D01*
X28788495Y-33371401D01*
X28924035Y-33177830D01*
X29023903Y-32963663D01*
X29085063Y-32735408D01*
X29105659Y-32500000D01*
X29085063Y-32264592D01*
X29058143Y-32164125D01*
X29059806Y-32094276D01*
X29090235Y-32044353D01*
X30632771Y-30501819D01*
X30694094Y-30468334D01*
X30720452Y-30465500D01*
X33373679Y-30465500D01*
X33440718Y-30485185D01*
X33446565Y-30489182D01*
X33467781Y-30504596D01*
X33572407Y-30580612D01*
X33735733Y-30653329D01*
X33910609Y-30690500D01*
X33910610Y-30690500D01*
X34089389Y-30690500D01*
X34089391Y-30690500D01*
X34264267Y-30653329D01*
X34427593Y-30580612D01*
X34572230Y-30475526D01*
X34581258Y-30465500D01*
X34616891Y-30425925D01*
X34691859Y-30342665D01*
X34781250Y-30187835D01*
X34836497Y-30017803D01*
X34855185Y-29840000D01*
X34836497Y-29662197D01*
X34781871Y-29494075D01*
X34781252Y-29492170D01*
X34781249Y-29492164D01*
X34769691Y-29472145D01*
X34691859Y-29337335D01*
X34673029Y-29316422D01*
X34657349Y-29299007D01*
X34627120Y-29236015D01*
X34625500Y-29216036D01*
X34625500Y-28452525D01*
X34645185Y-28385486D01*
X34657352Y-28369551D01*
X34677059Y-28347665D01*
X34766450Y-28192835D01*
X34821697Y-28022803D01*
X34840385Y-27845000D01*
X34821697Y-27667197D01*
X34766450Y-27497165D01*
X34677059Y-27342335D01*
X34630203Y-27290296D01*
X34557435Y-27209478D01*
X34557432Y-27209476D01*
X34557431Y-27209475D01*
X34557430Y-27209474D01*
X34412793Y-27104388D01*
X34249467Y-27031671D01*
X34249465Y-27031670D01*
X34112995Y-27002663D01*
X34074591Y-26994500D01*
X33895809Y-26994500D01*
X33865154Y-27001015D01*
X33720933Y-27031670D01*
X33720928Y-27031672D01*
X33557608Y-27104387D01*
X33412968Y-27209475D01*
X33293340Y-27342336D01*
X33203950Y-27497164D01*
X33203947Y-27497170D01*
X33148704Y-27667192D01*
X33148703Y-27667194D01*
X33130015Y-27845000D01*
X33148703Y-28022805D01*
X33148704Y-28022807D01*
X33203947Y-28192829D01*
X33203950Y-28192835D01*
X33293341Y-28347665D01*
X33313048Y-28369551D01*
X33342649Y-28402426D01*
X33372879Y-28465417D01*
X33374500Y-28485399D01*
X33374500Y-29090500D01*
X33354815Y-29157539D01*
X33302011Y-29203294D01*
X33250500Y-29214500D01*
X30348389Y-29214500D01*
X30287971Y-29226518D01*
X30227548Y-29238537D01*
X30227546Y-29238537D01*
X30227545Y-29238538D01*
X30227543Y-29238538D01*
X30198142Y-29250717D01*
X30113718Y-29285685D01*
X30113715Y-29285687D01*
X30093781Y-29299007D01*
X30066390Y-29317309D01*
X30066389Y-29317310D01*
X30011271Y-29354138D01*
X30011269Y-29354139D01*
X29981068Y-29384341D01*
X29924142Y-29441267D01*
X29191728Y-30173681D01*
X29130405Y-30207166D01*
X29104047Y-30210000D01*
X28183012Y-30210000D01*
X28215925Y-30152993D01*
X28250000Y-30025826D01*
X28250000Y-29894174D01*
X28215925Y-29767007D01*
X28183012Y-29710000D01*
X29100000Y-29710000D01*
X29100000Y-29062172D01*
X29099999Y-29062155D01*
X29093598Y-29002627D01*
X29093596Y-29002620D01*
X29043354Y-28867913D01*
X29043350Y-28867906D01*
X28957190Y-28752812D01*
X28957187Y-28752809D01*
X28842093Y-28666649D01*
X28842086Y-28666645D01*
X28707379Y-28616403D01*
X28707372Y-28616401D01*
X28647844Y-28610000D01*
X28000000Y-28610000D01*
X28000000Y-29526988D01*
X27942993Y-29494075D01*
X27815826Y-29460000D01*
X27684174Y-29460000D01*
X27557007Y-29494075D01*
X27500000Y-29526988D01*
X27500000Y-28610000D01*
X26852155Y-28610000D01*
X26792627Y-28616401D01*
X26792620Y-28616403D01*
X26657913Y-28666645D01*
X26657906Y-28666649D01*
X26542812Y-28752809D01*
X26542809Y-28752812D01*
X26456649Y-28867906D01*
X26456645Y-28867913D01*
X26406403Y-29002620D01*
X26406401Y-29002627D01*
X26400000Y-29062155D01*
X26400000Y-29710000D01*
X27316988Y-29710000D01*
X27284075Y-29767007D01*
X27250000Y-29894174D01*
X27250000Y-30025826D01*
X27284075Y-30152993D01*
X27316988Y-30210000D01*
X26400000Y-30210000D01*
X26400000Y-30857844D01*
X26406401Y-30917372D01*
X26406403Y-30917379D01*
X26456645Y-31052086D01*
X26456649Y-31052093D01*
X26542809Y-31167187D01*
X26542812Y-31167190D01*
X26657906Y-31253350D01*
X26657913Y-31253354D01*
X26789470Y-31302421D01*
X26845403Y-31344292D01*
X26869821Y-31409756D01*
X26854970Y-31478029D01*
X26833819Y-31506284D01*
X26711503Y-31628600D01*
X26575965Y-31822169D01*
X26575964Y-31822171D01*
X26476098Y-32036335D01*
X26476094Y-32036344D01*
X26414938Y-32264586D01*
X26414936Y-32264596D01*
X26394341Y-32499999D01*
X26394341Y-32500000D01*
X26414936Y-32735403D01*
X26414938Y-32735413D01*
X26476094Y-32963655D01*
X26476096Y-32963659D01*
X26476097Y-32963663D01*
X26513831Y-33044583D01*
X26575965Y-33177830D01*
X26575967Y-33177834D01*
X26711501Y-33371395D01*
X26711506Y-33371402D01*
X26878597Y-33538493D01*
X26878603Y-33538498D01*
X27064158Y-33668425D01*
X27107783Y-33723002D01*
X27114977Y-33792500D01*
X27083454Y-33854855D01*
X27064158Y-33871575D01*
X26878597Y-34001505D01*
X26711505Y-34168597D01*
X26575965Y-34362169D01*
X26575964Y-34362171D01*
X26476098Y-34576335D01*
X26476094Y-34576344D01*
X26414938Y-34804586D01*
X26414936Y-34804596D01*
X26394341Y-35039999D01*
X26394341Y-35040000D01*
X26414936Y-35275403D01*
X26414938Y-35275413D01*
X26476094Y-35503655D01*
X26476096Y-35503659D01*
X26476097Y-35503663D01*
X26549746Y-35661603D01*
X26575965Y-35717830D01*
X26575967Y-35717834D01*
X26711501Y-35911395D01*
X26711506Y-35911402D01*
X26878597Y-36078493D01*
X26878603Y-36078498D01*
X27064158Y-36208425D01*
X27107783Y-36263002D01*
X27114977Y-36332500D01*
X27083454Y-36394855D01*
X27064158Y-36411575D01*
X26878597Y-36541505D01*
X26711505Y-36708597D01*
X26575965Y-36902169D01*
X26575964Y-36902171D01*
X26476098Y-37116335D01*
X26476094Y-37116344D01*
X26414938Y-37344586D01*
X26414936Y-37344596D01*
X26394341Y-37579999D01*
X26394341Y-37580000D01*
X26414936Y-37815403D01*
X26414938Y-37815413D01*
X26476094Y-38043655D01*
X26476096Y-38043659D01*
X26476097Y-38043663D01*
X26554392Y-38211567D01*
X26575965Y-38257830D01*
X26575967Y-38257834D01*
X26675514Y-38400000D01*
X26711505Y-38451401D01*
X26874024Y-38613920D01*
X26876332Y-38616228D01*
X26909816Y-38677551D01*
X26904832Y-38747243D01*
X26876332Y-38791590D01*
X26770183Y-38897739D01*
X26674211Y-39050476D01*
X26614631Y-39220745D01*
X26614630Y-39220750D01*
X26594435Y-39399996D01*
X26594435Y-39400003D01*
X26614630Y-39579249D01*
X26614631Y-39579254D01*
X26674211Y-39749523D01*
X26700906Y-39792007D01*
X26770184Y-39902262D01*
X26897738Y-40029816D01*
X27050478Y-40125789D01*
X27155615Y-40162578D01*
X27220745Y-40185368D01*
X27220750Y-40185369D01*
X27399997Y-40205565D01*
X27399998Y-40205564D01*
X27400000Y-40205565D01*
X27428971Y-40202300D01*
X27474946Y-40205744D01*
X27544943Y-40224501D01*
X27544945Y-40224501D01*
X27710653Y-40224501D01*
X27710669Y-40224500D01*
X35853903Y-40224500D01*
X35920942Y-40244185D01*
X35941584Y-40260819D01*
X35989943Y-40309178D01*
X36023428Y-40370501D01*
X36018444Y-40440193D01*
X36007256Y-40462831D01*
X35914946Y-40609741D01*
X35855366Y-40780010D01*
X35855365Y-40780015D01*
X35835170Y-40959261D01*
X35835170Y-40959268D01*
X35855365Y-41138514D01*
X35855366Y-41138519D01*
X35914946Y-41308788D01*
X36010919Y-41461527D01*
X36138473Y-41589081D01*
X36291213Y-41685054D01*
X36461480Y-41744633D01*
X36548404Y-41754426D01*
X36612815Y-41781491D01*
X36622200Y-41789965D01*
X39280773Y-44448539D01*
X39314258Y-44509862D01*
X39309274Y-44579554D01*
X39267402Y-44635487D01*
X39203900Y-44659748D01*
X39144596Y-44664936D01*
X39144586Y-44664938D01*
X38916344Y-44726094D01*
X38916335Y-44726098D01*
X38702171Y-44825964D01*
X38702169Y-44825965D01*
X38508597Y-44961505D01*
X38341505Y-45128597D01*
X38211575Y-45314158D01*
X38156998Y-45357783D01*
X38087500Y-45364977D01*
X38025145Y-45333454D01*
X38008425Y-45314158D01*
X37878494Y-45128597D01*
X37711402Y-44961506D01*
X37711395Y-44961501D01*
X37710592Y-44960939D01*
X37634518Y-44907671D01*
X37517834Y-44825967D01*
X37517830Y-44825965D01*
X37462965Y-44800381D01*
X37303663Y-44726097D01*
X37303659Y-44726096D01*
X37303655Y-44726094D01*
X37075413Y-44664938D01*
X37075403Y-44664936D01*
X36840001Y-44644341D01*
X36839999Y-44644341D01*
X36604596Y-44664936D01*
X36604586Y-44664938D01*
X36376344Y-44726094D01*
X36376335Y-44726098D01*
X36162171Y-44825964D01*
X36162169Y-44825965D01*
X35968600Y-44961503D01*
X35846673Y-45083430D01*
X35785350Y-45116914D01*
X35715658Y-45111930D01*
X35659725Y-45070058D01*
X35642810Y-45039081D01*
X35593797Y-44907671D01*
X35593793Y-44907664D01*
X35507547Y-44792455D01*
X35507544Y-44792452D01*
X35392335Y-44706206D01*
X35392328Y-44706202D01*
X35257482Y-44655908D01*
X35257483Y-44655908D01*
X35197883Y-44649501D01*
X35197881Y-44649500D01*
X35197873Y-44649500D01*
X35197864Y-44649500D01*
X33402129Y-44649500D01*
X33402123Y-44649501D01*
X33342516Y-44655908D01*
X33207671Y-44706202D01*
X33207664Y-44706206D01*
X33092455Y-44792452D01*
X33092452Y-44792455D01*
X33006206Y-44907664D01*
X33006202Y-44907671D01*
X32955908Y-45042517D01*
X32949501Y-45102116D01*
X32949500Y-45102135D01*
X32949500Y-46897870D01*
X32949501Y-46897876D01*
X32955908Y-46957483D01*
X33006202Y-47092328D01*
X33006206Y-47092335D01*
X33092452Y-47207544D01*
X33092453Y-47207544D01*
X33092454Y-47207546D01*
X33117418Y-47226234D01*
X33159288Y-47282168D01*
X33164272Y-47351860D01*
X33130786Y-47413182D01*
X33069462Y-47446667D01*
X33043106Y-47449500D01*
X25124500Y-47449500D01*
X25057461Y-47429815D01*
X25011706Y-47377011D01*
X25000500Y-47325500D01*
X25000500Y-45097648D01*
X27199500Y-45097648D01*
X27199500Y-45302351D01*
X27231522Y-45504534D01*
X27294781Y-45699223D01*
X27387715Y-45881613D01*
X27508028Y-46047213D01*
X27652786Y-46191971D01*
X27807749Y-46304556D01*
X27818390Y-46312287D01*
X27934607Y-46371503D01*
X28000776Y-46405218D01*
X28000778Y-46405218D01*
X28000781Y-46405220D01*
X28105137Y-46439127D01*
X28195465Y-46468477D01*
X28296557Y-46484488D01*
X28397648Y-46500500D01*
X28397649Y-46500500D01*
X28602351Y-46500500D01*
X28602352Y-46500500D01*
X28804534Y-46468477D01*
X28999219Y-46405220D01*
X29181610Y-46312287D01*
X29287433Y-46235403D01*
X29347213Y-46191971D01*
X29347215Y-46191968D01*
X29347219Y-46191966D01*
X29491966Y-46047219D01*
X29491968Y-46047215D01*
X29491971Y-46047213D01*
X29544732Y-45974590D01*
X29612287Y-45881610D01*
X29705220Y-45699219D01*
X29768477Y-45504534D01*
X29800500Y-45302352D01*
X29800500Y-45097648D01*
X29778937Y-44961505D01*
X29768477Y-44895465D01*
X29713446Y-44726098D01*
X29705220Y-44700781D01*
X29705218Y-44700778D01*
X29705218Y-44700776D01*
X29671503Y-44634607D01*
X29612287Y-44518390D01*
X29572175Y-44463180D01*
X29491971Y-44352786D01*
X29347213Y-44208028D01*
X29181613Y-44087715D01*
X29181612Y-44087714D01*
X29181610Y-44087713D01*
X29097218Y-44044713D01*
X28999223Y-43994781D01*
X28804534Y-43931522D01*
X28629995Y-43903878D01*
X28602352Y-43899500D01*
X28397648Y-43899500D01*
X28373329Y-43903351D01*
X28195465Y-43931522D01*
X28000776Y-43994781D01*
X27818386Y-44087715D01*
X27652786Y-44208028D01*
X27508028Y-44352786D01*
X27387715Y-44518386D01*
X27294781Y-44700776D01*
X27231522Y-44895465D01*
X27199500Y-45097648D01*
X25000500Y-45097648D01*
X25000500Y-22097648D01*
X26949500Y-22097648D01*
X26949500Y-22302351D01*
X26981522Y-22504534D01*
X27044781Y-22699223D01*
X27137715Y-22881613D01*
X27258028Y-23047213D01*
X27402786Y-23191971D01*
X27550319Y-23299158D01*
X27568390Y-23312287D01*
X27642361Y-23349977D01*
X27750776Y-23405218D01*
X27750778Y-23405218D01*
X27750781Y-23405220D01*
X27855137Y-23439127D01*
X27945465Y-23468477D01*
X28046557Y-23484488D01*
X28147648Y-23500500D01*
X28147649Y-23500500D01*
X28352351Y-23500500D01*
X28352352Y-23500500D01*
X28554534Y-23468477D01*
X28749219Y-23405220D01*
X28931610Y-23312287D01*
X29024590Y-23244732D01*
X29097213Y-23191971D01*
X29097215Y-23191968D01*
X29097219Y-23191966D01*
X29241966Y-23047219D01*
X29241968Y-23047215D01*
X29241971Y-23047213D01*
X29315136Y-22946508D01*
X29362287Y-22881610D01*
X29455220Y-22699219D01*
X29518477Y-22504534D01*
X29550500Y-22302352D01*
X29550500Y-22097648D01*
X29518477Y-21895466D01*
X29509295Y-21867208D01*
X29455218Y-21700776D01*
X29421503Y-21634607D01*
X29362287Y-21518390D01*
X29312236Y-21449500D01*
X29241971Y-21352786D01*
X29097213Y-21208028D01*
X28931613Y-21087715D01*
X28931612Y-21087714D01*
X28931610Y-21087713D01*
X28847587Y-21044901D01*
X28749223Y-20994781D01*
X28554534Y-20931522D01*
X28379995Y-20903878D01*
X28352352Y-20899500D01*
X28147648Y-20899500D01*
X28123329Y-20903351D01*
X27945465Y-20931522D01*
X27750776Y-20994781D01*
X27568386Y-21087715D01*
X27402786Y-21208028D01*
X27258028Y-21352786D01*
X27137715Y-21518386D01*
X27044781Y-21700776D01*
X26981522Y-21895465D01*
X26949500Y-22097648D01*
X25000500Y-22097648D01*
X25000500Y-17624000D01*
X25020185Y-17556961D01*
X25072989Y-17511206D01*
X25124500Y-17500000D01*
X63876000Y-17500000D01*
X63943039Y-17519685D01*
G37*
%TD.AperFunction*%
%TA.AperFunction,Conductor*%
G36*
X43609340Y-27413068D02*
G01*
X43665274Y-27454939D01*
X43682189Y-27485917D01*
X43731202Y-27617328D01*
X43731206Y-27617335D01*
X43817452Y-27732544D01*
X43817455Y-27732547D01*
X43932664Y-27818793D01*
X43932671Y-27818797D01*
X44067517Y-27869091D01*
X44067516Y-27869091D01*
X44074444Y-27869835D01*
X44127127Y-27875500D01*
X45475500Y-27875499D01*
X45542539Y-27895184D01*
X45588294Y-27947987D01*
X45599500Y-27999499D01*
X45599500Y-41555303D01*
X45579815Y-41622342D01*
X45527011Y-41668097D01*
X45457853Y-41678041D01*
X45394297Y-41649016D01*
X45387819Y-41642984D01*
X39044790Y-35299955D01*
X39044788Y-35299952D01*
X38925917Y-35181081D01*
X38925909Y-35181075D01*
X38824136Y-35122317D01*
X38824134Y-35122316D01*
X38788990Y-35102025D01*
X38788989Y-35102024D01*
X38776463Y-35098667D01*
X38636257Y-35061099D01*
X38478143Y-35061099D01*
X38470547Y-35061099D01*
X38470531Y-35061100D01*
X37377412Y-35061100D01*
X37310373Y-35041415D01*
X37300097Y-35034045D01*
X37297263Y-35031785D01*
X37297262Y-35031784D01*
X37240496Y-34996115D01*
X37144523Y-34935811D01*
X36974254Y-34876231D01*
X36974249Y-34876230D01*
X36795004Y-34856035D01*
X36794996Y-34856035D01*
X36615750Y-34876230D01*
X36615745Y-34876231D01*
X36445476Y-34935811D01*
X36292737Y-35031784D01*
X36165184Y-35159337D01*
X36069211Y-35312076D01*
X36009631Y-35482345D01*
X36009630Y-35482350D01*
X35989435Y-35661596D01*
X35989435Y-35661603D01*
X36009630Y-35840849D01*
X36009631Y-35840854D01*
X36069211Y-36011123D01*
X36152825Y-36144193D01*
X36165184Y-36163862D01*
X36292738Y-36291416D01*
X36445478Y-36387389D01*
X36571137Y-36431359D01*
X36615745Y-36446968D01*
X36615750Y-36446969D01*
X36655937Y-36451497D01*
X36720351Y-36478563D01*
X36759906Y-36536158D01*
X36762044Y-36605995D01*
X36759096Y-36615671D01*
X36714632Y-36742742D01*
X36714630Y-36742750D01*
X36694435Y-36921996D01*
X36694435Y-36922003D01*
X36714630Y-37101249D01*
X36714631Y-37101254D01*
X36774211Y-37271523D01*
X36820120Y-37344586D01*
X36870184Y-37424262D01*
X36997738Y-37551816D01*
X37150478Y-37647789D01*
X37320745Y-37707368D01*
X37320750Y-37707369D01*
X37499996Y-37727565D01*
X37500000Y-37727565D01*
X37500004Y-37727565D01*
X37679249Y-37707369D01*
X37679252Y-37707368D01*
X37679255Y-37707368D01*
X37849522Y-37647789D01*
X38002262Y-37551816D01*
X38002267Y-37551810D01*
X38005097Y-37549555D01*
X38007275Y-37548665D01*
X38008158Y-37548111D01*
X38008255Y-37548265D01*
X38069783Y-37523145D01*
X38082412Y-37522500D01*
X38951817Y-37522500D01*
X39018856Y-37542185D01*
X39039498Y-37558819D01*
X39231603Y-37750924D01*
X39265088Y-37812247D01*
X39260104Y-37881939D01*
X39218232Y-37937872D01*
X39169703Y-37959895D01*
X39043733Y-37986670D01*
X39043728Y-37986672D01*
X38880408Y-38059387D01*
X38754566Y-38150818D01*
X38688759Y-38174298D01*
X38681680Y-38174500D01*
X35757169Y-38174500D01*
X35690130Y-38154815D01*
X35644375Y-38102011D01*
X35640127Y-38091454D01*
X35625789Y-38050478D01*
X35621507Y-38043664D01*
X35529813Y-37897734D01*
X35527550Y-37894896D01*
X35526659Y-37892715D01*
X35526111Y-37891842D01*
X35526264Y-37891745D01*
X35501144Y-37830209D01*
X35500500Y-37817587D01*
X35500500Y-34655097D01*
X35520185Y-34588058D01*
X35536819Y-34567416D01*
X36565742Y-33538493D01*
X37618536Y-32485698D01*
X37679857Y-32452215D01*
X37692310Y-32450163D01*
X37779255Y-32440368D01*
X37949522Y-32380789D01*
X38102262Y-32284816D01*
X38229816Y-32157262D01*
X38325789Y-32004522D01*
X38385368Y-31834255D01*
X38389316Y-31799215D01*
X38405565Y-31655003D01*
X38405565Y-31654996D01*
X38392426Y-31538383D01*
X38404481Y-31469562D01*
X38451830Y-31418182D01*
X38515646Y-31400500D01*
X41217588Y-31400500D01*
X41284627Y-31420185D01*
X41294903Y-31427555D01*
X41297736Y-31429814D01*
X41297738Y-31429816D01*
X41450478Y-31525789D01*
X41486470Y-31538383D01*
X41620745Y-31585368D01*
X41620750Y-31585369D01*
X41799996Y-31605565D01*
X41800000Y-31605565D01*
X41800004Y-31605565D01*
X41979249Y-31585369D01*
X41979252Y-31585368D01*
X41979255Y-31585368D01*
X42149522Y-31525789D01*
X42302262Y-31429816D01*
X42429816Y-31302262D01*
X42525789Y-31149522D01*
X42585368Y-30979255D01*
X42585801Y-30975413D01*
X42605565Y-30800003D01*
X42605565Y-30794475D01*
X42625250Y-30727436D01*
X42678054Y-30681681D01*
X42729565Y-30670475D01*
X42809364Y-30670475D01*
X42809366Y-30670475D01*
X42984242Y-30633304D01*
X43147568Y-30560587D01*
X43292205Y-30455501D01*
X43411834Y-30322640D01*
X43501225Y-30167810D01*
X43556472Y-29997778D01*
X43575160Y-29819975D01*
X43556472Y-29642172D01*
X43507732Y-29492165D01*
X43501227Y-29472145D01*
X43501224Y-29472139D01*
X43482943Y-29440476D01*
X43411834Y-29317310D01*
X43395354Y-29299007D01*
X43292210Y-29184453D01*
X43292207Y-29184451D01*
X43292206Y-29184450D01*
X43292205Y-29184449D01*
X43161614Y-29089568D01*
X43118949Y-29034237D01*
X43110500Y-28989250D01*
X43110500Y-27800226D01*
X43130185Y-27733187D01*
X43163374Y-27698654D01*
X43356401Y-27563495D01*
X43478329Y-27441566D01*
X43539648Y-27408084D01*
X43609340Y-27413068D01*
G37*
%TD.AperFunction*%
%TD*%
M02*
