M48
; DRILL file {KiCad 8.0.8} date 2025-03-21T07:08:34+0530
; FORMAT={-:-/ absolute / inch / decimal}
; #@! TF.CreationDate,2025-03-21T07:08:34+05:30
; #@! TF.GenerationSoftware,Kicad,Pcbnew,8.0.8
; #@! TF.FileFunction,Plated,1,2,PTH
FMAT,2
INCH
; #@! TA.AperFunction,Plated,PTH,ViaDrill
T1C0.0118
; #@! TA.AperFunction,Plated,PTH,ComponentDrill
T2C0.0394
%
G90
G05
T1
X1.0787Y-1.5512
X1.1929Y-1.2677
X1.1929Y-1.5276
X1.2008Y-0.9606
X1.2215Y-1.43
X1.338Y-1.0963
X1.3386Y-1.1748
X1.3419Y-1.4849
X1.374Y-1.5118
X1.3999Y-1.2463
X1.4409Y-1.0315
X1.4425Y-1.6126
X1.4486Y-1.404
X1.4528Y-1.1728
X1.47Y-1.56
X1.4764Y-1.4536
X1.4803Y-1.2463
X1.4882Y-1.6248
X1.53Y-1.61
X1.5476Y-1.5276
X1.5512Y-1.0433
X1.6024Y-0.9409
X1.6063Y-0.8343
X1.61Y-1.8563
X1.6435Y-1.487
X1.6457Y-1.2126
X1.6457Y-1.3583
X1.6654Y-1.6494
X1.6819Y-1.174
X1.8189Y-1.6693
X1.9921Y-1.4173
X2.006Y-1.7063
X2.1Y-1.25
X2.1575Y-0.878
X2.1772Y-1.0079
X2.2126Y-0.8819
X2.29Y-1.16
X2.3386Y-1.0315
T2
X1.0925Y-1.1795
X1.0925Y-1.2795
X1.0925Y-1.3795
X1.0925Y-1.4795
X1.3504Y-1.811
X1.4504Y-1.811
X1.5504Y-1.811
X1.6504Y-1.811
X1.6726Y-0.8443
X1.6726Y-0.9443
X1.6726Y-1.0443
X1.7504Y-1.811
X1.7726Y-0.8443
X1.7726Y-0.9443
X1.7726Y-1.0443
X1.8504Y-1.811
X1.9504Y-1.811
X2.0504Y-1.811
X2.1504Y-1.811
X2.2638Y-1.5545
X2.2638Y-1.6545
X2.4016Y-1.1102
X2.4016Y-1.2102
X2.4016Y-1.3102
X2.4016Y-1.4102
M30
