%TF.GenerationSoftware,KiCad,Pcbnew,8.0.8*%
%TF.CreationDate,2025-03-21T07:08:08+05:30*%
%TF.ProjectId,project2_MCU_datalogger,70726f6a-6563-4743-925f-4d43555f6461,1.0*%
%TF.SameCoordinates,Original*%
%TF.FileFunction,Copper,L1,Top*%
%TF.FilePolarity,Positive*%
%FSLAX46Y46*%
G04 Gerber Fmt 4.6, Leading zero omitted, Abs format (unit mm)*
G04 Created by KiCad (PCBNEW 8.0.8) date 2025-03-21 07:08:08*
%MOMM*%
%LPD*%
G01*
G04 APERTURE LIST*
G04 Aperture macros list*
%AMRoundRect*
0 Rectangle with rounded corners*
0 $1 Rounding radius*
0 $2 $3 $4 $5 $6 $7 $8 $9 X,Y pos of 4 corners*
0 Add a 4 corners polygon primitive as box body*
4,1,4,$2,$3,$4,$5,$6,$7,$8,$9,$2,$3,0*
0 Add four circle primitives for the rounded corners*
1,1,$1+$1,$2,$3*
1,1,$1+$1,$4,$5*
1,1,$1+$1,$6,$7*
1,1,$1+$1,$8,$9*
0 Add four rect primitives between the rounded corners*
20,1,$1+$1,$2,$3,$4,$5,0*
20,1,$1+$1,$4,$5,$6,$7,0*
20,1,$1+$1,$6,$7,$8,$9,0*
20,1,$1+$1,$8,$9,$2,$3,0*%
G04 Aperture macros list end*
%TA.AperFunction,SMDPad,CuDef*%
%ADD10RoundRect,0.250000X0.250000X0.475000X-0.250000X0.475000X-0.250000X-0.475000X0.250000X-0.475000X0*%
%TD*%
%TA.AperFunction,ComponentPad*%
%ADD11R,1.700000X1.700000*%
%TD*%
%TA.AperFunction,ComponentPad*%
%ADD12O,1.700000X1.700000*%
%TD*%
%TA.AperFunction,SMDPad,CuDef*%
%ADD13RoundRect,0.250000X0.450000X-0.262500X0.450000X0.262500X-0.450000X0.262500X-0.450000X-0.262500X0*%
%TD*%
%TA.AperFunction,SMDPad,CuDef*%
%ADD14RoundRect,0.250000X0.475000X-0.250000X0.475000X0.250000X-0.475000X0.250000X-0.475000X-0.250000X0*%
%TD*%
%TA.AperFunction,SMDPad,CuDef*%
%ADD15RoundRect,0.250000X-0.262500X-0.450000X0.262500X-0.450000X0.262500X0.450000X-0.262500X0.450000X0*%
%TD*%
%TA.AperFunction,SMDPad,CuDef*%
%ADD16RoundRect,0.073750X-0.911250X-0.221250X0.911250X-0.221250X0.911250X0.221250X-0.911250X0.221250X0*%
%TD*%
%TA.AperFunction,SMDPad,CuDef*%
%ADD17RoundRect,0.243750X0.456250X-0.243750X0.456250X0.243750X-0.456250X0.243750X-0.456250X-0.243750X0*%
%TD*%
%TA.AperFunction,SMDPad,CuDef*%
%ADD18RoundRect,0.150000X-0.650000X-0.150000X0.650000X-0.150000X0.650000X0.150000X-0.650000X0.150000X0*%
%TD*%
%TA.AperFunction,SMDPad,CuDef*%
%ADD19RoundRect,0.068750X0.666250X0.206250X-0.666250X0.206250X-0.666250X-0.206250X0.666250X-0.206250X0*%
%TD*%
%TA.AperFunction,SMDPad,CuDef*%
%ADD20RoundRect,0.068750X0.206250X0.666250X-0.206250X0.666250X-0.206250X-0.666250X0.206250X-0.666250X0*%
%TD*%
%TA.AperFunction,SMDPad,CuDef*%
%ADD21R,2.400000X3.500000*%
%TD*%
%TA.AperFunction,SMDPad,CuDef*%
%ADD22RoundRect,0.250000X-0.475000X0.250000X-0.475000X-0.250000X0.475000X-0.250000X0.475000X0.250000X0*%
%TD*%
%TA.AperFunction,ViaPad*%
%ADD23C,0.700000*%
%TD*%
%TA.AperFunction,ViaPad*%
%ADD24C,0.600000*%
%TD*%
%TA.AperFunction,Conductor*%
%ADD25C,0.200000*%
%TD*%
%TA.AperFunction,Conductor*%
%ADD26C,0.250000*%
%TD*%
G04 APERTURE END LIST*
D10*
%TO.P,C4,1*%
%TO.N,/VCC*%
X54450000Y-26500000D03*
%TO.P,C4,2*%
%TO.N,GND*%
X52550000Y-26500000D03*
%TD*%
D11*
%TO.P,J3,1,Pin_1*%
%TO.N,/D2*%
X34300000Y-46000000D03*
D12*
%TO.P,J3,2,Pin_2*%
%TO.N,/D3*%
X36840000Y-46000000D03*
%TO.P,J3,3,Pin_3*%
%TO.N,/D4*%
X39380000Y-46000000D03*
%TO.P,J3,4,Pin_4*%
%TO.N,/D5*%
X41920000Y-46000000D03*
%TO.P,J3,5,Pin_5*%
%TO.N,/D6*%
X44460000Y-46000000D03*
%TO.P,J3,6,Pin_6*%
%TO.N,/D7*%
X47000000Y-46000000D03*
%TO.P,J3,7,Pin_7*%
%TO.N,/D8*%
X49540000Y-46000000D03*
%TO.P,J3,8,Pin_8*%
%TO.N,GND*%
X52080000Y-46000000D03*
%TO.P,J3,9,Pin_9*%
%TO.N,/VCC*%
X54620000Y-46000000D03*
%TD*%
D13*
%TO.P,R1,1*%
%TO.N,/VCC*%
X45000000Y-31162500D03*
%TO.P,R1,2*%
%TO.N,/SCK*%
X45000000Y-29337500D03*
%TD*%
D14*
%TO.P,C5,1*%
%TO.N,/VCC*%
X54500000Y-41950000D03*
%TO.P,C5,2*%
%TO.N,GND*%
X54500000Y-40050000D03*
%TD*%
D15*
%TO.P,R6,1*%
%TO.N,/VCC*%
X56337500Y-26500000D03*
%TO.P,R6,2*%
%TO.N,Net-(U3-~{INTA})*%
X58162500Y-26500000D03*
%TD*%
D16*
%TO.P,U3,1,X1*%
%TO.N,Net-(U3-X1)*%
X53025000Y-20595000D03*
%TO.P,U3,2,X2*%
%TO.N,Net-(U3-X2)*%
X53025000Y-21865000D03*
%TO.P,U3,3,~{INTA}*%
%TO.N,Net-(U3-~{INTA})*%
X53025000Y-23135000D03*
%TO.P,U3,4,GND*%
%TO.N,GND*%
X53025000Y-24405000D03*
%TO.P,U3,5,SDA*%
%TO.N,/SDA*%
X57975000Y-24405000D03*
%TO.P,U3,6,SCL*%
%TO.N,/SCK*%
X57975000Y-23135000D03*
%TO.P,U3,7,SQW/~INT*%
%TO.N,Net-(U3-SQW{slash}~INT)*%
X57975000Y-21865000D03*
%TO.P,U3,8,VCC*%
%TO.N,/VCC*%
X57975000Y-20595000D03*
%TD*%
D17*
%TO.P,D2,1,K*%
%TO.N,Net-(D2-K)*%
X49250000Y-35937500D03*
%TO.P,D2,2,A*%
%TO.N,/VCC*%
X49250000Y-34062500D03*
%TD*%
D11*
%TO.P,J4,1,Pin_1*%
%TO.N,/MISO*%
X45025000Y-26525000D03*
D12*
%TO.P,J4,2,Pin_2*%
%TO.N,/VCC*%
X42485000Y-26525000D03*
%TO.P,J4,3,Pin_3*%
%TO.N,/SCK*%
X45025000Y-23985000D03*
%TO.P,J4,4,Pin_4*%
%TO.N,/MOSI*%
X42485000Y-23985000D03*
%TO.P,J4,5,Pin_5*%
%TO.N,/RESET*%
X45025000Y-21445000D03*
%TO.P,J4,6,Pin_6*%
%TO.N,GND*%
X42485000Y-21445000D03*
%TD*%
D18*
%TO.P,U2,1,A0*%
%TO.N,/VCC*%
X32150000Y-27845000D03*
%TO.P,U2,2,A1*%
%TO.N,GND*%
X32150000Y-29115000D03*
%TO.P,U2,3,A2*%
%TO.N,/VCC*%
X32150000Y-30385000D03*
%TO.P,U2,4,GND*%
%TO.N,GND*%
X32150000Y-31655000D03*
%TO.P,U2,5,SDA*%
%TO.N,/SDA*%
X39350000Y-31655000D03*
%TO.P,U2,6,SCL*%
%TO.N,/SCK*%
X39350000Y-30385000D03*
%TO.P,U2,7,WP*%
%TO.N,GND*%
X39350000Y-29115000D03*
%TO.P,U2,8,VCC*%
%TO.N,/VCC*%
X39350000Y-27845000D03*
%TD*%
D13*
%TO.P,R7,1*%
%TO.N,GND*%
X52000000Y-39412500D03*
%TO.P,R7,2*%
%TO.N,Net-(D1-K)*%
X52000000Y-37587500D03*
%TD*%
D15*
%TO.P,R4,1*%
%TO.N,/VCC*%
X42587500Y-42750000D03*
%TO.P,R4,2*%
%TO.N,/RESET*%
X44412500Y-42750000D03*
%TD*%
D19*
%TO.P,U4,1,PD3*%
%TO.N,/D3*%
X40565000Y-41135000D03*
%TO.P,U4,2,PD4*%
%TO.N,/D4*%
X40565000Y-40335000D03*
%TO.P,U4,3,GND*%
%TO.N,GND*%
X40565000Y-39535000D03*
%TO.P,U4,4,VCC*%
%TO.N,/VCC*%
X40565000Y-38735000D03*
%TO.P,U4,5,GND*%
%TO.N,GND*%
X40565000Y-37935000D03*
%TO.P,U4,6,VCC*%
%TO.N,unconnected-(U4-VCC-Pad6)*%
X40565000Y-37135000D03*
%TO.P,U4,7,PB6*%
%TO.N,Net-(U4-PB6)*%
X40565000Y-36335000D03*
%TO.P,U4,8,PB7*%
%TO.N,Net-(U4-PB7)*%
X40565000Y-35535000D03*
D20*
%TO.P,U4,9,PD5*%
%TO.N,/D5*%
X39195000Y-34165000D03*
%TO.P,U4,10,PD6*%
%TO.N,/D6*%
X38395000Y-34165000D03*
%TO.P,U4,11,PD7*%
%TO.N,/D7*%
X37595000Y-34165000D03*
%TO.P,U4,12,PB0*%
%TO.N,/D8*%
X36795000Y-34165000D03*
%TO.P,U4,13,PB1*%
%TO.N,unconnected-(U4-PB1-Pad13)*%
X35995000Y-34165000D03*
%TO.P,U4,14,PB2*%
%TO.N,unconnected-(U4-PB2-Pad14)*%
X35195000Y-34165000D03*
%TO.P,U4,15,PB3*%
%TO.N,/MOSI*%
X34395000Y-34165000D03*
%TO.P,U4,16,PB4*%
%TO.N,/MISO*%
X33595000Y-34165000D03*
D19*
%TO.P,U4,17,PB5*%
%TO.N,/SCK*%
X32225000Y-35535000D03*
%TO.P,U4,18,AVCC*%
%TO.N,/VCC*%
X32225000Y-36335000D03*
%TO.P,U4,19,ADC6*%
%TO.N,unconnected-(U4-ADC6-Pad19)*%
X32225000Y-37135000D03*
%TO.P,U4,20,AREF*%
%TO.N,Net-(U4-AREF)*%
X32225000Y-37935000D03*
%TO.P,U4,21,GND*%
%TO.N,GND*%
X32225000Y-38735000D03*
%TO.P,U4,22,ADC7*%
%TO.N,unconnected-(U4-ADC7-Pad22)*%
X32225000Y-39535000D03*
%TO.P,U4,23,PC0*%
%TO.N,unconnected-(U4-PC0-Pad23)*%
X32225000Y-40335000D03*
%TO.P,U4,24,PC1*%
%TO.N,unconnected-(U4-PC1-Pad24)*%
X32225000Y-41135000D03*
D20*
%TO.P,U4,25,PC2*%
%TO.N,unconnected-(U4-PC2-Pad25)*%
X33595000Y-42505000D03*
%TO.P,U4,26,PC3*%
%TO.N,unconnected-(U4-PC3-Pad26)*%
X34395000Y-42505000D03*
%TO.P,U4,27,PC4*%
%TO.N,/SDA*%
X35195000Y-42505000D03*
%TO.P,U4,28,PC5*%
%TO.N,/SCK*%
X35995000Y-42505000D03*
%TO.P,U4,29,PC6/~{RESET}*%
%TO.N,/RESET*%
X36795000Y-42505000D03*
%TO.P,U4,30,PD0*%
%TO.N,/RX*%
X37595000Y-42505000D03*
%TO.P,U4,31,PD1*%
%TO.N,/TX*%
X38395000Y-42505000D03*
%TO.P,U4,32,PD2*%
%TO.N,/D2*%
X39195000Y-42505000D03*
%TD*%
D11*
%TO.P,BT1,1,+*%
%TO.N,/VCC*%
X57500000Y-42025000D03*
D12*
%TO.P,BT1,2,-*%
%TO.N,GND*%
X57500000Y-39485000D03*
%TD*%
D11*
%TO.P,J1,1,Pin_1*%
%TO.N,GND*%
X61000000Y-28200000D03*
D12*
%TO.P,J1,2,Pin_2*%
%TO.N,/VCC*%
X61000000Y-30740000D03*
%TO.P,J1,3,Pin_3*%
%TO.N,/SDA*%
X61000000Y-33280000D03*
%TO.P,J1,4,Pin_4*%
%TO.N,/SCK*%
X61000000Y-35820000D03*
%TD*%
D21*
%TO.P,Y1,1,1*%
%TO.N,Net-(U3-X2)*%
X49250000Y-27100000D03*
%TO.P,Y1,2,2*%
%TO.N,Net-(U3-X1)*%
X49250000Y-21900000D03*
%TD*%
D22*
%TO.P,C3,1*%
%TO.N,GND*%
X49250000Y-37550000D03*
%TO.P,C3,2*%
%TO.N,Net-(U4-PB7)*%
X49250000Y-39450000D03*
%TD*%
D13*
%TO.P,R3,1*%
%TO.N,Net-(D2-K)*%
X52000000Y-43162500D03*
%TO.P,R3,2*%
%TO.N,GND*%
X52000000Y-41337500D03*
%TD*%
D11*
%TO.P,J2,1,Pin_1*%
%TO.N,GND*%
X27750000Y-29960000D03*
D12*
%TO.P,J2,2,Pin_2*%
%TO.N,/VCC*%
X27750000Y-32500000D03*
%TO.P,J2,3,Pin_3*%
%TO.N,/RX*%
X27750000Y-35040000D03*
%TO.P,J2,4,Pin_4*%
%TO.N,/TX*%
X27750000Y-37580000D03*
%TD*%
D10*
%TO.P,C1,1*%
%TO.N,GND*%
X28950000Y-40750000D03*
%TO.P,C1,2*%
%TO.N,Net-(U4-AREF)*%
X27050000Y-40750000D03*
%TD*%
D17*
%TO.P,D1,1,K*%
%TO.N,Net-(D1-K)*%
X52000000Y-35937500D03*
%TO.P,D1,2,A*%
%TO.N,/SCK*%
X52000000Y-34062500D03*
%TD*%
D21*
%TO.P,Y2,1,1*%
%TO.N,Net-(U4-PB7)*%
X43750000Y-34400000D03*
%TO.P,Y2,2,2*%
%TO.N,Net-(U4-PB6)*%
X43750000Y-39600000D03*
%TD*%
D13*
%TO.P,R2,1*%
%TO.N,/VCC*%
X47500000Y-32362500D03*
%TO.P,R2,2*%
%TO.N,/SDA*%
X47500000Y-30537500D03*
%TD*%
D14*
%TO.P,C2,1*%
%TO.N,GND*%
X49250000Y-43200000D03*
%TO.P,C2,2*%
%TO.N,Net-(U4-PB6)*%
X49250000Y-41300000D03*
%TD*%
D18*
%TO.P,U1,1,A0*%
%TO.N,/VCC*%
X32150000Y-20595000D03*
%TO.P,U1,2,A1*%
X32150000Y-21865000D03*
%TO.P,U1,3,A2*%
X32150000Y-23135000D03*
%TO.P,U1,4,GND*%
%TO.N,GND*%
X32150000Y-24405000D03*
%TO.P,U1,5,SDA*%
%TO.N,/SDA*%
X39350000Y-24405000D03*
%TO.P,U1,6,SCL*%
%TO.N,/SCK*%
X39350000Y-23135000D03*
%TO.P,U1,7,WP*%
%TO.N,GND*%
X39350000Y-21865000D03*
%TO.P,U1,8,VCC*%
%TO.N,/VCC*%
X39350000Y-20595000D03*
%TD*%
D15*
%TO.P,R5,1*%
%TO.N,/VCC*%
X50337500Y-32000000D03*
%TO.P,R5,2*%
%TO.N,Net-(U3-SQW{slash}~INT)*%
X52162500Y-32000000D03*
%TD*%
D23*
%TO.N,GND*%
X30300000Y-38800000D03*
X34083328Y-37716672D03*
X30300000Y-32200000D03*
X58166000Y-29464000D03*
X41800000Y-34500000D03*
X41745468Y-37770419D03*
X30500000Y-24400000D03*
%TO.N,/VCC*%
X55300000Y-25600000D03*
X34000000Y-29840000D03*
X54800000Y-22300000D03*
X42300000Y-41895437D03*
X31025000Y-36322000D03*
X42719975Y-29819975D03*
X33985200Y-27845000D03*
X39400000Y-26500000D03*
X39308000Y-38800000D03*
D24*
%TO.N,/SCK*%
X36900000Y-29790000D03*
X36600000Y-26200000D03*
%TO.N,Net-(D2-K)*%
X50600000Y-36000000D03*
X50952298Y-43339798D03*
%TO.N,/SDA*%
X34900000Y-38400000D03*
X40700000Y-23900000D03*
X37600000Y-31655000D03*
X40800000Y-21190000D03*
X59400000Y-26200000D03*
%TO.N,/TX*%
X37800000Y-41270000D03*
X27400000Y-39400000D03*
%TO.N,/D8*%
X36795000Y-35661600D03*
%TO.N,/D6*%
X37338000Y-39624000D03*
%TO.N,/D5*%
X38862000Y-40894000D03*
%TO.N,/D7*%
X37500000Y-36922000D03*
%TO.N,/MISO*%
X41800000Y-30800000D03*
X35556317Y-31656317D03*
%TO.N,/RESET*%
X46200000Y-42400000D03*
X36640735Y-40959265D03*
X40894000Y-47150000D03*
%TO.N,Net-(U3-SQW{slash}~INT)*%
X53340000Y-31750000D03*
X56200000Y-22400000D03*
%TD*%
D25*
%TO.N,Net-(U4-AREF)*%
X29865000Y-37935000D02*
X27050000Y-40750000D01*
X32225000Y-37935000D02*
X29865000Y-37935000D01*
D26*
%TO.N,GND*%
X58166000Y-29464000D02*
X55514000Y-29464000D01*
X28950000Y-40750000D02*
X30300000Y-39400000D01*
X30500000Y-24400000D02*
X30327600Y-24572400D01*
X52080000Y-46000000D02*
X49280000Y-43200000D01*
X49250000Y-37550000D02*
X45466000Y-33766000D01*
X41675000Y-39160000D02*
X41300000Y-39535000D01*
X41675000Y-37840887D02*
X41675000Y-39160000D01*
X52550000Y-24880000D02*
X53025000Y-24405000D01*
X50137500Y-37550000D02*
X52000000Y-39412500D01*
X61000000Y-28200000D02*
X61000000Y-28878935D01*
X42065000Y-21865000D02*
X42485000Y-21445000D01*
X54250000Y-28200000D02*
X61000000Y-28200000D01*
X30327600Y-24572400D02*
X30327600Y-29115000D01*
X45405394Y-32275000D02*
X42368000Y-32275000D01*
X39350000Y-21865000D02*
X34966618Y-21865000D01*
X41300000Y-39535000D02*
X40565000Y-39535000D01*
X41745468Y-37770419D02*
X41675000Y-37840887D01*
X53862500Y-39412500D02*
X54500000Y-40050000D01*
X56935000Y-40050000D02*
X57500000Y-39485000D01*
X30965000Y-38735000D02*
X32225000Y-38735000D01*
X30300000Y-39400000D02*
X30300000Y-38800000D01*
X54500000Y-40050000D02*
X56935000Y-40050000D01*
X32150000Y-31655000D02*
X31350001Y-31655000D01*
X28595000Y-29115000D02*
X30327600Y-29115000D01*
X42368000Y-32275000D02*
X41800000Y-32843000D01*
X49280000Y-43200000D02*
X49250000Y-43200000D01*
X39350000Y-21865000D02*
X42065000Y-21865000D01*
X49250000Y-43200000D02*
X50137500Y-43200000D01*
X39350000Y-29115000D02*
X32150000Y-29115000D01*
X52550000Y-26500000D02*
X54250000Y-28200000D01*
X52000000Y-39412500D02*
X52000000Y-41337500D01*
X31350001Y-31655000D02*
X30327600Y-30632599D01*
X52550000Y-26500000D02*
X52550000Y-24880000D01*
X41580887Y-37935000D02*
X40565000Y-37935000D01*
X34966618Y-21865000D02*
X32426618Y-24405000D01*
X32426618Y-24405000D02*
X32150000Y-24405000D01*
X32150000Y-24405000D02*
X30505000Y-24405000D01*
X30327600Y-29115000D02*
X32150000Y-29115000D01*
X50137500Y-43200000D02*
X52000000Y-41337500D01*
X41745468Y-37770419D02*
X41580887Y-37935000D01*
X27750000Y-29960000D02*
X28595000Y-29115000D01*
X55514000Y-29464000D02*
X52550000Y-26500000D01*
X30300000Y-32200000D02*
X30300000Y-30660199D01*
X30300000Y-30660199D02*
X30327600Y-30632599D01*
X30327600Y-30632599D02*
X30327600Y-29115000D01*
X28950000Y-40750000D02*
X30965000Y-38735000D01*
X49250000Y-37550000D02*
X50137500Y-37550000D01*
X30505000Y-24405000D02*
X30500000Y-24400000D01*
X32225000Y-38735000D02*
X33065000Y-38735000D01*
X45466000Y-33766000D02*
X45466000Y-32335606D01*
X34083328Y-37716672D02*
X33065000Y-38735000D01*
X52000000Y-39412500D02*
X53862500Y-39412500D01*
X45466000Y-32335606D02*
X45405394Y-32275000D01*
X41800000Y-32843000D02*
X41800000Y-34500000D01*
D25*
%TO.N,Net-(U4-PB6)*%
X49250000Y-41300000D02*
X45450000Y-41300000D01*
X43750000Y-39600000D02*
X43750000Y-38785000D01*
X45450000Y-41300000D02*
X43750000Y-39600000D01*
X41300000Y-36335000D02*
X40565000Y-36335000D01*
X43750000Y-38785000D02*
X41300000Y-36335000D01*
%TO.N,Net-(U4-PB7)*%
X42889950Y-34400000D02*
X41754950Y-35535000D01*
X43750000Y-34400000D02*
X42889950Y-34400000D01*
X41754950Y-35535000D02*
X40565000Y-35535000D01*
X49250000Y-39450000D02*
X44200000Y-34400000D01*
X44200000Y-34400000D02*
X43750000Y-34400000D01*
D26*
%TO.N,/VCC*%
X57425000Y-41950000D02*
X57500000Y-42025000D01*
X40500000Y-38800000D02*
X40565000Y-38735000D01*
X56337500Y-26500000D02*
X57412500Y-27575000D01*
X54620000Y-42070000D02*
X54500000Y-41950000D01*
X39350000Y-26550000D02*
X39400000Y-26500000D01*
X57975000Y-20595000D02*
X56367000Y-20595000D01*
X32150000Y-23135000D02*
X32150000Y-21865000D01*
X50337500Y-32975000D02*
X50337500Y-32000000D01*
X32150000Y-20595000D02*
X39350000Y-20595000D01*
X49250000Y-34062500D02*
X50337500Y-32975000D01*
X33985200Y-27845000D02*
X32150000Y-27845000D01*
X57412500Y-27575000D02*
X59293000Y-27575000D01*
X45000000Y-31162500D02*
X44062500Y-31162500D01*
X62738000Y-30734000D02*
X62484000Y-30734000D01*
X33455000Y-30385000D02*
X34000000Y-29840000D01*
X40663000Y-38585000D02*
X41165913Y-38585000D01*
X54620000Y-46000000D02*
X54620000Y-42070000D01*
X55300000Y-25600000D02*
X55473600Y-25773600D01*
X32225000Y-36335000D02*
X30747000Y-36335000D01*
X39350000Y-27845000D02*
X39350000Y-26550000D01*
X44062500Y-31162500D02*
X42719975Y-29819975D01*
X56367000Y-20595000D02*
X54800000Y-22162000D01*
X62484000Y-30734000D02*
X62478000Y-30740000D01*
X30734000Y-36322000D02*
X31025000Y-36322000D01*
X56337500Y-26500000D02*
X55473600Y-26500000D01*
X40565000Y-38683000D02*
X40663000Y-38585000D01*
X59293000Y-27575000D02*
X59911000Y-26957000D01*
X46200000Y-32362500D02*
X45000000Y-31162500D01*
X55473600Y-26500000D02*
X54450000Y-26500000D01*
X54500000Y-41950000D02*
X57425000Y-41950000D01*
X55473600Y-25773600D02*
X55473600Y-26500000D01*
X42587500Y-42750000D02*
X42587500Y-42182937D01*
X30747000Y-36335000D02*
X30734000Y-36322000D01*
X39308000Y-38800000D02*
X40500000Y-38800000D01*
X49200000Y-34062500D02*
X47500000Y-32362500D01*
X62478000Y-30740000D02*
X61000000Y-30740000D01*
X27750000Y-32500000D02*
X27750000Y-32595000D01*
X54800000Y-22162000D02*
X54800000Y-22300000D01*
X59911000Y-26957000D02*
X62517000Y-26957000D01*
X39350000Y-27845000D02*
X33985200Y-27845000D01*
X40565000Y-38735000D02*
X40565000Y-38683000D01*
X62738000Y-27178000D02*
X62738000Y-30734000D01*
X42587500Y-42182937D02*
X42300000Y-41895437D01*
X61000000Y-30740000D02*
X61000000Y-31400000D01*
X62517000Y-26957000D02*
X62738000Y-27178000D01*
X47500000Y-32362500D02*
X46200000Y-32362500D01*
X42587500Y-42750000D02*
X42587500Y-42677450D01*
X49250000Y-34062500D02*
X49200000Y-34062500D01*
X42587500Y-42677450D02*
X42299999Y-42389949D01*
X32150000Y-30385000D02*
X33455000Y-30385000D01*
X32150000Y-20595000D02*
X32150000Y-21865000D01*
D25*
%TO.N,/SCK*%
X39350000Y-23135000D02*
X38550001Y-23135000D01*
X38250000Y-23435001D02*
X38250000Y-24987500D01*
X57975000Y-23135000D02*
X59711000Y-23135000D01*
X45000000Y-29534744D02*
X46815256Y-31350000D01*
X37812500Y-24987500D02*
X36600000Y-26200000D01*
X36900000Y-30251800D02*
X37033200Y-30385000D01*
X35995000Y-38638394D02*
X32891606Y-35535000D01*
X43685000Y-22645000D02*
X45025000Y-23985000D01*
X46815256Y-31350000D02*
X49419544Y-31350000D01*
X35979104Y-30385000D02*
X37033200Y-30385000D01*
X37033200Y-30385000D02*
X39350000Y-30385000D01*
X63246000Y-26670000D02*
X63246000Y-33574000D01*
X32891606Y-35535000D02*
X32225000Y-35535000D01*
X39350000Y-23135000D02*
X39840000Y-22645000D01*
X36900000Y-29790000D02*
X36900000Y-30251800D01*
X52000000Y-34062500D02*
X59242500Y-34062500D01*
X59242500Y-34062500D02*
X61000000Y-35820000D01*
X46175000Y-25135000D02*
X45025000Y-23985000D01*
X45000000Y-29337500D02*
X45000000Y-29534744D01*
X45000000Y-29337500D02*
X46175000Y-28162500D01*
X51308000Y-31402544D02*
X51308000Y-33370500D01*
X49819544Y-30950000D02*
X50855456Y-30950000D01*
X63246000Y-33574000D02*
X61000000Y-35820000D01*
X38250000Y-24987500D02*
X37812500Y-24987500D01*
X50855456Y-30950000D02*
X51308000Y-31402544D01*
X38550001Y-23135000D02*
X38250000Y-23435001D01*
X32225000Y-34139104D02*
X35979104Y-30385000D01*
X51308000Y-33370500D02*
X52000000Y-34062500D01*
X35995000Y-42505000D02*
X35995000Y-38638394D01*
X32225000Y-35535000D02*
X32225000Y-34139104D01*
X39840000Y-22645000D02*
X43685000Y-22645000D01*
X59711000Y-23135000D02*
X63246000Y-26670000D01*
X46175000Y-28162500D02*
X46175000Y-25135000D01*
X49419544Y-31350000D02*
X49819544Y-30950000D01*
%TO.N,Net-(D1-K)*%
X52000000Y-37587500D02*
X52000000Y-35937500D01*
%TO.N,Net-(D2-K)*%
X49312500Y-36000000D02*
X49250000Y-35937500D01*
X52000000Y-43162500D02*
X51129596Y-43162500D01*
X51129596Y-43162500D02*
X50952298Y-43339798D01*
X50600000Y-36000000D02*
X49312500Y-36000000D01*
%TO.N,/SDA*%
X39520552Y-31655000D02*
X39350000Y-31655000D01*
X47500000Y-30537500D02*
X58257500Y-30537500D01*
X39350000Y-24405000D02*
X40500000Y-25555000D01*
X59800000Y-32080000D02*
X61000000Y-33280000D01*
X35195000Y-38695000D02*
X34900000Y-38400000D01*
X42204363Y-19785637D02*
X40800000Y-21190000D01*
X44440686Y-22835000D02*
X43850686Y-22245000D01*
X43850686Y-22245000D02*
X43850686Y-21113629D01*
X40500000Y-30675552D02*
X39520552Y-31655000D01*
X40700000Y-23900000D02*
X39855000Y-23900000D01*
X45501346Y-22835000D02*
X44440686Y-22835000D01*
X58257500Y-30537500D02*
X61000000Y-33280000D01*
X47500000Y-30537500D02*
X47500000Y-24833654D01*
X43850686Y-21113629D02*
X42522694Y-19785637D01*
X42522694Y-19785637D02*
X42204363Y-19785637D01*
X37600000Y-31655000D02*
X39350000Y-31655000D01*
X40500000Y-25555000D02*
X40500000Y-30675552D01*
X47500000Y-24833654D02*
X45501346Y-22835000D01*
X57975000Y-24405000D02*
X59400000Y-25830000D01*
X35195000Y-42505000D02*
X35195000Y-38695000D01*
X39855000Y-23900000D02*
X39350000Y-24405000D01*
X59400000Y-25830000D02*
X59400000Y-26200000D01*
%TO.N,/TX*%
X27750000Y-39050000D02*
X27400000Y-39400000D01*
X27750000Y-37580000D02*
X27750000Y-39050000D01*
X37800000Y-41270000D02*
X38395000Y-41865000D01*
X38395000Y-41865000D02*
X38395000Y-42505000D01*
%TO.N,/RX*%
X37595000Y-42505000D02*
X37595000Y-43240000D01*
X26162000Y-41371744D02*
X26162000Y-36628000D01*
X28330256Y-43540000D02*
X26162000Y-41371744D01*
X37295000Y-43540000D02*
X28330256Y-43540000D01*
X26162000Y-36628000D02*
X27750000Y-35040000D01*
X37595000Y-43240000D02*
X37295000Y-43540000D01*
%TO.N,/D8*%
X36795000Y-35661600D02*
X36795000Y-34165000D01*
%TO.N,/D6*%
X38170000Y-34985896D02*
X38170000Y-34390000D01*
X38170000Y-34390000D02*
X38395000Y-34165000D01*
X38249000Y-39624000D02*
X38100000Y-39475000D01*
X37338000Y-39624000D02*
X38249000Y-39624000D01*
X38100000Y-35055896D02*
X38170000Y-34985896D01*
X38100000Y-39475000D02*
X38100000Y-35055896D01*
%TO.N,/D3*%
X40565000Y-42530896D02*
X40565000Y-41135000D01*
X37095896Y-46000000D02*
X40565000Y-42530896D01*
X36840000Y-46000000D02*
X37095896Y-46000000D01*
%TO.N,/D4*%
X41600000Y-43780000D02*
X41600000Y-40774104D01*
X41160896Y-40335000D02*
X40565000Y-40335000D01*
X41600000Y-43780000D02*
X39380000Y-46000000D01*
X41600000Y-40774104D02*
X41160896Y-40335000D01*
%TO.N,/D5*%
X38862000Y-39624000D02*
X38608000Y-39370000D01*
X38608000Y-35347896D02*
X38970000Y-34985896D01*
X38970000Y-34390000D02*
X39195000Y-34165000D01*
X38970000Y-34985896D02*
X38970000Y-34390000D01*
X38862000Y-40894000D02*
X38862000Y-39624000D01*
X38608000Y-39370000D02*
X38608000Y-35347896D01*
%TO.N,/D2*%
X37445896Y-44850000D02*
X35450000Y-44850000D01*
X35450000Y-44850000D02*
X34300000Y-46000000D01*
X39195000Y-42505000D02*
X39195000Y-43100896D01*
X39195000Y-43100896D02*
X37445896Y-44850000D01*
%TO.N,/D7*%
X37595000Y-36827000D02*
X37595000Y-34165000D01*
X37500000Y-36922000D02*
X37595000Y-36827000D01*
%TO.N,/MOSI*%
X42485000Y-23985000D02*
X41039000Y-25431000D01*
X41039000Y-31406552D02*
X39590552Y-32855000D01*
X39590552Y-32855000D02*
X34735686Y-32855000D01*
X34735686Y-32855000D02*
X34395000Y-33195686D01*
X41039000Y-25431000D02*
X41039000Y-31406552D01*
X34395000Y-33195686D02*
X34395000Y-34165000D01*
%TO.N,/MISO*%
X35368683Y-31656317D02*
X33595000Y-33430000D01*
X45025000Y-26525000D02*
X41800000Y-29750000D01*
X33595000Y-33430000D02*
X33595000Y-34165000D01*
X41800000Y-29750000D02*
X41800000Y-30800000D01*
X35556317Y-31656317D02*
X35368683Y-31656317D01*
%TO.N,/RESET*%
X43167239Y-46379107D02*
X42302346Y-47244000D01*
X45850000Y-42750000D02*
X46200000Y-42400000D01*
X36576000Y-40894530D02*
X36576000Y-42286000D01*
X43167239Y-43995261D02*
X43167239Y-46379107D01*
X44412500Y-42750000D02*
X45850000Y-42750000D01*
X36576000Y-42286000D02*
X36795000Y-42505000D01*
X40894000Y-47244000D02*
X40894000Y-47150000D01*
X44412500Y-42750000D02*
X43167239Y-43995261D01*
X42302346Y-47244000D02*
X40894000Y-47244000D01*
%TO.N,Net-(U3-SQW{slash}~INT)*%
X53340000Y-31750000D02*
X52412500Y-31750000D01*
X56735000Y-21865000D02*
X56200000Y-22400000D01*
X57975000Y-21865000D02*
X56735000Y-21865000D01*
X52412500Y-31750000D02*
X52162500Y-32000000D01*
%TO.N,Net-(U3-~{INTA})*%
X53025000Y-23135000D02*
X54797500Y-23135000D01*
X54797500Y-23135000D02*
X58162500Y-26500000D01*
%TO.N,Net-(U3-X2)*%
X51054000Y-22851000D02*
X51054000Y-25296000D01*
X51054000Y-25296000D02*
X49250000Y-27100000D01*
X52040000Y-21865000D02*
X51054000Y-22851000D01*
X53025000Y-21865000D02*
X52040000Y-21865000D01*
%TO.N,Net-(U3-X1)*%
X50555000Y-20595000D02*
X53025000Y-20595000D01*
X49250000Y-21900000D02*
X50555000Y-20595000D01*
%TD*%
%TA.AperFunction,Conductor*%
%TO.N,/VCC*%
G36*
X65441979Y-17633342D02*
G01*
X65488016Y-17685900D01*
X65499500Y-17738016D01*
X65499500Y-47325500D01*
X65479815Y-47392539D01*
X65427011Y-47438294D01*
X65375500Y-47449500D01*
X55265237Y-47449500D01*
X55198198Y-47429815D01*
X55152443Y-47377011D01*
X55142499Y-47307853D01*
X55171524Y-47244297D01*
X55212832Y-47213118D01*
X55297578Y-47173600D01*
X55491082Y-47038105D01*
X55658105Y-46871082D01*
X55793600Y-46677578D01*
X55893429Y-46463492D01*
X55893432Y-46463486D01*
X55896644Y-46451500D01*
X57748500Y-46451500D01*
X59250500Y-46451500D01*
X59250500Y-45362016D01*
X57748500Y-45362016D01*
X57748500Y-46451500D01*
X55896644Y-46451500D01*
X55950636Y-46250000D01*
X55053012Y-46250000D01*
X55085925Y-46192993D01*
X55120000Y-46065826D01*
X55120000Y-45934174D01*
X55085925Y-45807007D01*
X55053012Y-45750000D01*
X55950636Y-45750000D01*
X55950635Y-45749999D01*
X55893432Y-45536513D01*
X55893429Y-45536507D01*
X55805363Y-45347648D01*
X60449500Y-45347648D01*
X60449500Y-45552351D01*
X60481522Y-45754534D01*
X60544781Y-45949223D01*
X60602746Y-46062984D01*
X60637118Y-46130443D01*
X60637715Y-46131613D01*
X60758028Y-46297213D01*
X60902786Y-46441971D01*
X61057749Y-46554556D01*
X61068390Y-46562287D01*
X61184607Y-46621503D01*
X61250776Y-46655218D01*
X61250778Y-46655218D01*
X61250781Y-46655220D01*
X61343681Y-46685405D01*
X61445465Y-46718477D01*
X61546557Y-46734488D01*
X61647648Y-46750500D01*
X61647649Y-46750500D01*
X61852351Y-46750500D01*
X61852352Y-46750500D01*
X62054534Y-46718477D01*
X62249219Y-46655220D01*
X62431610Y-46562287D01*
X62524590Y-46494732D01*
X62597213Y-46441971D01*
X62597215Y-46441968D01*
X62597219Y-46441966D01*
X62741966Y-46297219D01*
X62741968Y-46297215D01*
X62741971Y-46297213D01*
X62817690Y-46192993D01*
X62862287Y-46131610D01*
X62955220Y-45949219D01*
X63018477Y-45754534D01*
X63050500Y-45552352D01*
X63050500Y-45347648D01*
X63018477Y-45145466D01*
X62955220Y-44950781D01*
X62955218Y-44950778D01*
X62955218Y-44950776D01*
X62921503Y-44884607D01*
X62862287Y-44768390D01*
X62836144Y-44732407D01*
X62741971Y-44602786D01*
X62597213Y-44458028D01*
X62431613Y-44337715D01*
X62431612Y-44337714D01*
X62431610Y-44337713D01*
X62348482Y-44295357D01*
X62249223Y-44244781D01*
X62054534Y-44181522D01*
X61879995Y-44153878D01*
X61852352Y-44149500D01*
X61647648Y-44149500D01*
X61623329Y-44153351D01*
X61445465Y-44181522D01*
X61250776Y-44244781D01*
X61068386Y-44337715D01*
X60902786Y-44458028D01*
X60758028Y-44602786D01*
X60637715Y-44768386D01*
X60544781Y-44950776D01*
X60481522Y-45145465D01*
X60449500Y-45347648D01*
X55805363Y-45347648D01*
X55793600Y-45322422D01*
X55793599Y-45322420D01*
X55658113Y-45128926D01*
X55658108Y-45128920D01*
X55491082Y-44961894D01*
X55297578Y-44826399D01*
X55083492Y-44726570D01*
X55083486Y-44726567D01*
X54870000Y-44669364D01*
X54870000Y-45566988D01*
X54812993Y-45534075D01*
X54685826Y-45500000D01*
X54554174Y-45500000D01*
X54427007Y-45534075D01*
X54370000Y-45566988D01*
X54370000Y-44669364D01*
X54369999Y-44669364D01*
X54156513Y-44726567D01*
X54156507Y-44726570D01*
X53942422Y-44826399D01*
X53942420Y-44826400D01*
X53748926Y-44961886D01*
X53748920Y-44961891D01*
X53581891Y-45128920D01*
X53581890Y-45128922D01*
X53451880Y-45314595D01*
X53397303Y-45358219D01*
X53327804Y-45365412D01*
X53265450Y-45333890D01*
X53248730Y-45314594D01*
X53118494Y-45128597D01*
X52951402Y-44961506D01*
X52951395Y-44961501D01*
X52936085Y-44950781D01*
X52874518Y-44907671D01*
X52757834Y-44825967D01*
X52757830Y-44825965D01*
X52726737Y-44811466D01*
X52543663Y-44726097D01*
X52543659Y-44726096D01*
X52543655Y-44726094D01*
X52315413Y-44664938D01*
X52315403Y-44664936D01*
X52080001Y-44644341D01*
X52079999Y-44644341D01*
X51844596Y-44664936D01*
X51844586Y-44664938D01*
X51744126Y-44691856D01*
X51674276Y-44690193D01*
X51624352Y-44659762D01*
X51345601Y-44381011D01*
X51312116Y-44319688D01*
X51317100Y-44249996D01*
X51358972Y-44194063D01*
X51424436Y-44169646D01*
X51445879Y-44169971D01*
X51499991Y-44175500D01*
X52500008Y-44175499D01*
X52500016Y-44175498D01*
X52500019Y-44175498D01*
X52557306Y-44169646D01*
X52602797Y-44164999D01*
X52769334Y-44109814D01*
X52918656Y-44017712D01*
X53042712Y-43893656D01*
X53134814Y-43744334D01*
X53148051Y-43704386D01*
X60248500Y-43704386D01*
X60269492Y-43686455D01*
X60273257Y-43683365D01*
X60296416Y-43665106D01*
X60300304Y-43662163D01*
X60497642Y-43518790D01*
X60501637Y-43516005D01*
X60526131Y-43499639D01*
X60530233Y-43497014D01*
X60563656Y-43476533D01*
X60567856Y-43474071D01*
X60593552Y-43459681D01*
X60597845Y-43457386D01*
X60751501Y-43379094D01*
X62748500Y-43379094D01*
X62902155Y-43457386D01*
X62906448Y-43459681D01*
X62932144Y-43474071D01*
X62936344Y-43476533D01*
X62969767Y-43497014D01*
X62973869Y-43499639D01*
X62998363Y-43516005D01*
X63002358Y-43518790D01*
X63199696Y-43662163D01*
X63203584Y-43665106D01*
X63226743Y-43683365D01*
X63230508Y-43686455D01*
X63260315Y-43711916D01*
X63263954Y-43715150D01*
X63285559Y-43735124D01*
X63289063Y-43738494D01*
X63461506Y-43910937D01*
X63464876Y-43914441D01*
X63484850Y-43936046D01*
X63488084Y-43939685D01*
X63513545Y-43969492D01*
X63516635Y-43973257D01*
X63534894Y-43996416D01*
X63537837Y-44000304D01*
X63681210Y-44197642D01*
X63683995Y-44201637D01*
X63700361Y-44226131D01*
X63702986Y-44230233D01*
X63723467Y-44263656D01*
X63725929Y-44267856D01*
X63740319Y-44293552D01*
X63742614Y-44297845D01*
X63776330Y-44364016D01*
X64250500Y-44364016D01*
X64250500Y-42862016D01*
X62748500Y-42862016D01*
X62748500Y-43379094D01*
X60751501Y-43379094D01*
X60815173Y-43346651D01*
X60819557Y-43344525D01*
X60846333Y-43332182D01*
X60850800Y-43330228D01*
X60887016Y-43315230D01*
X60891547Y-43313457D01*
X60919156Y-43303273D01*
X60923750Y-43301680D01*
X61155717Y-43226308D01*
X61160380Y-43224894D01*
X61188759Y-43216891D01*
X61193478Y-43215660D01*
X61231597Y-43206512D01*
X61236348Y-43205470D01*
X61265211Y-43199730D01*
X61269999Y-43198875D01*
X61510875Y-43160723D01*
X61515699Y-43160055D01*
X61544933Y-43156595D01*
X61549770Y-43156119D01*
X61588849Y-43153041D01*
X61593714Y-43152754D01*
X61623166Y-43151596D01*
X61628038Y-43151500D01*
X61750500Y-43151500D01*
X61750500Y-42862016D01*
X60248500Y-42862016D01*
X60248500Y-43704386D01*
X53148051Y-43704386D01*
X53189999Y-43577797D01*
X53200500Y-43475009D01*
X53200499Y-42849992D01*
X53189999Y-42747203D01*
X53185506Y-42733646D01*
X53183103Y-42663820D01*
X53218833Y-42603777D01*
X53281353Y-42572583D01*
X53350813Y-42580141D01*
X53405159Y-42624053D01*
X53408750Y-42629543D01*
X53432682Y-42668343D01*
X53556654Y-42792315D01*
X53705875Y-42884356D01*
X53705880Y-42884358D01*
X53872302Y-42939505D01*
X53872309Y-42939506D01*
X53975019Y-42949999D01*
X54249999Y-42949999D01*
X54750000Y-42949999D01*
X55024972Y-42949999D01*
X55024986Y-42949998D01*
X55127697Y-42939505D01*
X55294119Y-42884358D01*
X55294124Y-42884356D01*
X55443345Y-42792315D01*
X55567315Y-42668345D01*
X55659356Y-42519124D01*
X55659358Y-42519119D01*
X55714505Y-42352697D01*
X55714506Y-42352690D01*
X55724999Y-42249986D01*
X55725000Y-42249973D01*
X55725000Y-42200000D01*
X54750000Y-42200000D01*
X54750000Y-42949999D01*
X54249999Y-42949999D01*
X54250000Y-42949998D01*
X54250000Y-42074000D01*
X54269685Y-42006961D01*
X54322489Y-41961206D01*
X54374000Y-41950000D01*
X54500000Y-41950000D01*
X54500000Y-41824000D01*
X54519685Y-41756961D01*
X54572489Y-41711206D01*
X54624000Y-41700000D01*
X55724999Y-41700000D01*
X55724999Y-41650028D01*
X55724998Y-41650008D01*
X55714505Y-41547302D01*
X55659358Y-41380880D01*
X55659356Y-41380875D01*
X55567315Y-41231654D01*
X55443344Y-41107683D01*
X55443341Y-41107681D01*
X55440339Y-41105829D01*
X55438713Y-41104021D01*
X55437677Y-41103202D01*
X55437817Y-41103024D01*
X55393617Y-41053880D01*
X55382397Y-40984917D01*
X55410243Y-40920836D01*
X55440344Y-40894754D01*
X55443656Y-40892712D01*
X55567712Y-40768656D01*
X55588839Y-40734402D01*
X55640787Y-40687679D01*
X55694378Y-40675500D01*
X56151623Y-40675500D01*
X56218662Y-40695185D01*
X56264417Y-40747989D01*
X56274361Y-40817147D01*
X56250889Y-40873812D01*
X56206647Y-40932910D01*
X56206645Y-40932913D01*
X56156403Y-41067620D01*
X56156401Y-41067627D01*
X56150000Y-41127155D01*
X56150000Y-41775000D01*
X57066988Y-41775000D01*
X57034075Y-41832007D01*
X57000000Y-41959174D01*
X57000000Y-42090826D01*
X57034075Y-42217993D01*
X57066988Y-42275000D01*
X56150000Y-42275000D01*
X56150000Y-42922844D01*
X56156401Y-42982372D01*
X56156403Y-42982379D01*
X56206645Y-43117086D01*
X56206649Y-43117093D01*
X56292809Y-43232187D01*
X56292812Y-43232190D01*
X56407906Y-43318350D01*
X56407913Y-43318354D01*
X56542620Y-43368596D01*
X56542627Y-43368598D01*
X56602155Y-43374999D01*
X56602172Y-43375000D01*
X57250000Y-43375000D01*
X57250000Y-42458012D01*
X57307007Y-42490925D01*
X57434174Y-42525000D01*
X57565826Y-42525000D01*
X57692993Y-42490925D01*
X57750000Y-42458012D01*
X57750000Y-43375000D01*
X58397828Y-43375000D01*
X58397844Y-43374999D01*
X58457372Y-43368598D01*
X58457379Y-43368596D01*
X58592086Y-43318354D01*
X58592093Y-43318350D01*
X58707187Y-43232190D01*
X58707190Y-43232187D01*
X58793350Y-43117093D01*
X58793354Y-43117086D01*
X58843596Y-42982379D01*
X58843598Y-42982372D01*
X58849999Y-42922844D01*
X58850000Y-42922827D01*
X58850000Y-42275000D01*
X57933012Y-42275000D01*
X57965925Y-42217993D01*
X58000000Y-42090826D01*
X58000000Y-41959174D01*
X57974502Y-41864016D01*
X60248500Y-41864016D01*
X61750500Y-41864016D01*
X62748500Y-41864016D01*
X64250500Y-41864016D01*
X64250500Y-40362016D01*
X62748500Y-40362016D01*
X62748500Y-41864016D01*
X61750500Y-41864016D01*
X61750500Y-40362016D01*
X60248500Y-40362016D01*
X60248500Y-41864016D01*
X57974502Y-41864016D01*
X57965925Y-41832007D01*
X57933012Y-41775000D01*
X58850000Y-41775000D01*
X58850000Y-41127172D01*
X58849999Y-41127155D01*
X58843598Y-41067627D01*
X58843596Y-41067620D01*
X58793354Y-40932913D01*
X58793350Y-40932906D01*
X58707190Y-40817812D01*
X58707187Y-40817809D01*
X58592093Y-40731649D01*
X58592088Y-40731646D01*
X58460528Y-40682577D01*
X58404595Y-40640705D01*
X58380178Y-40575241D01*
X58395030Y-40506968D01*
X58416175Y-40478720D01*
X58538495Y-40356401D01*
X58674035Y-40162830D01*
X58773903Y-39948663D01*
X58835063Y-39720408D01*
X58855659Y-39485000D01*
X58845074Y-39364016D01*
X60248500Y-39364016D01*
X61750500Y-39364016D01*
X62748500Y-39364016D01*
X64250500Y-39364016D01*
X64250500Y-37862016D01*
X62748500Y-37862016D01*
X62748500Y-39364016D01*
X61750500Y-39364016D01*
X61750500Y-38050020D01*
X61748205Y-38050744D01*
X61743008Y-38052259D01*
X61472666Y-38124695D01*
X61467412Y-38125981D01*
X61435454Y-38133066D01*
X61430146Y-38134121D01*
X61387251Y-38141684D01*
X61381904Y-38142507D01*
X61349461Y-38146778D01*
X61344084Y-38147367D01*
X61065287Y-38171759D01*
X61059890Y-38172113D01*
X61027190Y-38173541D01*
X61021780Y-38173659D01*
X60978220Y-38173659D01*
X60972810Y-38173541D01*
X60940110Y-38172113D01*
X60934713Y-38171759D01*
X60655916Y-38147367D01*
X60650539Y-38146778D01*
X60618096Y-38142507D01*
X60612749Y-38141684D01*
X60569854Y-38134121D01*
X60564546Y-38133066D01*
X60532588Y-38125981D01*
X60527334Y-38124695D01*
X60256992Y-38052259D01*
X60251795Y-38050744D01*
X60248500Y-38049705D01*
X60248500Y-39364016D01*
X58845074Y-39364016D01*
X58835063Y-39249592D01*
X58779351Y-39041669D01*
X58773905Y-39021344D01*
X58773904Y-39021343D01*
X58773903Y-39021337D01*
X58674035Y-38807171D01*
X58666638Y-38796606D01*
X58538494Y-38613597D01*
X58371402Y-38446506D01*
X58371395Y-38446501D01*
X58177834Y-38310967D01*
X58177830Y-38310965D01*
X58089290Y-38269678D01*
X57963663Y-38211097D01*
X57963659Y-38211096D01*
X57963655Y-38211094D01*
X57735413Y-38149938D01*
X57735403Y-38149936D01*
X57500001Y-38129341D01*
X57499999Y-38129341D01*
X57264596Y-38149936D01*
X57264586Y-38149938D01*
X57036344Y-38211094D01*
X57036335Y-38211098D01*
X56822171Y-38310964D01*
X56822169Y-38310965D01*
X56628597Y-38446505D01*
X56461505Y-38613597D01*
X56325965Y-38807169D01*
X56325964Y-38807171D01*
X56226098Y-39021335D01*
X56226094Y-39021344D01*
X56164938Y-39249586D01*
X56164936Y-39249596D01*
X56159537Y-39311309D01*
X56134084Y-39376377D01*
X56077493Y-39417355D01*
X56036009Y-39424500D01*
X55694378Y-39424500D01*
X55627339Y-39404815D01*
X55588839Y-39365597D01*
X55587864Y-39364016D01*
X55567712Y-39331344D01*
X55443656Y-39207288D01*
X55312932Y-39126657D01*
X55294336Y-39115187D01*
X55294331Y-39115185D01*
X55292862Y-39114698D01*
X55127797Y-39060001D01*
X55127795Y-39060000D01*
X55025016Y-39049500D01*
X55025009Y-39049500D01*
X54435454Y-39049500D01*
X54368415Y-39029815D01*
X54347773Y-39013181D01*
X54261235Y-38926643D01*
X54217975Y-38897738D01*
X54196722Y-38883537D01*
X54196723Y-38883537D01*
X54196721Y-38883535D01*
X54158790Y-38858190D01*
X54158787Y-38858188D01*
X54158786Y-38858188D01*
X54062281Y-38818215D01*
X54062278Y-38818213D01*
X54062277Y-38818213D01*
X54044958Y-38811039D01*
X54044954Y-38811037D01*
X54044952Y-38811037D01*
X54044948Y-38811036D01*
X54044944Y-38811035D01*
X53972399Y-38796605D01*
X53972398Y-38796605D01*
X53924111Y-38787000D01*
X53924107Y-38787000D01*
X53924106Y-38787000D01*
X53177088Y-38787000D01*
X53110049Y-38767315D01*
X53071549Y-38728097D01*
X53071144Y-38727440D01*
X53042712Y-38681344D01*
X52949049Y-38587681D01*
X52915564Y-38526358D01*
X52920548Y-38456666D01*
X52949049Y-38412319D01*
X52954760Y-38406608D01*
X53042712Y-38318656D01*
X53134814Y-38169334D01*
X53189999Y-38002797D01*
X53200500Y-37900009D01*
X53200499Y-37274992D01*
X53189999Y-37172203D01*
X53134814Y-37005666D01*
X53047444Y-36864016D01*
X55248500Y-36864016D01*
X56750500Y-36864016D01*
X57748500Y-36864016D01*
X58895549Y-36864016D01*
X58812402Y-36685708D01*
X58810223Y-36680756D01*
X58797705Y-36650535D01*
X58795747Y-36645500D01*
X58780846Y-36604568D01*
X58779105Y-36599440D01*
X58769256Y-36568205D01*
X58767741Y-36563008D01*
X58695305Y-36292666D01*
X58694019Y-36287412D01*
X58686934Y-36255454D01*
X58685879Y-36250146D01*
X58678316Y-36207251D01*
X58677493Y-36201904D01*
X58673222Y-36169461D01*
X58672633Y-36164084D01*
X58648241Y-35885287D01*
X58647887Y-35879890D01*
X58646459Y-35847190D01*
X58646341Y-35841780D01*
X58646341Y-35798220D01*
X58646459Y-35792810D01*
X58647887Y-35760110D01*
X58648241Y-35754713D01*
X58650320Y-35730939D01*
X58580381Y-35661000D01*
X57748500Y-35661000D01*
X57748500Y-36864016D01*
X56750500Y-36864016D01*
X56750500Y-35661000D01*
X55248500Y-35661000D01*
X55248500Y-36864016D01*
X53047444Y-36864016D01*
X53042712Y-36856344D01*
X53025879Y-36839511D01*
X52992394Y-36778188D01*
X52997378Y-36708496D01*
X53025881Y-36664147D01*
X53044026Y-36646003D01*
X53135362Y-36497925D01*
X53190087Y-36332775D01*
X53200500Y-36230848D01*
X53200500Y-35644152D01*
X53190087Y-35542225D01*
X53135362Y-35377075D01*
X53135358Y-35377069D01*
X53135357Y-35377066D01*
X53044028Y-35229000D01*
X53044025Y-35228996D01*
X52921004Y-35105975D01*
X52921003Y-35105974D01*
X52920301Y-35105541D01*
X52919921Y-35105118D01*
X52915336Y-35101493D01*
X52915955Y-35100709D01*
X52873575Y-35053598D01*
X52862349Y-34984636D01*
X52890188Y-34920552D01*
X52915455Y-34898657D01*
X52915336Y-34898507D01*
X52918687Y-34895856D01*
X52920299Y-34894459D01*
X52921003Y-34894026D01*
X53044026Y-34771003D01*
X53063263Y-34739815D01*
X53074312Y-34721903D01*
X53126260Y-34675178D01*
X53179850Y-34663000D01*
X58942403Y-34663000D01*
X59009442Y-34682685D01*
X59030084Y-34699319D01*
X59667233Y-35336468D01*
X59700718Y-35397791D01*
X59699327Y-35456241D01*
X59664939Y-35584583D01*
X59664936Y-35584596D01*
X59644341Y-35819999D01*
X59644341Y-35820000D01*
X59664936Y-36055403D01*
X59664938Y-36055413D01*
X59726094Y-36283655D01*
X59726096Y-36283659D01*
X59726097Y-36283663D01*
X59778580Y-36396213D01*
X59825963Y-36497826D01*
X59825967Y-36497834D01*
X59887002Y-36585000D01*
X59961505Y-36691401D01*
X60128599Y-36858495D01*
X60190972Y-36902169D01*
X60322165Y-36994032D01*
X60322167Y-36994033D01*
X60322170Y-36994035D01*
X60536337Y-37093903D01*
X60536343Y-37093904D01*
X60536344Y-37093905D01*
X60563775Y-37101255D01*
X60764592Y-37155063D01*
X60952918Y-37171539D01*
X60999999Y-37175659D01*
X61000000Y-37175659D01*
X61000001Y-37175659D01*
X61039536Y-37172200D01*
X61235408Y-37155063D01*
X61463663Y-37093903D01*
X61677830Y-36994035D01*
X61863516Y-36864016D01*
X63104451Y-36864016D01*
X64250500Y-36864016D01*
X64250500Y-35362016D01*
X63718602Y-35362016D01*
X63349678Y-35730938D01*
X63351759Y-35754712D01*
X63352113Y-35760110D01*
X63353541Y-35792810D01*
X63353659Y-35798220D01*
X63353659Y-35841780D01*
X63353541Y-35847190D01*
X63352113Y-35879890D01*
X63351759Y-35885287D01*
X63327367Y-36164084D01*
X63326778Y-36169461D01*
X63322507Y-36201904D01*
X63321684Y-36207251D01*
X63314121Y-36250146D01*
X63313066Y-36255454D01*
X63305981Y-36287412D01*
X63304695Y-36292666D01*
X63232259Y-36563008D01*
X63230744Y-36568205D01*
X63220895Y-36599440D01*
X63219154Y-36604568D01*
X63204253Y-36645500D01*
X63202295Y-36650535D01*
X63189777Y-36680756D01*
X63187598Y-36685708D01*
X63104451Y-36864016D01*
X61863516Y-36864016D01*
X61871401Y-36858495D01*
X62038495Y-36691401D01*
X62174035Y-36497830D01*
X62273903Y-36283663D01*
X62335063Y-36055408D01*
X62355659Y-35820000D01*
X62353753Y-35798220D01*
X62335063Y-35584596D01*
X62335063Y-35584592D01*
X62300671Y-35456239D01*
X62302334Y-35386393D01*
X62332763Y-35336470D01*
X63726520Y-33942716D01*
X63805577Y-33805784D01*
X63846501Y-33653057D01*
X63846501Y-33494942D01*
X63846501Y-33487347D01*
X63846500Y-33487329D01*
X63846500Y-26759059D01*
X63846501Y-26759046D01*
X63846501Y-26590945D01*
X63846501Y-26590943D01*
X63805577Y-26438215D01*
X63758582Y-26356818D01*
X63726520Y-26301284D01*
X63614716Y-26189480D01*
X63614715Y-26189479D01*
X63610385Y-26185149D01*
X63610374Y-26185139D01*
X61742810Y-24317575D01*
X63154194Y-24317575D01*
X63200635Y-24364016D01*
X64250500Y-24364016D01*
X64250500Y-23336677D01*
X64242614Y-23352155D01*
X64240319Y-23356448D01*
X64225929Y-23382144D01*
X64223467Y-23386344D01*
X64202986Y-23419767D01*
X64200361Y-23423869D01*
X64183995Y-23448363D01*
X64181210Y-23452358D01*
X64037837Y-23649696D01*
X64034894Y-23653584D01*
X64016635Y-23676743D01*
X64013545Y-23680508D01*
X63988084Y-23710315D01*
X63984850Y-23713954D01*
X63964876Y-23735559D01*
X63961506Y-23739063D01*
X63789063Y-23911506D01*
X63785559Y-23914876D01*
X63763954Y-23934850D01*
X63760315Y-23938084D01*
X63730508Y-23963545D01*
X63726743Y-23966635D01*
X63703584Y-23984894D01*
X63699696Y-23987837D01*
X63502358Y-24131210D01*
X63498363Y-24133995D01*
X63473869Y-24150361D01*
X63469767Y-24152986D01*
X63436344Y-24173467D01*
X63432144Y-24175929D01*
X63406448Y-24190319D01*
X63402155Y-24192614D01*
X63184827Y-24303349D01*
X63180443Y-24305475D01*
X63154194Y-24317575D01*
X61742810Y-24317575D01*
X60198590Y-22773355D01*
X60198588Y-22773352D01*
X60079717Y-22654481D01*
X60079709Y-22654475D01*
X59956143Y-22583135D01*
X59956140Y-22583134D01*
X59942785Y-22575423D01*
X59896381Y-22562989D01*
X59790057Y-22534499D01*
X59631943Y-22534499D01*
X59624347Y-22534499D01*
X59624331Y-22534500D01*
X59507721Y-22534500D01*
X59440682Y-22514815D01*
X59394927Y-22462011D01*
X59384983Y-22392853D01*
X59393160Y-22363047D01*
X59399177Y-22348521D01*
X59445719Y-22236159D01*
X59460500Y-22123887D01*
X59460500Y-22097648D01*
X60949500Y-22097648D01*
X60949500Y-22302351D01*
X60981522Y-22504534D01*
X61044781Y-22699223D01*
X61137715Y-22881613D01*
X61258028Y-23047213D01*
X61402786Y-23191971D01*
X61557749Y-23304556D01*
X61568390Y-23312287D01*
X61655061Y-23356448D01*
X61750776Y-23405218D01*
X61750778Y-23405218D01*
X61750781Y-23405220D01*
X61808177Y-23423869D01*
X61945465Y-23468477D01*
X62046557Y-23484488D01*
X62147648Y-23500500D01*
X62147649Y-23500500D01*
X62352351Y-23500500D01*
X62352352Y-23500500D01*
X62554534Y-23468477D01*
X62749219Y-23405220D01*
X62931610Y-23312287D01*
X63076455Y-23207052D01*
X63097213Y-23191971D01*
X63097215Y-23191968D01*
X63097219Y-23191966D01*
X63241966Y-23047219D01*
X63241968Y-23047215D01*
X63241971Y-23047213D01*
X63294732Y-22974590D01*
X63362287Y-22881610D01*
X63455220Y-22699219D01*
X63518477Y-22504534D01*
X63550500Y-22302352D01*
X63550500Y-22097648D01*
X63522693Y-21922084D01*
X63518477Y-21895465D01*
X63455218Y-21700776D01*
X63410245Y-21612513D01*
X63362287Y-21518390D01*
X63344448Y-21493837D01*
X63241971Y-21352786D01*
X63097213Y-21208028D01*
X62931613Y-21087715D01*
X62931612Y-21087714D01*
X62931610Y-21087713D01*
X62862263Y-21052379D01*
X62749223Y-20994781D01*
X62554534Y-20931522D01*
X62379995Y-20903878D01*
X62352352Y-20899500D01*
X62147648Y-20899500D01*
X62123329Y-20903351D01*
X61945465Y-20931522D01*
X61750776Y-20994781D01*
X61568386Y-21087715D01*
X61402786Y-21208028D01*
X61258028Y-21352786D01*
X61137715Y-21518386D01*
X61044781Y-21700776D01*
X60981522Y-21895465D01*
X60949500Y-22097648D01*
X59460500Y-22097648D01*
X59460499Y-21606114D01*
X59460060Y-21602783D01*
X59445720Y-21493848D01*
X59445719Y-21493847D01*
X59445719Y-21493841D01*
X59387856Y-21354147D01*
X59381957Y-21346459D01*
X59350202Y-21305075D01*
X59325008Y-21239906D01*
X59339046Y-21171461D01*
X59350203Y-21154101D01*
X59387421Y-21105598D01*
X59445230Y-20966032D01*
X59445231Y-20966028D01*
X59459999Y-20853863D01*
X59460000Y-20853849D01*
X59460000Y-20845000D01*
X56490000Y-20845000D01*
X56490000Y-20853863D01*
X56504768Y-20966028D01*
X56504769Y-20966032D01*
X56562578Y-21105599D01*
X56562580Y-21105601D01*
X56566662Y-21110921D01*
X56591856Y-21176091D01*
X56577817Y-21244535D01*
X56529003Y-21294525D01*
X56510603Y-21302019D01*
X56510725Y-21302312D01*
X56503216Y-21305422D01*
X56489860Y-21313134D01*
X56489857Y-21313135D01*
X56366290Y-21384475D01*
X56366282Y-21384481D01*
X56305765Y-21444999D01*
X56254480Y-21496284D01*
X56254478Y-21496286D01*
X56181465Y-21569299D01*
X56120141Y-21602783D01*
X56107668Y-21604837D01*
X56020750Y-21614630D01*
X55850478Y-21674210D01*
X55697737Y-21770184D01*
X55570184Y-21897737D01*
X55474211Y-22050476D01*
X55414631Y-22220745D01*
X55414630Y-22220750D01*
X55394435Y-22399996D01*
X55394435Y-22400003D01*
X55415411Y-22586175D01*
X55414123Y-22586320D01*
X55410292Y-22648741D01*
X55368986Y-22705094D01*
X55303771Y-22730170D01*
X55235352Y-22716007D01*
X55205998Y-22694262D01*
X55166217Y-22654481D01*
X55166209Y-22654475D01*
X55042643Y-22583135D01*
X55042640Y-22583134D01*
X55029285Y-22575423D01*
X54982881Y-22562989D01*
X54876557Y-22534499D01*
X54718443Y-22534499D01*
X54710847Y-22534499D01*
X54710831Y-22534500D01*
X54557721Y-22534500D01*
X54490682Y-22514815D01*
X54444927Y-22462011D01*
X54434983Y-22392853D01*
X54443160Y-22363047D01*
X54449177Y-22348521D01*
X54495719Y-22236159D01*
X54510500Y-22123887D01*
X54510499Y-21606114D01*
X54510060Y-21602783D01*
X54495720Y-21493848D01*
X54495719Y-21493847D01*
X54495719Y-21493841D01*
X54450421Y-21384481D01*
X54437856Y-21354146D01*
X54400518Y-21305487D01*
X54375323Y-21240318D01*
X54389361Y-21171873D01*
X54400518Y-21154513D01*
X54437856Y-21105853D01*
X54454985Y-21064500D01*
X54495719Y-20966159D01*
X54510500Y-20853887D01*
X54510499Y-20336136D01*
X56490000Y-20336136D01*
X56490000Y-20345000D01*
X57725000Y-20345000D01*
X58225000Y-20345000D01*
X59460000Y-20345000D01*
X59460000Y-20336150D01*
X59459999Y-20336136D01*
X59445231Y-20223971D01*
X59445230Y-20223967D01*
X59387421Y-20084401D01*
X59295452Y-19964547D01*
X59175598Y-19872578D01*
X59036032Y-19814769D01*
X59036028Y-19814768D01*
X58923863Y-19800000D01*
X58225000Y-19800000D01*
X58225000Y-20345000D01*
X57725000Y-20345000D01*
X57725000Y-19800000D01*
X57026136Y-19800000D01*
X56913971Y-19814768D01*
X56913967Y-19814769D01*
X56774401Y-19872578D01*
X56654547Y-19964547D01*
X56562578Y-20084401D01*
X56504769Y-20223967D01*
X56504768Y-20223971D01*
X56490000Y-20336136D01*
X54510499Y-20336136D01*
X54510499Y-20336114D01*
X54501922Y-20270964D01*
X54495720Y-20223848D01*
X54495719Y-20223847D01*
X54495719Y-20223841D01*
X54445299Y-20102116D01*
X54437857Y-20084149D01*
X54437856Y-20084148D01*
X54437856Y-20084147D01*
X54345810Y-19964190D01*
X54225853Y-19872144D01*
X54225852Y-19872143D01*
X54225850Y-19872142D01*
X54086162Y-19814282D01*
X54086160Y-19814281D01*
X54086159Y-19814281D01*
X53973887Y-19799500D01*
X52076111Y-19799500D01*
X51963848Y-19814279D01*
X51963837Y-19814282D01*
X51824147Y-19872143D01*
X51698083Y-19968876D01*
X51632914Y-19994070D01*
X51622597Y-19994500D01*
X51012277Y-19994500D01*
X50945238Y-19974815D01*
X50899483Y-19922011D01*
X50896094Y-19913830D01*
X50893797Y-19907670D01*
X50893793Y-19907664D01*
X50807547Y-19792455D01*
X50807544Y-19792452D01*
X50692335Y-19706206D01*
X50692328Y-19706202D01*
X50557482Y-19655908D01*
X50557483Y-19655908D01*
X50497883Y-19649501D01*
X50497881Y-19649500D01*
X50497873Y-19649500D01*
X50497864Y-19649500D01*
X48002129Y-19649500D01*
X48002123Y-19649501D01*
X47942516Y-19655908D01*
X47807671Y-19706202D01*
X47807664Y-19706206D01*
X47692455Y-19792452D01*
X47692452Y-19792455D01*
X47606206Y-19907664D01*
X47606202Y-19907671D01*
X47555908Y-20042517D01*
X47549501Y-20102116D01*
X47549500Y-20102135D01*
X47549500Y-23697870D01*
X47549501Y-23697881D01*
X47552408Y-23724923D01*
X47540000Y-23793682D01*
X47492388Y-23844818D01*
X47424688Y-23862095D01*
X47358395Y-23840028D01*
X47341437Y-23825855D01*
X46035419Y-22519838D01*
X46001934Y-22458515D01*
X46006918Y-22388823D01*
X46035416Y-22344479D01*
X46063495Y-22316401D01*
X46199035Y-22122830D01*
X46298903Y-21908663D01*
X46360063Y-21680408D01*
X46380659Y-21445000D01*
X46360063Y-21209592D01*
X46306783Y-21010745D01*
X46298905Y-20981344D01*
X46298904Y-20981343D01*
X46298903Y-20981337D01*
X46199035Y-20767171D01*
X46063495Y-20573599D01*
X46063494Y-20573597D01*
X45896402Y-20406506D01*
X45896395Y-20406501D01*
X45702834Y-20270967D01*
X45702830Y-20270965D01*
X45602051Y-20223971D01*
X45488663Y-20171097D01*
X45488659Y-20171096D01*
X45488655Y-20171094D01*
X45260413Y-20109938D01*
X45260403Y-20109936D01*
X45025001Y-20089341D01*
X45024999Y-20089341D01*
X44789596Y-20109936D01*
X44789586Y-20109938D01*
X44561344Y-20171094D01*
X44561335Y-20171098D01*
X44347171Y-20270964D01*
X44347169Y-20270965D01*
X44153594Y-20406508D01*
X44153190Y-20406847D01*
X44152976Y-20406940D01*
X44149164Y-20409610D01*
X44148627Y-20408843D01*
X44089178Y-20434850D01*
X44020187Y-20423800D01*
X43985818Y-20399526D01*
X43010284Y-19423992D01*
X43010282Y-19423989D01*
X42891411Y-19305118D01*
X42891410Y-19305117D01*
X42804598Y-19254997D01*
X42804598Y-19254996D01*
X42804594Y-19254995D01*
X42754479Y-19226060D01*
X42601751Y-19185136D01*
X42443637Y-19185136D01*
X42436041Y-19185136D01*
X42436025Y-19185137D01*
X42283420Y-19185137D01*
X42125305Y-19185137D01*
X41972578Y-19226060D01*
X41972577Y-19226060D01*
X41972575Y-19226061D01*
X41972572Y-19226062D01*
X41922459Y-19254996D01*
X41922458Y-19254997D01*
X41879052Y-19280057D01*
X41835648Y-19305116D01*
X41835645Y-19305118D01*
X41723841Y-19416923D01*
X40829389Y-20311374D01*
X40768066Y-20344859D01*
X40698374Y-20339875D01*
X40642441Y-20298003D01*
X40622631Y-20258288D01*
X40601281Y-20184801D01*
X40517685Y-20043447D01*
X40517678Y-20043438D01*
X40401561Y-19927321D01*
X40401552Y-19927314D01*
X40260196Y-19843717D01*
X40260193Y-19843716D01*
X40102495Y-19797900D01*
X40102489Y-19797899D01*
X40065649Y-19795000D01*
X39600000Y-19795000D01*
X39600000Y-20471000D01*
X39580315Y-20538039D01*
X39527511Y-20583794D01*
X39476000Y-20595000D01*
X39350000Y-20595000D01*
X39350000Y-20721000D01*
X39330315Y-20788039D01*
X39277511Y-20833794D01*
X39226000Y-20845000D01*
X38052705Y-20845000D01*
X38052704Y-20845001D01*
X38052899Y-20847486D01*
X38098718Y-21005198D01*
X38126621Y-21052379D01*
X38143804Y-21120103D01*
X38121644Y-21186365D01*
X38067178Y-21230129D01*
X38019889Y-21239500D01*
X34905006Y-21239500D01*
X34789133Y-21262549D01*
X34789128Y-21262550D01*
X34784170Y-21263535D01*
X34784165Y-21263537D01*
X34670334Y-21310687D01*
X34616799Y-21346459D01*
X34616798Y-21346459D01*
X34567888Y-21379139D01*
X34567880Y-21379145D01*
X33631989Y-22315036D01*
X33570666Y-22348521D01*
X33500974Y-22343537D01*
X33445041Y-22301665D01*
X33420624Y-22236201D01*
X33425232Y-22192759D01*
X33447099Y-22117491D01*
X33447100Y-22117488D01*
X33447295Y-22115001D01*
X33447295Y-22115000D01*
X32400000Y-22115000D01*
X32400000Y-23011000D01*
X32380315Y-23078039D01*
X32327511Y-23123794D01*
X32276000Y-23135000D01*
X32150000Y-23135000D01*
X32150000Y-23261000D01*
X32130315Y-23328039D01*
X32077511Y-23373794D01*
X32026000Y-23385000D01*
X30852705Y-23385000D01*
X30852704Y-23385001D01*
X30852899Y-23387488D01*
X30862606Y-23420899D01*
X30862405Y-23490769D01*
X30824463Y-23549438D01*
X30760824Y-23578281D01*
X30717748Y-23576783D01*
X30615553Y-23555061D01*
X30589391Y-23549500D01*
X30410609Y-23549500D01*
X30384447Y-23555061D01*
X30235733Y-23586670D01*
X30235728Y-23586672D01*
X30072408Y-23659387D01*
X29927768Y-23764475D01*
X29808140Y-23897336D01*
X29718750Y-24052164D01*
X29718747Y-24052170D01*
X29663504Y-24222192D01*
X29663503Y-24222194D01*
X29644815Y-24400000D01*
X29663503Y-24577805D01*
X29663504Y-24577806D01*
X29696031Y-24677913D01*
X29702100Y-24716231D01*
X29702100Y-28365500D01*
X29682415Y-28432539D01*
X29629611Y-28478294D01*
X29578100Y-28489500D01*
X28533392Y-28489500D01*
X28516337Y-28492892D01*
X28499282Y-28496285D01*
X28433322Y-28509405D01*
X28412547Y-28513537D01*
X28298717Y-28560687D01*
X28256938Y-28588603D01*
X28190260Y-28609480D01*
X28188048Y-28609500D01*
X26852129Y-28609500D01*
X26852123Y-28609501D01*
X26792516Y-28615908D01*
X26657671Y-28666202D01*
X26657664Y-28666206D01*
X26542455Y-28752452D01*
X26542452Y-28752455D01*
X26456206Y-28867664D01*
X26456202Y-28867671D01*
X26405908Y-29002517D01*
X26399501Y-29062116D01*
X26399500Y-29062135D01*
X26399500Y-30857870D01*
X26399501Y-30857876D01*
X26405908Y-30917483D01*
X26456202Y-31052328D01*
X26456206Y-31052335D01*
X26542452Y-31167544D01*
X26542455Y-31167547D01*
X26657664Y-31253793D01*
X26657671Y-31253797D01*
X26657674Y-31253798D01*
X26789598Y-31303002D01*
X26845531Y-31344873D01*
X26869949Y-31410337D01*
X26855098Y-31478610D01*
X26833947Y-31506865D01*
X26711886Y-31628926D01*
X26576400Y-31822420D01*
X26576399Y-31822422D01*
X26476570Y-32036507D01*
X26476567Y-32036513D01*
X26419364Y-32249999D01*
X26419364Y-32250000D01*
X27316988Y-32250000D01*
X27284075Y-32307007D01*
X27250000Y-32434174D01*
X27250000Y-32565826D01*
X27284075Y-32692993D01*
X27316988Y-32750000D01*
X26419364Y-32750000D01*
X26476567Y-32963486D01*
X26476570Y-32963492D01*
X26576399Y-33177578D01*
X26711894Y-33371082D01*
X26878917Y-33538105D01*
X27064595Y-33668119D01*
X27108219Y-33722696D01*
X27115412Y-33792195D01*
X27083890Y-33854549D01*
X27064595Y-33871269D01*
X26878594Y-34001508D01*
X26711505Y-34168597D01*
X26575965Y-34362169D01*
X26575964Y-34362171D01*
X26476098Y-34576335D01*
X26476094Y-34576344D01*
X26414938Y-34804586D01*
X26414936Y-34804596D01*
X26394341Y-35039999D01*
X26394341Y-35040000D01*
X26414936Y-35275403D01*
X26414938Y-35275413D01*
X26449327Y-35403756D01*
X26447664Y-35473606D01*
X26417233Y-35523530D01*
X25793286Y-36147478D01*
X25681481Y-36259282D01*
X25681479Y-36259284D01*
X25662929Y-36291416D01*
X25651911Y-36310500D01*
X25602423Y-36396215D01*
X25561499Y-36548943D01*
X25561499Y-36548945D01*
X25561499Y-36717046D01*
X25561500Y-36717059D01*
X25561500Y-41285074D01*
X25561499Y-41285092D01*
X25561499Y-41450798D01*
X25561498Y-41450798D01*
X25602423Y-41603529D01*
X25625844Y-41644096D01*
X25629258Y-41650008D01*
X25665955Y-41713569D01*
X25681479Y-41740458D01*
X25681481Y-41740461D01*
X25800349Y-41859329D01*
X25800355Y-41859334D01*
X27837588Y-43896567D01*
X27871073Y-43957890D01*
X27866089Y-44027582D01*
X27824217Y-44083515D01*
X27822305Y-44084813D01*
X27822331Y-44084849D01*
X27652786Y-44208028D01*
X27508028Y-44352786D01*
X27387715Y-44518386D01*
X27294781Y-44700776D01*
X27231522Y-44895465D01*
X27199500Y-45097648D01*
X27199500Y-45302351D01*
X27231522Y-45504534D01*
X27294781Y-45699223D01*
X27387715Y-45881613D01*
X27508028Y-46047213D01*
X27652786Y-46191971D01*
X27807749Y-46304556D01*
X27818390Y-46312287D01*
X27905061Y-46356448D01*
X28000776Y-46405218D01*
X28000778Y-46405218D01*
X28000781Y-46405220D01*
X28058177Y-46423869D01*
X28195465Y-46468477D01*
X28296557Y-46484488D01*
X28397648Y-46500500D01*
X28397649Y-46500500D01*
X28602351Y-46500500D01*
X28602352Y-46500500D01*
X28804534Y-46468477D01*
X28856784Y-46451500D01*
X30431808Y-46451500D01*
X31750500Y-46451500D01*
X31750500Y-45362016D01*
X30796891Y-45362016D01*
X30793881Y-45400230D01*
X30793405Y-45405067D01*
X30789945Y-45434301D01*
X30789277Y-45439125D01*
X30751125Y-45680001D01*
X30750270Y-45684789D01*
X30744530Y-45713652D01*
X30743488Y-45718403D01*
X30734340Y-45756522D01*
X30733109Y-45761241D01*
X30725106Y-45789620D01*
X30723692Y-45794283D01*
X30648320Y-46026250D01*
X30646727Y-46030844D01*
X30636543Y-46058453D01*
X30634770Y-46062984D01*
X30619772Y-46099200D01*
X30617818Y-46103667D01*
X30605475Y-46130443D01*
X30603349Y-46134827D01*
X30492614Y-46352155D01*
X30490319Y-46356448D01*
X30475929Y-46382144D01*
X30473467Y-46386344D01*
X30452986Y-46419767D01*
X30450361Y-46423869D01*
X30433995Y-46448363D01*
X30431808Y-46451500D01*
X28856784Y-46451500D01*
X28999219Y-46405220D01*
X29181610Y-46312287D01*
X29294436Y-46230315D01*
X29347213Y-46191971D01*
X29347215Y-46191968D01*
X29347219Y-46191966D01*
X29491966Y-46047219D01*
X29491968Y-46047215D01*
X29491971Y-46047213D01*
X29544732Y-45974590D01*
X29612287Y-45881610D01*
X29705220Y-45699219D01*
X29768477Y-45504534D01*
X29800500Y-45302352D01*
X29800500Y-45097648D01*
X29768477Y-44895466D01*
X29745894Y-44825964D01*
X29727186Y-44768386D01*
X29705220Y-44700781D01*
X29705218Y-44700778D01*
X29705218Y-44700776D01*
X29662442Y-44616825D01*
X29612287Y-44518390D01*
X29604556Y-44507749D01*
X29491971Y-44352786D01*
X29491366Y-44352181D01*
X29491210Y-44351896D01*
X29488809Y-44349085D01*
X29489399Y-44348580D01*
X29457881Y-44290858D01*
X29462865Y-44221166D01*
X29504737Y-44165233D01*
X29570201Y-44140816D01*
X29579047Y-44140500D01*
X35015114Y-44140500D01*
X35082153Y-44160185D01*
X35127908Y-44212989D01*
X35137852Y-44282147D01*
X35108827Y-44345703D01*
X35087072Y-44363666D01*
X35087735Y-44364530D01*
X35081282Y-44369481D01*
X34837582Y-44613181D01*
X34776259Y-44646666D01*
X34749901Y-44649500D01*
X33402129Y-44649500D01*
X33402123Y-44649501D01*
X33342516Y-44655908D01*
X33207671Y-44706202D01*
X33207664Y-44706206D01*
X33092455Y-44792452D01*
X33092452Y-44792455D01*
X33006206Y-44907664D01*
X33006202Y-44907671D01*
X32955908Y-45042517D01*
X32949501Y-45102116D01*
X32949500Y-45102135D01*
X32949500Y-46897870D01*
X32949501Y-46897876D01*
X32955908Y-46957483D01*
X33006202Y-47092328D01*
X33006206Y-47092335D01*
X33092452Y-47207544D01*
X33092453Y-47207544D01*
X33092454Y-47207546D01*
X33117418Y-47226234D01*
X33159288Y-47282168D01*
X33164272Y-47351860D01*
X33130786Y-47413182D01*
X33069462Y-47446667D01*
X33043106Y-47449500D01*
X25124500Y-47449500D01*
X25057461Y-47429815D01*
X25011706Y-47377011D01*
X25000500Y-47325500D01*
X25000500Y-26864016D01*
X26007809Y-26864016D01*
X26750500Y-26864016D01*
X27748500Y-26864016D01*
X28704100Y-26864016D01*
X28704100Y-25362016D01*
X27748500Y-25362016D01*
X27748500Y-26864016D01*
X26750500Y-26864016D01*
X26750500Y-25362016D01*
X26026078Y-25362016D01*
X26007809Y-26864016D01*
X25000500Y-26864016D01*
X25000500Y-24364016D01*
X26038217Y-24364016D01*
X26750500Y-24364016D01*
X26750500Y-23947322D01*
X26739685Y-23938084D01*
X26736046Y-23934850D01*
X26714441Y-23914876D01*
X26710937Y-23911506D01*
X26538494Y-23739063D01*
X26535124Y-23735559D01*
X26515150Y-23713954D01*
X26511916Y-23710315D01*
X26486455Y-23680508D01*
X26483365Y-23676743D01*
X26465106Y-23653584D01*
X26462163Y-23649696D01*
X26318790Y-23452358D01*
X26316005Y-23448363D01*
X26299639Y-23423869D01*
X26297014Y-23419767D01*
X26276533Y-23386344D01*
X26274071Y-23382144D01*
X26259681Y-23356448D01*
X26257386Y-23352155D01*
X26146651Y-23134827D01*
X26144525Y-23130443D01*
X26132182Y-23103667D01*
X26130228Y-23099200D01*
X26115230Y-23062984D01*
X26113457Y-23058453D01*
X26103273Y-23030844D01*
X26101680Y-23026250D01*
X26056191Y-22886252D01*
X26038217Y-24364016D01*
X25000500Y-24364016D01*
X25000500Y-22097648D01*
X26949500Y-22097648D01*
X26949500Y-22302351D01*
X26981522Y-22504534D01*
X27044781Y-22699223D01*
X27137715Y-22881613D01*
X27258028Y-23047213D01*
X27402786Y-23191971D01*
X27557749Y-23304556D01*
X27568390Y-23312287D01*
X27655061Y-23356448D01*
X27750776Y-23405218D01*
X27750778Y-23405218D01*
X27750781Y-23405220D01*
X27808177Y-23423869D01*
X27945465Y-23468477D01*
X28046557Y-23484488D01*
X28147648Y-23500500D01*
X28147649Y-23500500D01*
X28352351Y-23500500D01*
X28352352Y-23500500D01*
X28554534Y-23468477D01*
X28749219Y-23405220D01*
X28931610Y-23312287D01*
X29076455Y-23207052D01*
X29097213Y-23191971D01*
X29097215Y-23191968D01*
X29097219Y-23191966D01*
X29241966Y-23047219D01*
X29241968Y-23047215D01*
X29241971Y-23047213D01*
X29294732Y-22974590D01*
X29362287Y-22881610D01*
X29455220Y-22699219D01*
X29518477Y-22504534D01*
X29550500Y-22302352D01*
X29550500Y-22115001D01*
X30852704Y-22115001D01*
X30852899Y-22117486D01*
X30898718Y-22275198D01*
X30982314Y-22416552D01*
X30987100Y-22422722D01*
X30984753Y-22424542D01*
X31011564Y-22473642D01*
X31006580Y-22543334D01*
X30985541Y-22576069D01*
X30987100Y-22577278D01*
X30982314Y-22583447D01*
X30898718Y-22724801D01*
X30852899Y-22882513D01*
X30852704Y-22884998D01*
X30852705Y-22885000D01*
X31900000Y-22885000D01*
X31900000Y-22115000D01*
X30852705Y-22115000D01*
X30852704Y-22115001D01*
X29550500Y-22115001D01*
X29550500Y-22097648D01*
X29522693Y-21922084D01*
X29518477Y-21895465D01*
X29455218Y-21700776D01*
X29410245Y-21612513D01*
X29362287Y-21518390D01*
X29344448Y-21493837D01*
X29241971Y-21352786D01*
X29097213Y-21208028D01*
X28931613Y-21087715D01*
X28931612Y-21087714D01*
X28931610Y-21087713D01*
X28862263Y-21052379D01*
X28749223Y-20994781D01*
X28554534Y-20931522D01*
X28379995Y-20903878D01*
X28352352Y-20899500D01*
X28147648Y-20899500D01*
X28123329Y-20903351D01*
X27945465Y-20931522D01*
X27750776Y-20994781D01*
X27568386Y-21087715D01*
X27402786Y-21208028D01*
X27258028Y-21352786D01*
X27137715Y-21518386D01*
X27044781Y-21700776D01*
X26981522Y-21895465D01*
X26949500Y-22097648D01*
X25000500Y-22097648D01*
X25000500Y-20845001D01*
X30852704Y-20845001D01*
X30852899Y-20847486D01*
X30898718Y-21005198D01*
X30982314Y-21146552D01*
X30987100Y-21152722D01*
X30984753Y-21154542D01*
X31011564Y-21203642D01*
X31006580Y-21273334D01*
X30985541Y-21306069D01*
X30987100Y-21307278D01*
X30982314Y-21313447D01*
X30898718Y-21454801D01*
X30852899Y-21612513D01*
X30852704Y-21614998D01*
X30852705Y-21615000D01*
X31900000Y-21615000D01*
X32400000Y-21615000D01*
X33447295Y-21615000D01*
X33447295Y-21614998D01*
X33447100Y-21612513D01*
X33401281Y-21454801D01*
X33317685Y-21313447D01*
X33312900Y-21307278D01*
X33315252Y-21305453D01*
X33288445Y-21256405D01*
X33293402Y-21186712D01*
X33314465Y-21153936D01*
X33312900Y-21152722D01*
X33317685Y-21146552D01*
X33401281Y-21005198D01*
X33447100Y-20847486D01*
X33447295Y-20845001D01*
X33447295Y-20845000D01*
X32400000Y-20845000D01*
X32400000Y-21615000D01*
X31900000Y-21615000D01*
X31900000Y-20845000D01*
X30852705Y-20845000D01*
X30852704Y-20845001D01*
X25000500Y-20845001D01*
X25000500Y-20344998D01*
X30852704Y-20344998D01*
X30852705Y-20345000D01*
X31900000Y-20345000D01*
X32400000Y-20345000D01*
X33447295Y-20345000D01*
X33447295Y-20344998D01*
X38052704Y-20344998D01*
X38052705Y-20345000D01*
X39100000Y-20345000D01*
X39100000Y-19795000D01*
X38634350Y-19795000D01*
X38597510Y-19797899D01*
X38597504Y-19797900D01*
X38439806Y-19843716D01*
X38439803Y-19843717D01*
X38298447Y-19927314D01*
X38298438Y-19927321D01*
X38182321Y-20043438D01*
X38182314Y-20043447D01*
X38098718Y-20184801D01*
X38052899Y-20342513D01*
X38052704Y-20344998D01*
X33447295Y-20344998D01*
X33447100Y-20342513D01*
X33401281Y-20184801D01*
X33317685Y-20043447D01*
X33317678Y-20043438D01*
X33201561Y-19927321D01*
X33201552Y-19927314D01*
X33060196Y-19843717D01*
X33060193Y-19843716D01*
X32902495Y-19797900D01*
X32902489Y-19797899D01*
X32865649Y-19795000D01*
X32400000Y-19795000D01*
X32400000Y-20345000D01*
X31900000Y-20345000D01*
X31900000Y-19795000D01*
X31434350Y-19795000D01*
X31397510Y-19797899D01*
X31397504Y-19797900D01*
X31239806Y-19843716D01*
X31239803Y-19843717D01*
X31098447Y-19927314D01*
X31098438Y-19927321D01*
X30982321Y-20043438D01*
X30982314Y-20043447D01*
X30898718Y-20184801D01*
X30852899Y-20342513D01*
X30852704Y-20344998D01*
X25000500Y-20344998D01*
X25000500Y-18940026D01*
X27748500Y-18940026D01*
X27748500Y-19364016D01*
X29250500Y-19364016D01*
X29250500Y-18931963D01*
X27748500Y-18940026D01*
X25000500Y-18940026D01*
X25000500Y-18899763D01*
X35248500Y-18899763D01*
X35248500Y-19364016D01*
X36750500Y-19364016D01*
X36750500Y-18891700D01*
X35248500Y-18899763D01*
X25000500Y-18899763D01*
X25000500Y-18846079D01*
X45248500Y-18846079D01*
X45248500Y-19107082D01*
X45369085Y-19117633D01*
X45374461Y-19118222D01*
X45406904Y-19122493D01*
X45412251Y-19123316D01*
X45455146Y-19130879D01*
X45460454Y-19131934D01*
X45492412Y-19139019D01*
X45497666Y-19140305D01*
X45768008Y-19212741D01*
X45773205Y-19214256D01*
X45804440Y-19224105D01*
X45809568Y-19225846D01*
X45850500Y-19240747D01*
X45855535Y-19242705D01*
X45885756Y-19255223D01*
X45890708Y-19257402D01*
X46119341Y-19364016D01*
X46750500Y-19364016D01*
X46750500Y-18838016D01*
X45248500Y-18846079D01*
X25000500Y-18846079D01*
X25000500Y-18792395D01*
X55248500Y-18792395D01*
X55248500Y-19364016D01*
X55857399Y-19364016D01*
X55882677Y-19331073D01*
X55887825Y-19324800D01*
X55920201Y-19287883D01*
X55925747Y-19281962D01*
X55971962Y-19235747D01*
X55977883Y-19230201D01*
X56014800Y-19197825D01*
X56021073Y-19192676D01*
X56192778Y-19060921D01*
X56199376Y-19056194D01*
X56240206Y-19028913D01*
X56247093Y-19024630D01*
X56303698Y-18991948D01*
X56310856Y-18988122D01*
X56354900Y-18966402D01*
X56362292Y-18963053D01*
X56562249Y-18880229D01*
X56569843Y-18877370D01*
X56616342Y-18861586D01*
X56624108Y-18859231D01*
X56687239Y-18842316D01*
X56695138Y-18840474D01*
X56743296Y-18830894D01*
X56750500Y-18829704D01*
X56750500Y-18784333D01*
X55248500Y-18792395D01*
X25000500Y-18792395D01*
X25000500Y-18765553D01*
X60248500Y-18765553D01*
X60248500Y-19364016D01*
X61750500Y-19364016D01*
X61750500Y-18757491D01*
X60248500Y-18765553D01*
X25000500Y-18765553D01*
X25000500Y-18752132D01*
X62748500Y-18752132D01*
X62748500Y-19364016D01*
X64250500Y-19364016D01*
X64250500Y-18744070D01*
X62748500Y-18752132D01*
X25000500Y-18752132D01*
X25000500Y-17954097D01*
X25020185Y-17887058D01*
X25072989Y-17841303D01*
X25123825Y-17830100D01*
X65374837Y-17614018D01*
X65441979Y-17633342D01*
G37*
%TD.AperFunction*%
%TA.AperFunction,Conductor*%
G36*
X29645139Y-29760185D02*
G01*
X29690894Y-29812989D01*
X29702100Y-29864500D01*
X29702100Y-30447622D01*
X29699717Y-30471814D01*
X29691263Y-30514310D01*
X29691264Y-30514311D01*
X29674924Y-30596465D01*
X29674918Y-30596493D01*
X29674500Y-30598592D01*
X29674500Y-31576036D01*
X29654815Y-31643075D01*
X29642651Y-31659007D01*
X29608140Y-31697336D01*
X29518750Y-31852164D01*
X29518747Y-31852170D01*
X29463504Y-32022192D01*
X29463503Y-32022194D01*
X29444815Y-32200000D01*
X29463503Y-32377805D01*
X29463504Y-32377807D01*
X29518747Y-32547829D01*
X29518750Y-32547835D01*
X29608141Y-32702665D01*
X29649812Y-32748946D01*
X29727764Y-32835521D01*
X29727767Y-32835523D01*
X29727770Y-32835526D01*
X29872407Y-32940612D01*
X30035733Y-33013329D01*
X30210609Y-33050500D01*
X30210610Y-33050500D01*
X30389389Y-33050500D01*
X30389391Y-33050500D01*
X30564267Y-33013329D01*
X30727593Y-32940612D01*
X30872230Y-32835526D01*
X30991859Y-32702665D01*
X31081250Y-32547835D01*
X31099665Y-32491158D01*
X31139100Y-32433486D01*
X31203458Y-32406286D01*
X31252190Y-32410402D01*
X31397426Y-32452597D01*
X31397429Y-32452597D01*
X31397431Y-32452598D01*
X31434306Y-32455500D01*
X31434314Y-32455500D01*
X32760006Y-32455500D01*
X32827045Y-32475185D01*
X32872800Y-32527989D01*
X32882744Y-32597147D01*
X32853719Y-32660703D01*
X32847687Y-32667181D01*
X31744481Y-33770386D01*
X31744479Y-33770388D01*
X31724044Y-33805784D01*
X31711445Y-33827607D01*
X31665423Y-33907319D01*
X31624499Y-34060047D01*
X31624499Y-34060049D01*
X31624499Y-34228150D01*
X31624500Y-34228163D01*
X31624500Y-34637187D01*
X31604815Y-34704226D01*
X31552011Y-34749981D01*
X31516684Y-34760126D01*
X31410154Y-34774150D01*
X31410145Y-34774152D01*
X31271670Y-34831510D01*
X31152756Y-34922756D01*
X31061510Y-35041670D01*
X31004152Y-35180145D01*
X31004152Y-35180146D01*
X30989500Y-35291431D01*
X30989500Y-35778562D01*
X31004150Y-35889851D01*
X31006255Y-35897704D01*
X31004539Y-35898163D01*
X31010933Y-35957681D01*
X31006615Y-35972386D01*
X31006743Y-35972421D01*
X31004639Y-35980271D01*
X30990851Y-36085000D01*
X31043845Y-36085000D01*
X31110884Y-36104685D01*
X31142219Y-36133512D01*
X31152756Y-36147244D01*
X31269239Y-36236624D01*
X31310441Y-36293052D01*
X31314596Y-36362798D01*
X31280383Y-36423719D01*
X31269243Y-36433372D01*
X31251525Y-36446968D01*
X31152754Y-36522757D01*
X31144711Y-36533239D01*
X31142473Y-36536158D01*
X31142221Y-36536486D01*
X31085793Y-36577689D01*
X31043845Y-36585000D01*
X30990852Y-36585000D01*
X31004639Y-36689723D01*
X31006743Y-36697575D01*
X31004676Y-36698128D01*
X31010932Y-36756378D01*
X31006222Y-36772419D01*
X31004152Y-36780146D01*
X30989500Y-36891431D01*
X30989500Y-36891439D01*
X30989500Y-37101255D01*
X30989501Y-37210500D01*
X30969817Y-37277539D01*
X30917013Y-37323294D01*
X30865501Y-37334500D01*
X29785943Y-37334500D01*
X29633213Y-37375423D01*
X29586284Y-37402519D01*
X29586283Y-37402519D01*
X29496287Y-37454477D01*
X29496282Y-37454481D01*
X29415764Y-37535000D01*
X29384480Y-37566284D01*
X29384478Y-37566286D01*
X29343100Y-37607664D01*
X29315019Y-37635745D01*
X29253695Y-37669229D01*
X29184004Y-37664244D01*
X29128070Y-37622373D01*
X29103810Y-37558870D01*
X29101722Y-37535000D01*
X29085063Y-37344592D01*
X29038626Y-37171285D01*
X29023905Y-37116344D01*
X29023904Y-37116343D01*
X29023903Y-37116337D01*
X28924035Y-36902171D01*
X28916521Y-36891439D01*
X28788494Y-36708597D01*
X28621402Y-36541506D01*
X28621396Y-36541501D01*
X28435842Y-36411575D01*
X28392217Y-36356998D01*
X28385023Y-36287500D01*
X28416546Y-36225145D01*
X28435842Y-36208425D01*
X28523220Y-36147242D01*
X28621401Y-36078495D01*
X28788495Y-35911401D01*
X28924035Y-35717830D01*
X29023903Y-35503663D01*
X29085063Y-35275408D01*
X29105659Y-35040000D01*
X29085063Y-34804592D01*
X29023903Y-34576337D01*
X28924035Y-34362171D01*
X28919585Y-34355815D01*
X28788494Y-34168597D01*
X28621402Y-34001506D01*
X28621401Y-34001505D01*
X28435405Y-33871269D01*
X28391781Y-33816692D01*
X28384588Y-33747193D01*
X28416110Y-33684839D01*
X28435405Y-33668119D01*
X28621082Y-33538105D01*
X28788105Y-33371082D01*
X28923600Y-33177578D01*
X29023429Y-32963492D01*
X29023432Y-32963486D01*
X29080636Y-32750000D01*
X28183012Y-32750000D01*
X28215925Y-32692993D01*
X28250000Y-32565826D01*
X28250000Y-32434174D01*
X28215925Y-32307007D01*
X28183012Y-32250000D01*
X29080636Y-32250000D01*
X29080635Y-32249999D01*
X29023432Y-32036513D01*
X29023429Y-32036507D01*
X28923600Y-31822422D01*
X28923599Y-31822420D01*
X28788113Y-31628926D01*
X28788108Y-31628920D01*
X28666053Y-31506865D01*
X28632568Y-31445542D01*
X28637552Y-31375850D01*
X28679424Y-31319917D01*
X28710400Y-31303002D01*
X28842331Y-31253796D01*
X28957546Y-31167546D01*
X29043796Y-31052331D01*
X29094091Y-30917483D01*
X29100500Y-30857873D01*
X29100499Y-29864499D01*
X29120183Y-29797461D01*
X29172987Y-29751706D01*
X29224499Y-29740500D01*
X29578100Y-29740500D01*
X29645139Y-29760185D01*
G37*
%TD.AperFunction*%
%TA.AperFunction,Conductor*%
G36*
X50280539Y-31769685D02*
G01*
X50326294Y-31822489D01*
X50337500Y-31874000D01*
X50337500Y-32000000D01*
X50463500Y-32000000D01*
X50530539Y-32019685D01*
X50576294Y-32072489D01*
X50587500Y-32124000D01*
X50587500Y-33199999D01*
X50589163Y-33201662D01*
X50650538Y-33219684D01*
X50696293Y-33272488D01*
X50707499Y-33323999D01*
X50707499Y-33449554D01*
X50707498Y-33449554D01*
X50748422Y-33602283D01*
X50750236Y-33605424D01*
X50750239Y-33605430D01*
X50786259Y-33667819D01*
X50802732Y-33735720D01*
X50802230Y-33742419D01*
X50799501Y-33769137D01*
X50799500Y-33769157D01*
X50799500Y-34355855D01*
X50809913Y-34457776D01*
X50864637Y-34622922D01*
X50864642Y-34622933D01*
X50955971Y-34770999D01*
X50955974Y-34771003D01*
X51078996Y-34894025D01*
X51079000Y-34894028D01*
X51079703Y-34894462D01*
X51080083Y-34894885D01*
X51084664Y-34898507D01*
X51084045Y-34899289D01*
X51126428Y-34946410D01*
X51137649Y-35015372D01*
X51109806Y-35079454D01*
X51084544Y-35101342D01*
X51084664Y-35101493D01*
X51081315Y-35104140D01*
X51079703Y-35105538D01*
X51079000Y-35105971D01*
X51078996Y-35105974D01*
X50975900Y-35209069D01*
X50914577Y-35242553D01*
X50847266Y-35238429D01*
X50779257Y-35214632D01*
X50779249Y-35214630D01*
X50600004Y-35194435D01*
X50599996Y-35194435D01*
X50420746Y-35214631D01*
X50420745Y-35214631D01*
X50389772Y-35225469D01*
X50319993Y-35229030D01*
X50261138Y-35196109D01*
X50245174Y-35180145D01*
X50171003Y-35105974D01*
X50171000Y-35105972D01*
X50170998Y-35105970D01*
X50170995Y-35105968D01*
X50169812Y-35105238D01*
X50169171Y-35104525D01*
X50165336Y-35101493D01*
X50165854Y-35100837D01*
X50123091Y-35053287D01*
X50111875Y-34984323D01*
X50139723Y-34920243D01*
X50165123Y-34898238D01*
X50165023Y-34898112D01*
X50167842Y-34895882D01*
X50169832Y-34894159D01*
X50170692Y-34893628D01*
X50293629Y-34770691D01*
X50384903Y-34622714D01*
X50384905Y-34622709D01*
X50439592Y-34457673D01*
X50449999Y-34355815D01*
X50450000Y-34355802D01*
X50450000Y-34312500D01*
X48050000Y-34312500D01*
X48050000Y-34355815D01*
X48060407Y-34457673D01*
X48115094Y-34622709D01*
X48115096Y-34622714D01*
X48206370Y-34770691D01*
X48329309Y-34893630D01*
X48330173Y-34894163D01*
X48330641Y-34894683D01*
X48334977Y-34898112D01*
X48334391Y-34898852D01*
X48376901Y-34946108D01*
X48388126Y-35015070D01*
X48360286Y-35079154D01*
X48334601Y-35101414D01*
X48334664Y-35101493D01*
X48332912Y-35102878D01*
X48330194Y-35105234D01*
X48329005Y-35105967D01*
X48328996Y-35105974D01*
X48205974Y-35228996D01*
X48205971Y-35229000D01*
X48138607Y-35338214D01*
X48086659Y-35384939D01*
X48017697Y-35396160D01*
X47953615Y-35368317D01*
X47945388Y-35360798D01*
X46127819Y-33543229D01*
X46094334Y-33481906D01*
X46091500Y-33455548D01*
X46091500Y-32885240D01*
X46111185Y-32818201D01*
X46163989Y-32772446D01*
X46233147Y-32762502D01*
X46296703Y-32791527D01*
X46333206Y-32846236D01*
X46365641Y-32944119D01*
X46365643Y-32944124D01*
X46457684Y-33093345D01*
X46581654Y-33217315D01*
X46730875Y-33309356D01*
X46730880Y-33309358D01*
X46897302Y-33364505D01*
X46897309Y-33364506D01*
X47000019Y-33374999D01*
X47249999Y-33374999D01*
X47750000Y-33374999D01*
X47985555Y-33374999D01*
X48052594Y-33394684D01*
X48098349Y-33447488D01*
X48108293Y-33516646D01*
X48103261Y-33538003D01*
X48060407Y-33667326D01*
X48050000Y-33769184D01*
X48050000Y-33812500D01*
X49000000Y-33812500D01*
X49000000Y-33075000D01*
X48762709Y-33075000D01*
X48695670Y-33055315D01*
X48649915Y-33002511D01*
X48639971Y-32933353D01*
X48645003Y-32911996D01*
X48689505Y-32777697D01*
X48689506Y-32777690D01*
X48699999Y-32674986D01*
X48700000Y-32674973D01*
X48700000Y-32612500D01*
X47750000Y-32612500D01*
X47750000Y-33374999D01*
X47249999Y-33374999D01*
X47250000Y-33374998D01*
X47250000Y-32499986D01*
X49325001Y-32499986D01*
X49335494Y-32602697D01*
X49390641Y-32769119D01*
X49390643Y-32769124D01*
X49482684Y-32918346D01*
X49487161Y-32924007D01*
X49485972Y-32924946D01*
X49515473Y-32978972D01*
X49510489Y-33048664D01*
X49500000Y-33064985D01*
X49500000Y-33812500D01*
X50450000Y-33812500D01*
X50450000Y-33769197D01*
X50449999Y-33769184D01*
X50439592Y-33667326D01*
X50384905Y-33502290D01*
X50384903Y-33502285D01*
X50293629Y-33354308D01*
X50269321Y-33330000D01*
X50211500Y-33330000D01*
X50144461Y-33310315D01*
X50098706Y-33257511D01*
X50087500Y-33206000D01*
X50087500Y-32250000D01*
X49325001Y-32250000D01*
X49325001Y-32499986D01*
X47250000Y-32499986D01*
X47250000Y-32486500D01*
X47269685Y-32419461D01*
X47322489Y-32373706D01*
X47374000Y-32362500D01*
X47500000Y-32362500D01*
X47500000Y-32236500D01*
X47519685Y-32169461D01*
X47572489Y-32123706D01*
X47624000Y-32112500D01*
X48699999Y-32112500D01*
X48699999Y-32074500D01*
X48719684Y-32007461D01*
X48772488Y-31961706D01*
X48823999Y-31950500D01*
X49332875Y-31950500D01*
X49332891Y-31950501D01*
X49340487Y-31950501D01*
X49498598Y-31950501D01*
X49498601Y-31950501D01*
X49651329Y-31909577D01*
X49718676Y-31870694D01*
X49788260Y-31830520D01*
X49832461Y-31786319D01*
X49893784Y-31752834D01*
X49920142Y-31750000D01*
X50213500Y-31750000D01*
X50280539Y-31769685D01*
G37*
%TD.AperFunction*%
%TA.AperFunction,Conductor*%
G36*
X59636874Y-23913684D02*
G01*
X59656278Y-23929513D01*
X62609181Y-26882416D01*
X62642666Y-26943739D01*
X62645500Y-26970097D01*
X62645500Y-33273901D01*
X62625815Y-33340940D01*
X62609181Y-33361582D01*
X62564432Y-33406331D01*
X62503109Y-33439816D01*
X62433417Y-33434832D01*
X62377484Y-33392960D01*
X62353067Y-33327496D01*
X62353223Y-33307842D01*
X62355659Y-33280000D01*
X62355659Y-33279999D01*
X62348660Y-33199999D01*
X62335063Y-33044592D01*
X62279043Y-32835521D01*
X62273905Y-32816344D01*
X62273904Y-32816343D01*
X62273903Y-32816337D01*
X62174035Y-32602171D01*
X62170518Y-32597147D01*
X62038494Y-32408597D01*
X61871402Y-32241506D01*
X61871401Y-32241505D01*
X61685405Y-32111269D01*
X61641781Y-32056692D01*
X61634588Y-31987193D01*
X61666110Y-31924839D01*
X61685405Y-31908119D01*
X61871082Y-31778105D01*
X62038105Y-31611082D01*
X62173600Y-31417578D01*
X62273429Y-31203492D01*
X62273432Y-31203486D01*
X62330636Y-30990000D01*
X61433012Y-30990000D01*
X61465925Y-30932993D01*
X61500000Y-30805826D01*
X61500000Y-30674174D01*
X61465925Y-30547007D01*
X61433012Y-30490000D01*
X62330636Y-30490000D01*
X62330635Y-30489999D01*
X62273432Y-30276513D01*
X62273429Y-30276507D01*
X62173600Y-30062422D01*
X62173599Y-30062420D01*
X62038113Y-29868926D01*
X62038108Y-29868920D01*
X61916053Y-29746865D01*
X61882568Y-29685542D01*
X61887552Y-29615850D01*
X61929424Y-29559917D01*
X61960400Y-29543002D01*
X62092331Y-29493796D01*
X62207546Y-29407546D01*
X62293796Y-29292331D01*
X62344091Y-29157483D01*
X62350500Y-29097873D01*
X62350499Y-27302128D01*
X62344091Y-27242517D01*
X62319774Y-27177321D01*
X62293797Y-27107671D01*
X62293793Y-27107664D01*
X62207547Y-26992455D01*
X62207544Y-26992452D01*
X62092335Y-26906206D01*
X62092328Y-26906202D01*
X61957482Y-26855908D01*
X61957483Y-26855908D01*
X61897883Y-26849501D01*
X61897881Y-26849500D01*
X61897873Y-26849500D01*
X61897865Y-26849500D01*
X60161660Y-26849500D01*
X60094621Y-26829815D01*
X60048866Y-26777011D01*
X60038922Y-26707853D01*
X60056665Y-26659531D01*
X60125789Y-26549522D01*
X60185368Y-26379255D01*
X60185960Y-26374000D01*
X60205565Y-26200003D01*
X60205565Y-26199996D01*
X60185369Y-26020750D01*
X60185368Y-26020745D01*
X60148763Y-25916135D01*
X60125789Y-25850478D01*
X60112129Y-25828739D01*
X60029815Y-25697737D01*
X59993789Y-25661711D01*
X59961696Y-25606125D01*
X59959577Y-25598216D01*
X59959574Y-25598212D01*
X59959574Y-25598209D01*
X59880524Y-25461290D01*
X59880521Y-25461286D01*
X59880520Y-25461284D01*
X59768716Y-25349480D01*
X59768715Y-25349479D01*
X59764385Y-25345149D01*
X59764374Y-25345139D01*
X59430987Y-25011752D01*
X59397502Y-24950429D01*
X59402486Y-24880737D01*
X59404095Y-24876648D01*
X59445719Y-24776159D01*
X59460500Y-24663887D01*
X59460499Y-24146114D01*
X59445719Y-24033841D01*
X59445718Y-24033840D01*
X59445658Y-24033378D01*
X59456424Y-23964343D01*
X59502804Y-23912088D01*
X59570073Y-23893203D01*
X59636874Y-23913684D01*
G37*
%TD.AperFunction*%
%TA.AperFunction,Conductor*%
G36*
X35542045Y-29760185D02*
G01*
X35587800Y-29812989D01*
X35597744Y-29882147D01*
X35568719Y-29945703D01*
X35562687Y-29952181D01*
X33662181Y-31852686D01*
X33600858Y-31886171D01*
X33531166Y-31881187D01*
X33475233Y-31839315D01*
X33450816Y-31773851D01*
X33450500Y-31765005D01*
X33450500Y-31439313D01*
X33450499Y-31439298D01*
X33450140Y-31434740D01*
X33447598Y-31402431D01*
X33439875Y-31375850D01*
X33401745Y-31244606D01*
X33401744Y-31244603D01*
X33401744Y-31244602D01*
X33318081Y-31103135D01*
X33318078Y-31103132D01*
X33313298Y-31096969D01*
X33315635Y-31095155D01*
X33288798Y-31046050D01*
X33293756Y-30976356D01*
X33314554Y-30943998D01*
X33312903Y-30942717D01*
X33317686Y-30936550D01*
X33401281Y-30795198D01*
X33447100Y-30637486D01*
X33447295Y-30635001D01*
X33447295Y-30635000D01*
X32274000Y-30635000D01*
X32206961Y-30615315D01*
X32161206Y-30562511D01*
X32150000Y-30511000D01*
X32150000Y-30259000D01*
X32169685Y-30191961D01*
X32222489Y-30146206D01*
X32274000Y-30135000D01*
X33447295Y-30135000D01*
X33447295Y-30134998D01*
X33447100Y-30132513D01*
X33401281Y-29974801D01*
X33373379Y-29927621D01*
X33356196Y-29859897D01*
X33378356Y-29793635D01*
X33432822Y-29749871D01*
X33480111Y-29740500D01*
X35475006Y-29740500D01*
X35542045Y-29760185D01*
G37*
%TD.AperFunction*%
%TA.AperFunction,Conductor*%
G36*
X43736074Y-28765674D02*
G01*
X43792007Y-28807546D01*
X43816424Y-28873010D01*
X43811114Y-28915520D01*
X43811418Y-28915586D01*
X43810669Y-28919082D01*
X43810448Y-28920853D01*
X43810001Y-28922203D01*
X43810001Y-28922204D01*
X43810000Y-28922204D01*
X43799500Y-29024983D01*
X43799500Y-29650001D01*
X43799501Y-29650019D01*
X43810000Y-29752796D01*
X43810001Y-29752799D01*
X43865185Y-29919331D01*
X43865187Y-29919336D01*
X43876082Y-29937000D01*
X43931620Y-30027042D01*
X43957289Y-30068657D01*
X44051304Y-30162672D01*
X44084789Y-30223995D01*
X44079805Y-30293687D01*
X44051305Y-30338034D01*
X43957682Y-30431657D01*
X43865643Y-30580875D01*
X43865641Y-30580880D01*
X43810494Y-30747302D01*
X43810493Y-30747309D01*
X43800000Y-30850013D01*
X43800000Y-30912500D01*
X44876000Y-30912500D01*
X44943039Y-30932185D01*
X44988794Y-30984989D01*
X45000000Y-31036500D01*
X45000000Y-31288500D01*
X44980315Y-31355539D01*
X44927511Y-31401294D01*
X44876000Y-31412500D01*
X43800001Y-31412500D01*
X43800001Y-31474984D01*
X43803875Y-31512897D01*
X43791106Y-31581590D01*
X43743226Y-31632475D01*
X43680517Y-31649500D01*
X42381158Y-31649500D01*
X42314119Y-31629815D01*
X42268364Y-31577011D01*
X42258420Y-31507853D01*
X42287445Y-31444297D01*
X42297368Y-31434770D01*
X42297338Y-31434740D01*
X42356228Y-31375850D01*
X42429816Y-31302262D01*
X42525789Y-31149522D01*
X42585368Y-30979255D01*
X42585695Y-30976356D01*
X42605565Y-30800003D01*
X42605565Y-30799996D01*
X42585369Y-30620750D01*
X42585368Y-30620745D01*
X42548125Y-30514310D01*
X42525789Y-30450478D01*
X42523994Y-30447622D01*
X42477425Y-30373508D01*
X42429816Y-30297738D01*
X42429814Y-30297736D01*
X42429813Y-30297734D01*
X42427550Y-30294896D01*
X42426659Y-30292715D01*
X42426111Y-30291842D01*
X42426264Y-30291745D01*
X42401144Y-30230209D01*
X42400500Y-30217587D01*
X42400500Y-30050097D01*
X42420185Y-29983058D01*
X42436819Y-29962416D01*
X43362916Y-29036319D01*
X43424239Y-29002834D01*
X43450597Y-29000000D01*
X43500000Y-29000000D01*
X43500000Y-28950596D01*
X43519685Y-28883557D01*
X43536314Y-28862919D01*
X43605060Y-28794173D01*
X43666382Y-28760690D01*
X43736074Y-28765674D01*
G37*
%TD.AperFunction*%
%TA.AperFunction,Conductor*%
G36*
X59592540Y-28845185D02*
G01*
X59638295Y-28897989D01*
X59649501Y-28949500D01*
X59649501Y-29097876D01*
X59655908Y-29157483D01*
X59706202Y-29292328D01*
X59706206Y-29292335D01*
X59792452Y-29407544D01*
X59792455Y-29407547D01*
X59907664Y-29493793D01*
X59907671Y-29493797D01*
X59907674Y-29493798D01*
X60039598Y-29543002D01*
X60095531Y-29584873D01*
X60119949Y-29650337D01*
X60105098Y-29718610D01*
X60083947Y-29746865D01*
X59961886Y-29868926D01*
X59826400Y-30062420D01*
X59826399Y-30062422D01*
X59726570Y-30276507D01*
X59726567Y-30276513D01*
X59669364Y-30489999D01*
X59669364Y-30490000D01*
X60566988Y-30490000D01*
X60534075Y-30547007D01*
X60500000Y-30674174D01*
X60500000Y-30805826D01*
X60534075Y-30932993D01*
X60566988Y-30990000D01*
X59610598Y-30990000D01*
X59543559Y-30970315D01*
X59522917Y-30953681D01*
X58788522Y-30219287D01*
X58755037Y-30157964D01*
X58760021Y-30088273D01*
X58784050Y-30048637D01*
X58857859Y-29966665D01*
X58947250Y-29811835D01*
X59002497Y-29641803D01*
X59021185Y-29464000D01*
X59002497Y-29286197D01*
X58947250Y-29116165D01*
X58936691Y-29097876D01*
X58886822Y-29011499D01*
X58870349Y-28943599D01*
X58893202Y-28877572D01*
X58948123Y-28834382D01*
X58994209Y-28825500D01*
X59525501Y-28825500D01*
X59592540Y-28845185D01*
G37*
%TD.AperFunction*%
%TA.AperFunction,Conductor*%
G36*
X38086347Y-22510185D02*
G01*
X38132102Y-22562989D01*
X38142046Y-22632147D01*
X38126040Y-22677621D01*
X38098253Y-22724605D01*
X38097798Y-22725658D01*
X38096511Y-22727551D01*
X38094285Y-22731316D01*
X38094048Y-22731176D01*
X38071702Y-22764062D01*
X38069501Y-22766264D01*
X38069481Y-22766284D01*
X37769481Y-23066283D01*
X37769480Y-23066285D01*
X37735281Y-23125520D01*
X37690423Y-23203216D01*
X37649499Y-23355944D01*
X37649499Y-23355946D01*
X37649499Y-23524047D01*
X37649500Y-23524060D01*
X37649500Y-24316618D01*
X37629815Y-24383657D01*
X37587501Y-24424005D01*
X37544793Y-24448663D01*
X37544792Y-24448663D01*
X37443787Y-24506977D01*
X37443782Y-24506981D01*
X37331978Y-24618786D01*
X36581465Y-25369298D01*
X36520142Y-25402783D01*
X36507668Y-25404837D01*
X36420750Y-25414630D01*
X36250478Y-25474210D01*
X36097737Y-25570184D01*
X35970184Y-25697737D01*
X35874211Y-25850476D01*
X35814631Y-26020745D01*
X35814630Y-26020750D01*
X35794435Y-26199996D01*
X35794435Y-26200003D01*
X35814630Y-26379249D01*
X35814631Y-26379254D01*
X35874211Y-26549523D01*
X35922265Y-26626000D01*
X35970184Y-26702262D01*
X36097738Y-26829816D01*
X36139263Y-26855908D01*
X36249379Y-26925099D01*
X36250478Y-26925789D01*
X36375500Y-26969536D01*
X36420745Y-26985368D01*
X36420750Y-26985369D01*
X36599996Y-27005565D01*
X36600000Y-27005565D01*
X36600004Y-27005565D01*
X36779249Y-26985369D01*
X36779252Y-26985368D01*
X36779255Y-26985368D01*
X36949522Y-26925789D01*
X37102262Y-26829816D01*
X37229816Y-26702262D01*
X37325789Y-26549522D01*
X37385368Y-26379255D01*
X37395161Y-26292329D01*
X37422226Y-26227918D01*
X37430690Y-26218543D01*
X38024916Y-25624319D01*
X38086239Y-25590834D01*
X38112597Y-25588000D01*
X38329055Y-25588000D01*
X38329057Y-25588000D01*
X38481784Y-25547077D01*
X38618716Y-25468020D01*
X38730520Y-25356216D01*
X38734410Y-25349478D01*
X38781740Y-25267501D01*
X38832306Y-25219285D01*
X38889127Y-25205500D01*
X39249903Y-25205500D01*
X39316942Y-25225185D01*
X39337584Y-25241819D01*
X39863181Y-25767416D01*
X39896666Y-25828739D01*
X39899500Y-25855097D01*
X39899500Y-26921000D01*
X39879815Y-26988039D01*
X39827011Y-27033794D01*
X39775500Y-27045000D01*
X39600000Y-27045000D01*
X39600000Y-27721000D01*
X39580315Y-27788039D01*
X39527511Y-27833794D01*
X39476000Y-27845000D01*
X39350000Y-27845000D01*
X39350000Y-27971000D01*
X39330315Y-28038039D01*
X39277511Y-28083794D01*
X39226000Y-28095000D01*
X38052705Y-28095000D01*
X38052704Y-28095001D01*
X38052899Y-28097486D01*
X38098718Y-28255198D01*
X38126621Y-28302379D01*
X38143804Y-28370103D01*
X38121644Y-28436365D01*
X38067178Y-28480129D01*
X38019889Y-28489500D01*
X33480111Y-28489500D01*
X33413072Y-28469815D01*
X33367317Y-28417011D01*
X33357373Y-28347853D01*
X33373379Y-28302379D01*
X33401281Y-28255198D01*
X33447100Y-28097486D01*
X33447295Y-28095001D01*
X33447295Y-28095000D01*
X32274000Y-28095000D01*
X32206961Y-28075315D01*
X32161206Y-28022511D01*
X32150000Y-27971000D01*
X32150000Y-27845000D01*
X32024000Y-27845000D01*
X31956961Y-27825315D01*
X31911206Y-27772511D01*
X31900000Y-27721000D01*
X31900000Y-27595000D01*
X32400000Y-27595000D01*
X33447295Y-27595000D01*
X33447295Y-27594998D01*
X38052704Y-27594998D01*
X38052705Y-27595000D01*
X39100000Y-27595000D01*
X39100000Y-27045000D01*
X38634350Y-27045000D01*
X38597510Y-27047899D01*
X38597504Y-27047900D01*
X38439806Y-27093716D01*
X38439803Y-27093717D01*
X38298447Y-27177314D01*
X38298438Y-27177321D01*
X38182321Y-27293438D01*
X38182314Y-27293447D01*
X38098718Y-27434801D01*
X38052899Y-27592513D01*
X38052704Y-27594998D01*
X33447295Y-27594998D01*
X33447100Y-27592513D01*
X33401281Y-27434801D01*
X33317685Y-27293447D01*
X33317678Y-27293438D01*
X33201561Y-27177321D01*
X33201552Y-27177314D01*
X33060196Y-27093717D01*
X33060193Y-27093716D01*
X32902495Y-27047900D01*
X32902489Y-27047899D01*
X32865649Y-27045000D01*
X32400000Y-27045000D01*
X32400000Y-27595000D01*
X31900000Y-27595000D01*
X31900000Y-27045000D01*
X31434350Y-27045000D01*
X31397510Y-27047899D01*
X31397504Y-27047900D01*
X31239806Y-27093716D01*
X31239803Y-27093717D01*
X31140221Y-27152610D01*
X31072497Y-27169793D01*
X31006234Y-27147633D01*
X30962471Y-27093167D01*
X30953100Y-27045878D01*
X30953100Y-26125259D01*
X33303918Y-26125259D01*
X33368762Y-26144098D01*
X33376175Y-26146507D01*
X33420540Y-26162481D01*
X33427782Y-26165348D01*
X33485363Y-26190267D01*
X33492412Y-26193585D01*
X33534401Y-26214981D01*
X33541224Y-26218732D01*
X33736578Y-26334263D01*
X33743156Y-26338437D01*
X33782139Y-26364930D01*
X33788438Y-26369507D01*
X33838015Y-26407961D01*
X33844019Y-26412928D01*
X33879384Y-26444106D01*
X33885063Y-26449439D01*
X34006624Y-26571000D01*
X34091763Y-26571000D01*
X34114548Y-26573111D01*
X34250500Y-26598524D01*
X34250500Y-25362016D01*
X34237939Y-25362016D01*
X34161135Y-25491886D01*
X34156963Y-25498461D01*
X34130471Y-25537445D01*
X34125891Y-25543748D01*
X34087436Y-25593325D01*
X34082470Y-25599328D01*
X34051292Y-25634693D01*
X34045959Y-25640372D01*
X33885372Y-25800959D01*
X33879693Y-25806292D01*
X33844328Y-25837470D01*
X33838325Y-25842436D01*
X33788748Y-25880891D01*
X33782445Y-25885471D01*
X33743461Y-25911963D01*
X33736886Y-25916135D01*
X33541423Y-26031731D01*
X33534599Y-26035483D01*
X33492611Y-26056878D01*
X33485564Y-26060194D01*
X33427984Y-26085113D01*
X33420739Y-26087982D01*
X33376374Y-26103955D01*
X33368964Y-26106362D01*
X33303918Y-26125259D01*
X30953100Y-26125259D01*
X30953100Y-25204702D01*
X30972785Y-25137663D01*
X31025589Y-25091908D01*
X31094747Y-25081964D01*
X31140218Y-25097969D01*
X31239602Y-25156744D01*
X31247488Y-25159035D01*
X31397426Y-25202597D01*
X31397429Y-25202597D01*
X31397431Y-25202598D01*
X31434306Y-25205500D01*
X31434314Y-25205500D01*
X32865686Y-25205500D01*
X32865694Y-25205500D01*
X32902569Y-25202598D01*
X32902571Y-25202597D01*
X32902573Y-25202597D01*
X32960666Y-25185719D01*
X33060398Y-25156744D01*
X33201865Y-25073081D01*
X33318081Y-24956865D01*
X33401744Y-24815398D01*
X33439522Y-24685368D01*
X33447597Y-24657573D01*
X33447598Y-24657567D01*
X33450500Y-24620694D01*
X33450500Y-24317070D01*
X33470185Y-24250031D01*
X33486819Y-24229389D01*
X33837116Y-23879092D01*
X35248500Y-23879092D01*
X35248500Y-24364016D01*
X36175362Y-24364016D01*
X36626286Y-23913094D01*
X36651500Y-23887880D01*
X36651500Y-23555061D01*
X36651499Y-23555037D01*
X36651499Y-23488500D01*
X35639093Y-23488500D01*
X35248500Y-23879092D01*
X33837116Y-23879092D01*
X35189390Y-22526819D01*
X35250713Y-22493334D01*
X35277071Y-22490500D01*
X38019308Y-22490500D01*
X38086347Y-22510185D01*
G37*
%TD.AperFunction*%
%TA.AperFunction,Conductor*%
G36*
X59627593Y-26999730D02*
G01*
X59678973Y-27047079D01*
X59696597Y-27114690D01*
X59688837Y-27154228D01*
X59655909Y-27242514D01*
X59655908Y-27242516D01*
X59649501Y-27302116D01*
X59649501Y-27302123D01*
X59649500Y-27302135D01*
X59649500Y-27450500D01*
X59629815Y-27517539D01*
X59577011Y-27563294D01*
X59525500Y-27574500D01*
X59143761Y-27574500D01*
X59076722Y-27554815D01*
X59030967Y-27502011D01*
X59021023Y-27432853D01*
X59038222Y-27385403D01*
X59089582Y-27302135D01*
X59109814Y-27269334D01*
X59164999Y-27102797D01*
X59165000Y-27102784D01*
X59166417Y-27096173D01*
X59168260Y-27096567D01*
X59191145Y-27040462D01*
X59248320Y-27000303D01*
X59301999Y-26994523D01*
X59350609Y-27000000D01*
X59399998Y-27005565D01*
X59400000Y-27005565D01*
X59400003Y-27005565D01*
X59558771Y-26987676D01*
X59627593Y-26999730D01*
G37*
%TD.AperFunction*%
%TA.AperFunction,Conductor*%
G36*
X54639531Y-23844814D02*
G01*
X54688052Y-23874787D01*
X55931465Y-25118201D01*
X55964950Y-25179523D01*
X55959966Y-25249215D01*
X55918094Y-25305148D01*
X55882789Y-25323587D01*
X55755878Y-25365642D01*
X55755875Y-25365643D01*
X55606657Y-25457682D01*
X55485369Y-25578970D01*
X55424046Y-25612454D01*
X55354354Y-25607470D01*
X55298421Y-25565598D01*
X55292445Y-25556818D01*
X55292316Y-25556655D01*
X55168345Y-25432684D01*
X55019124Y-25340643D01*
X55019119Y-25340641D01*
X54852697Y-25285494D01*
X54852690Y-25285493D01*
X54749986Y-25275000D01*
X54700000Y-25275000D01*
X54700000Y-26250000D01*
X56213500Y-26250000D01*
X56280539Y-26269685D01*
X56326294Y-26322489D01*
X56337500Y-26374000D01*
X56337500Y-26626000D01*
X56317815Y-26693039D01*
X56265011Y-26738794D01*
X56213500Y-26750000D01*
X54574000Y-26750000D01*
X54506961Y-26730315D01*
X54461206Y-26677511D01*
X54450000Y-26626000D01*
X54450000Y-26500000D01*
X54324000Y-26500000D01*
X54256961Y-26480315D01*
X54211206Y-26427511D01*
X54200000Y-26376000D01*
X54200000Y-25251764D01*
X54194463Y-25241624D01*
X54199447Y-25171932D01*
X54240141Y-25116892D01*
X54345810Y-25035810D01*
X54437856Y-24915853D01*
X54495719Y-24776159D01*
X54510500Y-24663887D01*
X54510499Y-24146114D01*
X54495719Y-24033841D01*
X54485810Y-24009920D01*
X54478342Y-23940453D01*
X54509617Y-23877973D01*
X54569706Y-23842321D01*
X54639531Y-23844814D01*
G37*
%TD.AperFunction*%
%TD*%
M02*
