%TF.GenerationSoftware,KiCad,Pcbnew,8.0.8*%
%TF.CreationDate,2025-03-21T07:08:09+05:30*%
%TF.ProjectId,project2_MCU_datalogger,70726f6a-6563-4743-925f-4d43555f6461,1.0*%
%TF.SameCoordinates,Original*%
%TF.FileFunction,Legend,Top*%
%TF.FilePolarity,Positive*%
%FSLAX46Y46*%
G04 Gerber Fmt 4.6, Leading zero omitted, Abs format (unit mm)*
G04 Created by KiCad (PCBNEW 8.0.8) date 2025-03-21 07:08:09*
%MOMM*%
%LPD*%
G01*
G04 APERTURE LIST*
%ADD10C,0.150000*%
%ADD11C,0.100000*%
%ADD12C,0.125000*%
%ADD13C,0.120000*%
%ADD14C,0.127000*%
%ADD15C,0.200000*%
G04 APERTURE END LIST*
D10*
X52733333Y-28559580D02*
X52685714Y-28607200D01*
X52685714Y-28607200D02*
X52542857Y-28654819D01*
X52542857Y-28654819D02*
X52447619Y-28654819D01*
X52447619Y-28654819D02*
X52304762Y-28607200D01*
X52304762Y-28607200D02*
X52209524Y-28511961D01*
X52209524Y-28511961D02*
X52161905Y-28416723D01*
X52161905Y-28416723D02*
X52114286Y-28226247D01*
X52114286Y-28226247D02*
X52114286Y-28083390D01*
X52114286Y-28083390D02*
X52161905Y-27892914D01*
X52161905Y-27892914D02*
X52209524Y-27797676D01*
X52209524Y-27797676D02*
X52304762Y-27702438D01*
X52304762Y-27702438D02*
X52447619Y-27654819D01*
X52447619Y-27654819D02*
X52542857Y-27654819D01*
X52542857Y-27654819D02*
X52685714Y-27702438D01*
X52685714Y-27702438D02*
X52733333Y-27750057D01*
X53590476Y-27988152D02*
X53590476Y-28654819D01*
X53352381Y-27607200D02*
X53114286Y-28321485D01*
X53114286Y-28321485D02*
X53733333Y-28321485D01*
X31424819Y-46333333D02*
X32139104Y-46333333D01*
X32139104Y-46333333D02*
X32281961Y-46380952D01*
X32281961Y-46380952D02*
X32377200Y-46476190D01*
X32377200Y-46476190D02*
X32424819Y-46619047D01*
X32424819Y-46619047D02*
X32424819Y-46714285D01*
X31424819Y-45952380D02*
X31424819Y-45333333D01*
X31424819Y-45333333D02*
X31805771Y-45666666D01*
X31805771Y-45666666D02*
X31805771Y-45523809D01*
X31805771Y-45523809D02*
X31853390Y-45428571D01*
X31853390Y-45428571D02*
X31901009Y-45380952D01*
X31901009Y-45380952D02*
X31996247Y-45333333D01*
X31996247Y-45333333D02*
X32234342Y-45333333D01*
X32234342Y-45333333D02*
X32329580Y-45380952D01*
X32329580Y-45380952D02*
X32377200Y-45428571D01*
X32377200Y-45428571D02*
X32424819Y-45523809D01*
X32424819Y-45523809D02*
X32424819Y-45809523D01*
X32424819Y-45809523D02*
X32377200Y-45904761D01*
X32377200Y-45904761D02*
X32329580Y-45952380D01*
X43804819Y-30416666D02*
X43328628Y-30749999D01*
X43804819Y-30988094D02*
X42804819Y-30988094D01*
X42804819Y-30988094D02*
X42804819Y-30607142D01*
X42804819Y-30607142D02*
X42852438Y-30511904D01*
X42852438Y-30511904D02*
X42900057Y-30464285D01*
X42900057Y-30464285D02*
X42995295Y-30416666D01*
X42995295Y-30416666D02*
X43138152Y-30416666D01*
X43138152Y-30416666D02*
X43233390Y-30464285D01*
X43233390Y-30464285D02*
X43281009Y-30511904D01*
X43281009Y-30511904D02*
X43328628Y-30607142D01*
X43328628Y-30607142D02*
X43328628Y-30988094D01*
X43804819Y-29464285D02*
X43804819Y-30035713D01*
X43804819Y-29749999D02*
X42804819Y-29749999D01*
X42804819Y-29749999D02*
X42947676Y-29845237D01*
X42947676Y-29845237D02*
X43042914Y-29940475D01*
X43042914Y-29940475D02*
X43090533Y-30035713D01*
X53179580Y-41166666D02*
X53227200Y-41214285D01*
X53227200Y-41214285D02*
X53274819Y-41357142D01*
X53274819Y-41357142D02*
X53274819Y-41452380D01*
X53274819Y-41452380D02*
X53227200Y-41595237D01*
X53227200Y-41595237D02*
X53131961Y-41690475D01*
X53131961Y-41690475D02*
X53036723Y-41738094D01*
X53036723Y-41738094D02*
X52846247Y-41785713D01*
X52846247Y-41785713D02*
X52703390Y-41785713D01*
X52703390Y-41785713D02*
X52512914Y-41738094D01*
X52512914Y-41738094D02*
X52417676Y-41690475D01*
X52417676Y-41690475D02*
X52322438Y-41595237D01*
X52322438Y-41595237D02*
X52274819Y-41452380D01*
X52274819Y-41452380D02*
X52274819Y-41357142D01*
X52274819Y-41357142D02*
X52322438Y-41214285D01*
X52322438Y-41214285D02*
X52370057Y-41166666D01*
X52274819Y-40261904D02*
X52274819Y-40738094D01*
X52274819Y-40738094D02*
X52751009Y-40785713D01*
X52751009Y-40785713D02*
X52703390Y-40738094D01*
X52703390Y-40738094D02*
X52655771Y-40642856D01*
X52655771Y-40642856D02*
X52655771Y-40404761D01*
X52655771Y-40404761D02*
X52703390Y-40309523D01*
X52703390Y-40309523D02*
X52751009Y-40261904D01*
X52751009Y-40261904D02*
X52846247Y-40214285D01*
X52846247Y-40214285D02*
X53084342Y-40214285D01*
X53084342Y-40214285D02*
X53179580Y-40261904D01*
X53179580Y-40261904D02*
X53227200Y-40309523D01*
X53227200Y-40309523D02*
X53274819Y-40404761D01*
X53274819Y-40404761D02*
X53274819Y-40642856D01*
X53274819Y-40642856D02*
X53227200Y-40738094D01*
X53227200Y-40738094D02*
X53179580Y-40785713D01*
D11*
X56316666Y-28026109D02*
X56150000Y-27788014D01*
X56030952Y-28026109D02*
X56030952Y-27526109D01*
X56030952Y-27526109D02*
X56221428Y-27526109D01*
X56221428Y-27526109D02*
X56269047Y-27549919D01*
X56269047Y-27549919D02*
X56292857Y-27573728D01*
X56292857Y-27573728D02*
X56316666Y-27621347D01*
X56316666Y-27621347D02*
X56316666Y-27692776D01*
X56316666Y-27692776D02*
X56292857Y-27740395D01*
X56292857Y-27740395D02*
X56269047Y-27764204D01*
X56269047Y-27764204D02*
X56221428Y-27788014D01*
X56221428Y-27788014D02*
X56030952Y-27788014D01*
X56745238Y-27526109D02*
X56650000Y-27526109D01*
X56650000Y-27526109D02*
X56602381Y-27549919D01*
X56602381Y-27549919D02*
X56578571Y-27573728D01*
X56578571Y-27573728D02*
X56530952Y-27645157D01*
X56530952Y-27645157D02*
X56507143Y-27740395D01*
X56507143Y-27740395D02*
X56507143Y-27930871D01*
X56507143Y-27930871D02*
X56530952Y-27978490D01*
X56530952Y-27978490D02*
X56554762Y-28002300D01*
X56554762Y-28002300D02*
X56602381Y-28026109D01*
X56602381Y-28026109D02*
X56697619Y-28026109D01*
X56697619Y-28026109D02*
X56745238Y-28002300D01*
X56745238Y-28002300D02*
X56769047Y-27978490D01*
X56769047Y-27978490D02*
X56792857Y-27930871D01*
X56792857Y-27930871D02*
X56792857Y-27811823D01*
X56792857Y-27811823D02*
X56769047Y-27764204D01*
X56769047Y-27764204D02*
X56745238Y-27740395D01*
X56745238Y-27740395D02*
X56697619Y-27716585D01*
X56697619Y-27716585D02*
X56602381Y-27716585D01*
X56602381Y-27716585D02*
X56554762Y-27740395D01*
X56554762Y-27740395D02*
X56530952Y-27764204D01*
X56530952Y-27764204D02*
X56507143Y-27811823D01*
D10*
X53738095Y-18354819D02*
X53738095Y-19164342D01*
X53738095Y-19164342D02*
X53785714Y-19259580D01*
X53785714Y-19259580D02*
X53833333Y-19307200D01*
X53833333Y-19307200D02*
X53928571Y-19354819D01*
X53928571Y-19354819D02*
X54119047Y-19354819D01*
X54119047Y-19354819D02*
X54214285Y-19307200D01*
X54214285Y-19307200D02*
X54261904Y-19259580D01*
X54261904Y-19259580D02*
X54309523Y-19164342D01*
X54309523Y-19164342D02*
X54309523Y-18354819D01*
X54690476Y-18354819D02*
X55309523Y-18354819D01*
X55309523Y-18354819D02*
X54976190Y-18735771D01*
X54976190Y-18735771D02*
X55119047Y-18735771D01*
X55119047Y-18735771D02*
X55214285Y-18783390D01*
X55214285Y-18783390D02*
X55261904Y-18831009D01*
X55261904Y-18831009D02*
X55309523Y-18926247D01*
X55309523Y-18926247D02*
X55309523Y-19164342D01*
X55309523Y-19164342D02*
X55261904Y-19259580D01*
X55261904Y-19259580D02*
X55214285Y-19307200D01*
X55214285Y-19307200D02*
X55119047Y-19354819D01*
X55119047Y-19354819D02*
X54833333Y-19354819D01*
X54833333Y-19354819D02*
X54738095Y-19307200D01*
X54738095Y-19307200D02*
X54690476Y-19259580D01*
X48154819Y-35038094D02*
X47154819Y-35038094D01*
X47154819Y-35038094D02*
X47154819Y-34799999D01*
X47154819Y-34799999D02*
X47202438Y-34657142D01*
X47202438Y-34657142D02*
X47297676Y-34561904D01*
X47297676Y-34561904D02*
X47392914Y-34514285D01*
X47392914Y-34514285D02*
X47583390Y-34466666D01*
X47583390Y-34466666D02*
X47726247Y-34466666D01*
X47726247Y-34466666D02*
X47916723Y-34514285D01*
X47916723Y-34514285D02*
X48011961Y-34561904D01*
X48011961Y-34561904D02*
X48107200Y-34657142D01*
X48107200Y-34657142D02*
X48154819Y-34799999D01*
X48154819Y-34799999D02*
X48154819Y-35038094D01*
X47250057Y-34085713D02*
X47202438Y-34038094D01*
X47202438Y-34038094D02*
X47154819Y-33942856D01*
X47154819Y-33942856D02*
X47154819Y-33704761D01*
X47154819Y-33704761D02*
X47202438Y-33609523D01*
X47202438Y-33609523D02*
X47250057Y-33561904D01*
X47250057Y-33561904D02*
X47345295Y-33514285D01*
X47345295Y-33514285D02*
X47440533Y-33514285D01*
X47440533Y-33514285D02*
X47583390Y-33561904D01*
X47583390Y-33561904D02*
X48154819Y-34133332D01*
X48154819Y-34133332D02*
X48154819Y-33514285D01*
X43421666Y-28309819D02*
X43421666Y-29024104D01*
X43421666Y-29024104D02*
X43374047Y-29166961D01*
X43374047Y-29166961D02*
X43278809Y-29262200D01*
X43278809Y-29262200D02*
X43135952Y-29309819D01*
X43135952Y-29309819D02*
X43040714Y-29309819D01*
X44326428Y-28643152D02*
X44326428Y-29309819D01*
X44088333Y-28262200D02*
X43850238Y-28976485D01*
X43850238Y-28976485D02*
X44469285Y-28976485D01*
X61488095Y-19454819D02*
X61488095Y-18454819D01*
X61488095Y-18931009D02*
X62059523Y-18931009D01*
X62059523Y-19454819D02*
X62059523Y-18454819D01*
X62440476Y-18454819D02*
X63059523Y-18454819D01*
X63059523Y-18454819D02*
X62726190Y-18835771D01*
X62726190Y-18835771D02*
X62869047Y-18835771D01*
X62869047Y-18835771D02*
X62964285Y-18883390D01*
X62964285Y-18883390D02*
X63011904Y-18931009D01*
X63011904Y-18931009D02*
X63059523Y-19026247D01*
X63059523Y-19026247D02*
X63059523Y-19264342D01*
X63059523Y-19264342D02*
X63011904Y-19359580D01*
X63011904Y-19359580D02*
X62964285Y-19407200D01*
X62964285Y-19407200D02*
X62869047Y-19454819D01*
X62869047Y-19454819D02*
X62583333Y-19454819D01*
X62583333Y-19454819D02*
X62488095Y-19407200D01*
X62488095Y-19407200D02*
X62440476Y-19359580D01*
X24938095Y-47554819D02*
X24938095Y-46554819D01*
X24938095Y-47031009D02*
X25509523Y-47031009D01*
X25509523Y-47554819D02*
X25509523Y-46554819D01*
X25938095Y-46650057D02*
X25985714Y-46602438D01*
X25985714Y-46602438D02*
X26080952Y-46554819D01*
X26080952Y-46554819D02*
X26319047Y-46554819D01*
X26319047Y-46554819D02*
X26414285Y-46602438D01*
X26414285Y-46602438D02*
X26461904Y-46650057D01*
X26461904Y-46650057D02*
X26509523Y-46745295D01*
X26509523Y-46745295D02*
X26509523Y-46840533D01*
X26509523Y-46840533D02*
X26461904Y-46983390D01*
X26461904Y-46983390D02*
X25890476Y-47554819D01*
X25890476Y-47554819D02*
X26509523Y-47554819D01*
X34338095Y-25654819D02*
X34338095Y-26464342D01*
X34338095Y-26464342D02*
X34385714Y-26559580D01*
X34385714Y-26559580D02*
X34433333Y-26607200D01*
X34433333Y-26607200D02*
X34528571Y-26654819D01*
X34528571Y-26654819D02*
X34719047Y-26654819D01*
X34719047Y-26654819D02*
X34814285Y-26607200D01*
X34814285Y-26607200D02*
X34861904Y-26559580D01*
X34861904Y-26559580D02*
X34909523Y-26464342D01*
X34909523Y-26464342D02*
X34909523Y-25654819D01*
X35338095Y-25750057D02*
X35385714Y-25702438D01*
X35385714Y-25702438D02*
X35480952Y-25654819D01*
X35480952Y-25654819D02*
X35719047Y-25654819D01*
X35719047Y-25654819D02*
X35814285Y-25702438D01*
X35814285Y-25702438D02*
X35861904Y-25750057D01*
X35861904Y-25750057D02*
X35909523Y-25845295D01*
X35909523Y-25845295D02*
X35909523Y-25940533D01*
X35909523Y-25940533D02*
X35861904Y-26083390D01*
X35861904Y-26083390D02*
X35290476Y-26654819D01*
X35290476Y-26654819D02*
X35909523Y-26654819D01*
X47954819Y-38866666D02*
X47478628Y-39199999D01*
X47954819Y-39438094D02*
X46954819Y-39438094D01*
X46954819Y-39438094D02*
X46954819Y-39057142D01*
X46954819Y-39057142D02*
X47002438Y-38961904D01*
X47002438Y-38961904D02*
X47050057Y-38914285D01*
X47050057Y-38914285D02*
X47145295Y-38866666D01*
X47145295Y-38866666D02*
X47288152Y-38866666D01*
X47288152Y-38866666D02*
X47383390Y-38914285D01*
X47383390Y-38914285D02*
X47431009Y-38961904D01*
X47431009Y-38961904D02*
X47478628Y-39057142D01*
X47478628Y-39057142D02*
X47478628Y-39438094D01*
X46954819Y-38533332D02*
X46954819Y-37866666D01*
X46954819Y-37866666D02*
X47954819Y-38295237D01*
X43333333Y-41554819D02*
X43000000Y-41078628D01*
X42761905Y-41554819D02*
X42761905Y-40554819D01*
X42761905Y-40554819D02*
X43142857Y-40554819D01*
X43142857Y-40554819D02*
X43238095Y-40602438D01*
X43238095Y-40602438D02*
X43285714Y-40650057D01*
X43285714Y-40650057D02*
X43333333Y-40745295D01*
X43333333Y-40745295D02*
X43333333Y-40888152D01*
X43333333Y-40888152D02*
X43285714Y-40983390D01*
X43285714Y-40983390D02*
X43238095Y-41031009D01*
X43238095Y-41031009D02*
X43142857Y-41078628D01*
X43142857Y-41078628D02*
X42761905Y-41078628D01*
X44190476Y-40888152D02*
X44190476Y-41554819D01*
X43952381Y-40507200D02*
X43714286Y-41221485D01*
X43714286Y-41221485D02*
X44333333Y-41221485D01*
X29538095Y-33654819D02*
X29538095Y-34464342D01*
X29538095Y-34464342D02*
X29585714Y-34559580D01*
X29585714Y-34559580D02*
X29633333Y-34607200D01*
X29633333Y-34607200D02*
X29728571Y-34654819D01*
X29728571Y-34654819D02*
X29919047Y-34654819D01*
X29919047Y-34654819D02*
X30014285Y-34607200D01*
X30014285Y-34607200D02*
X30061904Y-34559580D01*
X30061904Y-34559580D02*
X30109523Y-34464342D01*
X30109523Y-34464342D02*
X30109523Y-33654819D01*
X31014285Y-33988152D02*
X31014285Y-34654819D01*
X30776190Y-33607200D02*
X30538095Y-34321485D01*
X30538095Y-34321485D02*
X31157142Y-34321485D01*
X57014285Y-37131009D02*
X57157142Y-37178628D01*
X57157142Y-37178628D02*
X57204761Y-37226247D01*
X57204761Y-37226247D02*
X57252380Y-37321485D01*
X57252380Y-37321485D02*
X57252380Y-37464342D01*
X57252380Y-37464342D02*
X57204761Y-37559580D01*
X57204761Y-37559580D02*
X57157142Y-37607200D01*
X57157142Y-37607200D02*
X57061904Y-37654819D01*
X57061904Y-37654819D02*
X56680952Y-37654819D01*
X56680952Y-37654819D02*
X56680952Y-36654819D01*
X56680952Y-36654819D02*
X57014285Y-36654819D01*
X57014285Y-36654819D02*
X57109523Y-36702438D01*
X57109523Y-36702438D02*
X57157142Y-36750057D01*
X57157142Y-36750057D02*
X57204761Y-36845295D01*
X57204761Y-36845295D02*
X57204761Y-36940533D01*
X57204761Y-36940533D02*
X57157142Y-37035771D01*
X57157142Y-37035771D02*
X57109523Y-37083390D01*
X57109523Y-37083390D02*
X57014285Y-37131009D01*
X57014285Y-37131009D02*
X56680952Y-37131009D01*
X57538095Y-36654819D02*
X58109523Y-36654819D01*
X57823809Y-37654819D02*
X57823809Y-36654819D01*
X58966666Y-37654819D02*
X58395238Y-37654819D01*
X58680952Y-37654819D02*
X58680952Y-36654819D01*
X58680952Y-36654819D02*
X58585714Y-36797676D01*
X58585714Y-36797676D02*
X58490476Y-36892914D01*
X58490476Y-36892914D02*
X58395238Y-36940533D01*
X60866666Y-25254819D02*
X60866666Y-25969104D01*
X60866666Y-25969104D02*
X60819047Y-26111961D01*
X60819047Y-26111961D02*
X60723809Y-26207200D01*
X60723809Y-26207200D02*
X60580952Y-26254819D01*
X60580952Y-26254819D02*
X60485714Y-26254819D01*
X61866666Y-26254819D02*
X61295238Y-26254819D01*
X61580952Y-26254819D02*
X61580952Y-25254819D01*
X61580952Y-25254819D02*
X61485714Y-25397676D01*
X61485714Y-25397676D02*
X61390476Y-25492914D01*
X61390476Y-25492914D02*
X61295238Y-25540533D01*
X46428628Y-24976190D02*
X46904819Y-24976190D01*
X45904819Y-25309523D02*
X46428628Y-24976190D01*
X46428628Y-24976190D02*
X45904819Y-24642857D01*
X46904819Y-23785714D02*
X46904819Y-24357142D01*
X46904819Y-24071428D02*
X45904819Y-24071428D01*
X45904819Y-24071428D02*
X46047676Y-24166666D01*
X46047676Y-24166666D02*
X46142914Y-24261904D01*
X46142914Y-24261904D02*
X46190533Y-24357142D01*
X53959580Y-38466666D02*
X54007200Y-38514285D01*
X54007200Y-38514285D02*
X54054819Y-38657142D01*
X54054819Y-38657142D02*
X54054819Y-38752380D01*
X54054819Y-38752380D02*
X54007200Y-38895237D01*
X54007200Y-38895237D02*
X53911961Y-38990475D01*
X53911961Y-38990475D02*
X53816723Y-39038094D01*
X53816723Y-39038094D02*
X53626247Y-39085713D01*
X53626247Y-39085713D02*
X53483390Y-39085713D01*
X53483390Y-39085713D02*
X53292914Y-39038094D01*
X53292914Y-39038094D02*
X53197676Y-38990475D01*
X53197676Y-38990475D02*
X53102438Y-38895237D01*
X53102438Y-38895237D02*
X53054819Y-38752380D01*
X53054819Y-38752380D02*
X53054819Y-38657142D01*
X53054819Y-38657142D02*
X53102438Y-38514285D01*
X53102438Y-38514285D02*
X53150057Y-38466666D01*
X53054819Y-38133332D02*
X53054819Y-37514285D01*
X53054819Y-37514285D02*
X53435771Y-37847618D01*
X53435771Y-37847618D02*
X53435771Y-37704761D01*
X53435771Y-37704761D02*
X53483390Y-37609523D01*
X53483390Y-37609523D02*
X53531009Y-37561904D01*
X53531009Y-37561904D02*
X53626247Y-37514285D01*
X53626247Y-37514285D02*
X53864342Y-37514285D01*
X53864342Y-37514285D02*
X53959580Y-37561904D01*
X53959580Y-37561904D02*
X54007200Y-37609523D01*
X54007200Y-37609523D02*
X54054819Y-37704761D01*
X54054819Y-37704761D02*
X54054819Y-37990475D01*
X54054819Y-37990475D02*
X54007200Y-38085713D01*
X54007200Y-38085713D02*
X53959580Y-38133332D01*
D12*
X53524809Y-42283333D02*
X53286714Y-42449999D01*
X53524809Y-42569047D02*
X53024809Y-42569047D01*
X53024809Y-42569047D02*
X53024809Y-42378571D01*
X53024809Y-42378571D02*
X53048619Y-42330952D01*
X53048619Y-42330952D02*
X53072428Y-42307142D01*
X53072428Y-42307142D02*
X53120047Y-42283333D01*
X53120047Y-42283333D02*
X53191476Y-42283333D01*
X53191476Y-42283333D02*
X53239095Y-42307142D01*
X53239095Y-42307142D02*
X53262904Y-42330952D01*
X53262904Y-42330952D02*
X53286714Y-42378571D01*
X53286714Y-42378571D02*
X53286714Y-42569047D01*
X53024809Y-42116666D02*
X53024809Y-41807142D01*
X53024809Y-41807142D02*
X53215285Y-41973809D01*
X53215285Y-41973809D02*
X53215285Y-41902380D01*
X53215285Y-41902380D02*
X53239095Y-41854761D01*
X53239095Y-41854761D02*
X53262904Y-41830952D01*
X53262904Y-41830952D02*
X53310523Y-41807142D01*
X53310523Y-41807142D02*
X53429571Y-41807142D01*
X53429571Y-41807142D02*
X53477190Y-41830952D01*
X53477190Y-41830952D02*
X53501000Y-41854761D01*
X53501000Y-41854761D02*
X53524809Y-41902380D01*
X53524809Y-41902380D02*
X53524809Y-42045237D01*
X53524809Y-42045237D02*
X53501000Y-42092856D01*
X53501000Y-42092856D02*
X53477190Y-42116666D01*
D10*
X27366666Y-26854819D02*
X27366666Y-27569104D01*
X27366666Y-27569104D02*
X27319047Y-27711961D01*
X27319047Y-27711961D02*
X27223809Y-27807200D01*
X27223809Y-27807200D02*
X27080952Y-27854819D01*
X27080952Y-27854819D02*
X26985714Y-27854819D01*
X27795238Y-26950057D02*
X27842857Y-26902438D01*
X27842857Y-26902438D02*
X27938095Y-26854819D01*
X27938095Y-26854819D02*
X28176190Y-26854819D01*
X28176190Y-26854819D02*
X28271428Y-26902438D01*
X28271428Y-26902438D02*
X28319047Y-26950057D01*
X28319047Y-26950057D02*
X28366666Y-27045295D01*
X28366666Y-27045295D02*
X28366666Y-27140533D01*
X28366666Y-27140533D02*
X28319047Y-27283390D01*
X28319047Y-27283390D02*
X27747619Y-27854819D01*
X27747619Y-27854819D02*
X28366666Y-27854819D01*
X27488095Y-19454819D02*
X27488095Y-18454819D01*
X27488095Y-18931009D02*
X28059523Y-18931009D01*
X28059523Y-19454819D02*
X28059523Y-18454819D01*
X29059523Y-19454819D02*
X28488095Y-19454819D01*
X28773809Y-19454819D02*
X28773809Y-18454819D01*
X28773809Y-18454819D02*
X28678571Y-18597676D01*
X28678571Y-18597676D02*
X28583333Y-18692914D01*
X28583333Y-18692914D02*
X28488095Y-18740533D01*
D12*
X28116666Y-42377190D02*
X28092857Y-42401000D01*
X28092857Y-42401000D02*
X28021428Y-42424809D01*
X28021428Y-42424809D02*
X27973809Y-42424809D01*
X27973809Y-42424809D02*
X27902381Y-42401000D01*
X27902381Y-42401000D02*
X27854762Y-42353380D01*
X27854762Y-42353380D02*
X27830952Y-42305761D01*
X27830952Y-42305761D02*
X27807143Y-42210523D01*
X27807143Y-42210523D02*
X27807143Y-42139095D01*
X27807143Y-42139095D02*
X27830952Y-42043857D01*
X27830952Y-42043857D02*
X27854762Y-41996238D01*
X27854762Y-41996238D02*
X27902381Y-41948619D01*
X27902381Y-41948619D02*
X27973809Y-41924809D01*
X27973809Y-41924809D02*
X28021428Y-41924809D01*
X28021428Y-41924809D02*
X28092857Y-41948619D01*
X28092857Y-41948619D02*
X28116666Y-41972428D01*
X28592857Y-42424809D02*
X28307143Y-42424809D01*
X28450000Y-42424809D02*
X28450000Y-41924809D01*
X28450000Y-41924809D02*
X28402381Y-41996238D01*
X28402381Y-41996238D02*
X28354762Y-42043857D01*
X28354762Y-42043857D02*
X28307143Y-42067666D01*
D10*
X54154819Y-35938094D02*
X53154819Y-35938094D01*
X53154819Y-35938094D02*
X53154819Y-35699999D01*
X53154819Y-35699999D02*
X53202438Y-35557142D01*
X53202438Y-35557142D02*
X53297676Y-35461904D01*
X53297676Y-35461904D02*
X53392914Y-35414285D01*
X53392914Y-35414285D02*
X53583390Y-35366666D01*
X53583390Y-35366666D02*
X53726247Y-35366666D01*
X53726247Y-35366666D02*
X53916723Y-35414285D01*
X53916723Y-35414285D02*
X54011961Y-35461904D01*
X54011961Y-35461904D02*
X54107200Y-35557142D01*
X54107200Y-35557142D02*
X54154819Y-35699999D01*
X54154819Y-35699999D02*
X54154819Y-35938094D01*
X54154819Y-34414285D02*
X54154819Y-34985713D01*
X54154819Y-34699999D02*
X53154819Y-34699999D01*
X53154819Y-34699999D02*
X53297676Y-34795237D01*
X53297676Y-34795237D02*
X53392914Y-34890475D01*
X53392914Y-34890475D02*
X53440533Y-34985713D01*
X46528628Y-37476190D02*
X47004819Y-37476190D01*
X46004819Y-37809523D02*
X46528628Y-37476190D01*
X46528628Y-37476190D02*
X46004819Y-37142857D01*
X46100057Y-36857142D02*
X46052438Y-36809523D01*
X46052438Y-36809523D02*
X46004819Y-36714285D01*
X46004819Y-36714285D02*
X46004819Y-36476190D01*
X46004819Y-36476190D02*
X46052438Y-36380952D01*
X46052438Y-36380952D02*
X46100057Y-36333333D01*
X46100057Y-36333333D02*
X46195295Y-36285714D01*
X46195295Y-36285714D02*
X46290533Y-36285714D01*
X46290533Y-36285714D02*
X46433390Y-36333333D01*
X46433390Y-36333333D02*
X47004819Y-36904761D01*
X47004819Y-36904761D02*
X47004819Y-36285714D01*
X46304819Y-31616666D02*
X45828628Y-31949999D01*
X46304819Y-32188094D02*
X45304819Y-32188094D01*
X45304819Y-32188094D02*
X45304819Y-31807142D01*
X45304819Y-31807142D02*
X45352438Y-31711904D01*
X45352438Y-31711904D02*
X45400057Y-31664285D01*
X45400057Y-31664285D02*
X45495295Y-31616666D01*
X45495295Y-31616666D02*
X45638152Y-31616666D01*
X45638152Y-31616666D02*
X45733390Y-31664285D01*
X45733390Y-31664285D02*
X45781009Y-31711904D01*
X45781009Y-31711904D02*
X45828628Y-31807142D01*
X45828628Y-31807142D02*
X45828628Y-32188094D01*
X45400057Y-31235713D02*
X45352438Y-31188094D01*
X45352438Y-31188094D02*
X45304819Y-31092856D01*
X45304819Y-31092856D02*
X45304819Y-30854761D01*
X45304819Y-30854761D02*
X45352438Y-30759523D01*
X45352438Y-30759523D02*
X45400057Y-30711904D01*
X45400057Y-30711904D02*
X45495295Y-30664285D01*
X45495295Y-30664285D02*
X45590533Y-30664285D01*
X45590533Y-30664285D02*
X45733390Y-30711904D01*
X45733390Y-30711904D02*
X46304819Y-31283332D01*
X46304819Y-31283332D02*
X46304819Y-30664285D01*
X47929580Y-42416666D02*
X47977200Y-42464285D01*
X47977200Y-42464285D02*
X48024819Y-42607142D01*
X48024819Y-42607142D02*
X48024819Y-42702380D01*
X48024819Y-42702380D02*
X47977200Y-42845237D01*
X47977200Y-42845237D02*
X47881961Y-42940475D01*
X47881961Y-42940475D02*
X47786723Y-42988094D01*
X47786723Y-42988094D02*
X47596247Y-43035713D01*
X47596247Y-43035713D02*
X47453390Y-43035713D01*
X47453390Y-43035713D02*
X47262914Y-42988094D01*
X47262914Y-42988094D02*
X47167676Y-42940475D01*
X47167676Y-42940475D02*
X47072438Y-42845237D01*
X47072438Y-42845237D02*
X47024819Y-42702380D01*
X47024819Y-42702380D02*
X47024819Y-42607142D01*
X47024819Y-42607142D02*
X47072438Y-42464285D01*
X47072438Y-42464285D02*
X47120057Y-42416666D01*
X47120057Y-42035713D02*
X47072438Y-41988094D01*
X47072438Y-41988094D02*
X47024819Y-41892856D01*
X47024819Y-41892856D02*
X47024819Y-41654761D01*
X47024819Y-41654761D02*
X47072438Y-41559523D01*
X47072438Y-41559523D02*
X47120057Y-41511904D01*
X47120057Y-41511904D02*
X47215295Y-41464285D01*
X47215295Y-41464285D02*
X47310533Y-41464285D01*
X47310533Y-41464285D02*
X47453390Y-41511904D01*
X47453390Y-41511904D02*
X48024819Y-42083332D01*
X48024819Y-42083332D02*
X48024819Y-41464285D01*
X35138095Y-18454819D02*
X35138095Y-19264342D01*
X35138095Y-19264342D02*
X35185714Y-19359580D01*
X35185714Y-19359580D02*
X35233333Y-19407200D01*
X35233333Y-19407200D02*
X35328571Y-19454819D01*
X35328571Y-19454819D02*
X35519047Y-19454819D01*
X35519047Y-19454819D02*
X35614285Y-19407200D01*
X35614285Y-19407200D02*
X35661904Y-19359580D01*
X35661904Y-19359580D02*
X35709523Y-19264342D01*
X35709523Y-19264342D02*
X35709523Y-18454819D01*
X36709523Y-19454819D02*
X36138095Y-19454819D01*
X36423809Y-19454819D02*
X36423809Y-18454819D01*
X36423809Y-18454819D02*
X36328571Y-18597676D01*
X36328571Y-18597676D02*
X36233333Y-18692914D01*
X36233333Y-18692914D02*
X36138095Y-18740533D01*
X53733333Y-33154819D02*
X53400000Y-32678628D01*
X53161905Y-33154819D02*
X53161905Y-32154819D01*
X53161905Y-32154819D02*
X53542857Y-32154819D01*
X53542857Y-32154819D02*
X53638095Y-32202438D01*
X53638095Y-32202438D02*
X53685714Y-32250057D01*
X53685714Y-32250057D02*
X53733333Y-32345295D01*
X53733333Y-32345295D02*
X53733333Y-32488152D01*
X53733333Y-32488152D02*
X53685714Y-32583390D01*
X53685714Y-32583390D02*
X53638095Y-32631009D01*
X53638095Y-32631009D02*
X53542857Y-32678628D01*
X53542857Y-32678628D02*
X53161905Y-32678628D01*
X54638095Y-32154819D02*
X54161905Y-32154819D01*
X54161905Y-32154819D02*
X54114286Y-32631009D01*
X54114286Y-32631009D02*
X54161905Y-32583390D01*
X54161905Y-32583390D02*
X54257143Y-32535771D01*
X54257143Y-32535771D02*
X54495238Y-32535771D01*
X54495238Y-32535771D02*
X54590476Y-32583390D01*
X54590476Y-32583390D02*
X54638095Y-32631009D01*
X54638095Y-32631009D02*
X54685714Y-32726247D01*
X54685714Y-32726247D02*
X54685714Y-32964342D01*
X54685714Y-32964342D02*
X54638095Y-33059580D01*
X54638095Y-33059580D02*
X54590476Y-33107200D01*
X54590476Y-33107200D02*
X54495238Y-33154819D01*
X54495238Y-33154819D02*
X54257143Y-33154819D01*
X54257143Y-33154819D02*
X54161905Y-33107200D01*
X54161905Y-33107200D02*
X54114286Y-33059580D01*
D13*
%TO.C,C4*%
X53761252Y-25765000D02*
X53238748Y-25765000D01*
X53761252Y-27235000D02*
X53238748Y-27235000D01*
%TO.C,J3*%
X32970000Y-47330000D02*
X32970000Y-46000000D01*
X34300000Y-47330000D02*
X32970000Y-47330000D01*
X35570000Y-44670000D02*
X55950000Y-44670000D01*
X35570000Y-47330000D02*
X35570000Y-44670000D01*
X35570000Y-47330000D02*
X55950000Y-47330000D01*
X55950000Y-47330000D02*
X55950000Y-44670000D01*
%TO.C,R1*%
X44265000Y-30477064D02*
X44265000Y-30022936D01*
X45735000Y-30477064D02*
X45735000Y-30022936D01*
%TO.C,C5*%
X53765000Y-41261252D02*
X53765000Y-40738748D01*
X55235000Y-41261252D02*
X55235000Y-40738748D01*
%TO.C,R6*%
X57022936Y-25765000D02*
X57477064Y-25765000D01*
X57022936Y-27235000D02*
X57477064Y-27235000D01*
D14*
%TO.C,U3*%
X53500000Y-19980000D02*
X57500000Y-19980000D01*
X53500000Y-25020000D02*
X57500000Y-25020000D01*
D15*
X51155000Y-20005000D02*
G75*
G02*
X50955000Y-20005000I-100000J0D01*
G01*
X50955000Y-20005000D02*
G75*
G02*
X51155000Y-20005000I100000J0D01*
G01*
D13*
%TO.C,D2*%
X48290000Y-34000000D02*
X48290000Y-36685000D01*
X48290000Y-36685000D02*
X50210000Y-36685000D01*
X50210000Y-36685000D02*
X50210000Y-34000000D01*
%TO.C,J4*%
X41155000Y-27855000D02*
X41155000Y-20115000D01*
X43755000Y-25255000D02*
X43755000Y-27855000D01*
X43755000Y-27855000D02*
X41155000Y-27855000D01*
X46355000Y-20115000D02*
X41155000Y-20115000D01*
X46355000Y-25255000D02*
X43755000Y-25255000D01*
X46355000Y-25255000D02*
X46355000Y-20115000D01*
X46355000Y-26525000D02*
X46355000Y-27855000D01*
X46355000Y-27855000D02*
X45025000Y-27855000D01*
%TO.C,U2*%
X33025000Y-27025000D02*
X33025000Y-27285000D01*
X33025000Y-32475000D02*
X33025000Y-32215000D01*
X35750000Y-27025000D02*
X33025000Y-27025000D01*
X35750000Y-27025000D02*
X38475000Y-27025000D01*
X35750000Y-32475000D02*
X33025000Y-32475000D01*
X35750000Y-32475000D02*
X38475000Y-32475000D01*
X38475000Y-27025000D02*
X38475000Y-27285000D01*
X38475000Y-32475000D02*
X38475000Y-32215000D01*
X32242500Y-27285000D02*
X32002500Y-26955000D01*
X32482500Y-26955000D01*
X32242500Y-27285000D01*
G36*
X32242500Y-27285000D02*
G01*
X32002500Y-26955000D01*
X32482500Y-26955000D01*
X32242500Y-27285000D01*
G37*
%TO.C,R7*%
X51265000Y-38727064D02*
X51265000Y-38272936D01*
X52735000Y-38727064D02*
X52735000Y-38272936D01*
%TO.C,R4*%
X43272936Y-42015000D02*
X43727064Y-42015000D01*
X43272936Y-43485000D02*
X43727064Y-43485000D01*
D14*
%TO.C,U4*%
X32895000Y-34835000D02*
X32895000Y-34940000D01*
X32895000Y-34835000D02*
X33000000Y-34835000D01*
X32895000Y-41835000D02*
X32895000Y-41730000D01*
X32895000Y-41835000D02*
X33000000Y-41835000D01*
X39895000Y-34835000D02*
X39790000Y-34835000D01*
X39895000Y-34835000D02*
X39895000Y-34940000D01*
X39895000Y-41835000D02*
X39790000Y-41835000D01*
X39895000Y-41835000D02*
X39895000Y-41730000D01*
D15*
X42335000Y-41135000D02*
G75*
G02*
X42135000Y-41135000I-100000J0D01*
G01*
X42135000Y-41135000D02*
G75*
G02*
X42335000Y-41135000I100000J0D01*
G01*
D13*
%TO.C,BT1*%
X56170000Y-40755000D02*
X56170000Y-38155000D01*
X58830000Y-38155000D02*
X56170000Y-38155000D01*
X58830000Y-40755000D02*
X56170000Y-40755000D01*
X58830000Y-40755000D02*
X58830000Y-38155000D01*
X58830000Y-42025000D02*
X58830000Y-43355000D01*
X58830000Y-43355000D02*
X57500000Y-43355000D01*
%TO.C,J1*%
X59670000Y-26870000D02*
X61000000Y-26870000D01*
X59670000Y-28200000D02*
X59670000Y-26870000D01*
X59670000Y-29470000D02*
X59670000Y-37150000D01*
X59670000Y-29470000D02*
X62330000Y-29470000D01*
X59670000Y-37150000D02*
X62330000Y-37150000D01*
X62330000Y-29470000D02*
X62330000Y-37150000D01*
%TO.C,Y1*%
X47450000Y-21800000D02*
X47450000Y-29050000D01*
X47450000Y-29050000D02*
X51050000Y-29050000D01*
X51050000Y-29050000D02*
X51050000Y-21800000D01*
%TO.C,C3*%
X48515000Y-38238748D02*
X48515000Y-38761252D01*
X49985000Y-38238748D02*
X49985000Y-38761252D01*
%TO.C,R3*%
X51265000Y-42477064D02*
X51265000Y-42022936D01*
X52735000Y-42477064D02*
X52735000Y-42022936D01*
%TO.C,J2*%
X26420000Y-28630000D02*
X27750000Y-28630000D01*
X26420000Y-29960000D02*
X26420000Y-28630000D01*
X26420000Y-31230000D02*
X26420000Y-38910000D01*
X26420000Y-31230000D02*
X29080000Y-31230000D01*
X26420000Y-38910000D02*
X29080000Y-38910000D01*
X29080000Y-31230000D02*
X29080000Y-38910000D01*
%TO.C,C1*%
X28261252Y-40015000D02*
X27738748Y-40015000D01*
X28261252Y-41485000D02*
X27738748Y-41485000D01*
%TO.C,D1*%
X51040000Y-34000000D02*
X51040000Y-36685000D01*
X51040000Y-36685000D02*
X52960000Y-36685000D01*
X52960000Y-36685000D02*
X52960000Y-34000000D01*
%TO.C,Y2*%
X41950000Y-32450000D02*
X41950000Y-39700000D01*
X45550000Y-32450000D02*
X41950000Y-32450000D01*
X45550000Y-39700000D02*
X45550000Y-32450000D01*
%TO.C,R2*%
X46765000Y-31677064D02*
X46765000Y-31222936D01*
X48235000Y-31677064D02*
X48235000Y-31222936D01*
%TO.C,C2*%
X48515000Y-42511252D02*
X48515000Y-41988748D01*
X49985000Y-42511252D02*
X49985000Y-41988748D01*
%TO.C,U1*%
X33025000Y-19775000D02*
X33025000Y-20035000D01*
X33025000Y-25225000D02*
X33025000Y-24965000D01*
X35750000Y-19775000D02*
X33025000Y-19775000D01*
X35750000Y-19775000D02*
X38475000Y-19775000D01*
X35750000Y-25225000D02*
X33025000Y-25225000D01*
X35750000Y-25225000D02*
X38475000Y-25225000D01*
X38475000Y-19775000D02*
X38475000Y-20035000D01*
X38475000Y-25225000D02*
X38475000Y-24965000D01*
X32242500Y-20035000D02*
X32002500Y-19705000D01*
X32482500Y-19705000D01*
X32242500Y-20035000D01*
G36*
X32242500Y-20035000D02*
G01*
X32002500Y-19705000D01*
X32482500Y-19705000D01*
X32242500Y-20035000D01*
G37*
%TO.C,R5*%
X51022936Y-31265000D02*
X51477064Y-31265000D01*
X51022936Y-32735000D02*
X51477064Y-32735000D01*
%TD*%
M02*
